<svg width="90" height="90" viewBox="0 0 90 90" fill="none" xmlns="http://www.w3.org/2000/svg">
<path d="M68.9497 87.1385H23.7811C23.3451 87.1385 22.927 87.2892 22.6187 87.5575C22.3104 87.8259 22.1372 88.1898 22.1372 88.5692C22.1372 88.9487 22.3104 89.3126 22.6187 89.5809C22.927 89.8493 23.3451 90 23.7811 90H68.9497C69.3857 90 69.8038 89.8493 70.1122 89.5809C70.4205 89.3126 70.5937 88.9487 70.5937 88.5692C70.5937 88.1898 70.4205 87.8259 70.1122 87.5575C69.8038 87.2892 69.3857 87.1385 68.9497 87.1385ZM16.5551 87.1385C16.1191 87.1385 15.701 87.2892 15.3927 87.5575C15.0844 87.8259 14.9112 88.1898 14.9112 88.5692C14.9112 88.9487 15.0844 89.3126 15.3927 89.5809C15.701 89.8493 16.1191 90 16.5551 90H18.3591C18.7951 90 19.2132 89.8493 19.5215 89.5809C19.8299 89.3126 20.0031 88.9487 20.0031 88.5692C20.0031 88.1898 19.8299 87.8259 19.5215 87.5575C19.2132 87.2892 18.7951 87.1385 18.3591 87.1385H16.5551ZM76.1843 87.1385H74.3803C73.9443 87.1385 73.5262 87.2892 73.2179 87.5575C72.9096 87.8259 72.7364 88.1898 72.7364 88.5692C72.7364 88.9487 72.9096 89.3126 73.2179 89.5809C73.5262 89.8493 73.9443 90 74.3803 90H76.1843C76.6203 90 77.0384 89.8493 77.3467 89.5809C77.6551 89.3126 77.8283 88.9487 77.8283 88.5692C77.8283 88.1898 77.6551 87.8259 77.3467 87.5575C77.0384 87.2892 76.6203 87.1385 76.1843 87.1385ZM76.9874 0H13.0127C12.5766 0 12.1585 0.15074 11.8502 0.419059C11.5419 0.687378 11.3687 1.0513 11.3687 1.43076V19.3661H5.99129C4.40316 19.3677 2.88057 19.9173 1.75743 20.8945C0.634284 21.8717 0.00227552 23.1966 0 24.5788V64.7941C0.00182055 66.1765 0.633628 67.5019 1.75682 68.4794C2.88001 69.4569 4.40286 70.0067 5.99129 70.0083H38.3105C38.2108 71.933 37.0913 75.7104 28.4569 81.5487C28.1862 81.7316 27.988 81.9837 27.89 82.2695C27.792 82.5554 27.7991 82.8607 27.9103 83.1429C28.0216 83.425 28.2313 83.6699 28.5103 83.8432C28.7893 84.0165 29.1236 84.1095 29.4663 84.1094H63.4313C63.769 84.1097 64.0987 84.0194 64.3753 83.8507C64.6519 83.6821 64.8621 83.4434 64.9771 83.167C65.0922 82.8907 65.1065 82.5901 65.0182 82.3064C64.93 82.0227 64.7433 81.7696 64.4837 81.5816C56.6386 75.8765 55.0308 72.0617 54.6989 70.0098H84.0087C85.5971 70.0082 87.12 69.4584 88.2432 68.4809C89.3664 67.5034 89.9982 66.178 90 64.7956V24.5788C89.9977 23.1966 89.3657 21.8717 88.2426 20.8945C87.1194 19.9173 85.5968 19.3677 84.0087 19.3661H78.6313V1.43076C78.6313 1.24287 78.5888 1.05682 78.5062 0.88323C78.4236 0.709642 78.3025 0.551917 78.1498 0.419059C77.9972 0.286201 77.8159 0.180812 77.6165 0.10891C77.417 0.0370077 77.2032 0 76.9874 0ZM14.6566 2.86151H75.3434V60.0738H14.6566V2.86151ZM5.99129 22.2276H11.3687V60.2055H3.28799V24.5788C3.28799 23.2827 4.50034 22.2276 5.99129 22.2276ZM59.2284 81.2478H33.8738C40.4911 75.6595 41.4971 72.1769 41.5899 70.0083H51.3816C51.6241 72.0751 52.8795 75.5877 59.2284 81.2478ZM84.0087 67.1468H5.99129C5.27461 67.146 4.58754 66.8979 4.08077 66.4568C3.574 66.0158 3.2889 65.4179 3.28799 64.7941V63.0656H86.712V64.7941C86.712 66.0917 85.4997 67.1468 84.0087 67.1468ZM84.0087 22.2276C85.4997 22.2276 86.712 23.2827 86.712 24.5788V60.2055H78.6313V22.2276H84.0087Z" fill="#181616"/>
<path d="M24.3627 41.3422H65.6362C66.0723 41.3422 66.4904 41.1915 66.7987 40.9232C67.107 40.6549 67.2802 40.2909 67.2802 39.9115C67.2802 39.532 67.107 39.1681 66.7987 38.8998C66.4904 38.6315 66.0723 38.4807 65.6362 38.4807H24.3627C23.9267 38.4807 23.5086 38.6315 23.2003 38.8998C22.892 39.1681 22.7187 39.532 22.7188 39.9115C22.7187 40.2909 22.892 40.6549 23.2003 40.9232C23.5086 41.1915 23.9267 41.3422 24.3627 41.3422ZM54.799 45.0089H35.2017C34.7657 45.0089 34.3476 45.1597 34.0393 45.428C33.731 45.6963 33.5578 46.0602 33.5578 46.4397C33.5578 46.8191 33.731 47.1831 34.0393 47.4514C34.3476 47.7197 34.7657 47.8704 35.2017 47.8704H54.799C55.235 47.8704 55.6531 47.7197 55.9614 47.4514C56.2697 47.1831 56.443 46.8191 56.443 46.4397C56.443 46.0602 56.2697 45.6963 55.9614 45.428C55.6531 45.1597 55.235 45.0089 54.799 45.0089ZM48.2282 51.1211H41.7726C41.5567 51.1211 41.3429 51.1581 41.1434 51.23C40.944 51.3019 40.7627 51.4073 40.6101 51.5401C40.4574 51.673 40.3363 51.8307 40.2537 52.0043C40.1711 52.1779 40.1286 52.3639 40.1286 52.5518C40.1286 52.7397 40.1711 52.9258 40.2537 53.0994C40.3363 53.2729 40.4574 53.4307 40.6101 53.5635C40.7627 53.6964 40.944 53.8018 41.1434 53.8737C41.3429 53.9456 41.5567 53.9826 41.7726 53.9826H48.2282C48.444 53.9826 48.6578 53.9456 48.8573 53.8737C49.0567 53.8018 49.238 53.6964 49.3906 53.5635C49.5433 53.4307 49.6644 53.2729 49.747 53.0994C49.8296 52.9258 49.8721 52.7397 49.8721 52.5518C49.8721 52.3639 49.8296 52.1779 49.747 52.0043C49.6644 51.8307 49.5433 51.673 49.3906 51.5401C49.238 51.4073 49.0567 51.3019 48.8573 51.23C48.6578 51.1581 48.444 51.1211 48.2282 51.1211ZM43.42 32.1591C46.3684 32.1581 49.2434 31.3587 51.6463 29.8717C54.0491 28.3847 55.8608 26.2838 56.8299 23.8604C56.9007 23.6829 56.9306 23.495 56.918 23.3075C56.9054 23.1199 56.8504 22.9364 56.7563 22.7673C56.6621 22.5983 56.5307 22.447 56.3694 22.3222C56.208 22.1973 56.0201 22.1014 55.8161 22.0397C55.6122 21.9781 55.3964 21.9521 55.1809 21.9631C54.9654 21.9741 54.7545 22.0219 54.5602 22.1038C54.366 22.1857 54.1921 22.3002 54.0487 22.4405C53.9052 22.5809 53.795 22.7445 53.7242 22.922C53.3109 23.9432 52.699 24.8949 51.9151 25.7356C49.7346 23.597 46.677 22.3473 43.4166 22.3473C40.144 22.3473 37.0985 23.6 34.9197 25.7401C33.3627 24.061 32.5142 21.9682 32.5156 19.8105C32.5188 17.2945 33.6687 14.8823 35.713 13.1032C37.7572 11.3241 40.529 10.3233 43.42 10.3206C46.8352 10.3206 49.9891 11.6735 52.075 14.0366C52.3457 14.3246 52.7345 14.5095 53.1592 14.5521C53.5838 14.5948 54.0109 14.4918 54.3497 14.265C54.6886 14.0382 54.9126 13.7055 54.9744 13.3374C55.0361 12.9692 54.9306 12.5947 54.6803 12.2931C53.36 10.7851 51.6561 9.56388 49.7025 8.72517C47.7488 7.88646 45.5984 7.45309 43.42 7.45904C35.5955 7.45904 29.2294 12.9995 29.2294 19.8091C29.2294 26.6186 35.5955 32.1591 43.42 32.1591ZM43.4166 24.92C45.8567 24.92 48.1525 25.8763 49.781 27.5106C47.928 28.6711 45.7029 29.2956 43.42 29.296C41.1378 29.296 38.9139 28.6685 37.0659 27.5031C38.6927 25.8733 40.9729 24.92 43.4166 24.92Z" fill="#181616"/>
<path d="M38.7109 16.2023C38.7109 18.3978 40.7247 20.8538 43.4176 20.8538C46.1123 20.8538 48.1243 18.3978 48.1243 16.2023C48.1243 13.9439 46.0126 12.1046 43.4176 12.1046C40.8227 12.1046 38.7109 13.9439 38.7109 16.2023ZM45.1665 16.2023C45.1665 17.1736 44.2345 18.2781 43.4176 18.2781C42.6008 18.2781 41.6687 17.1736 41.6687 16.2023C41.6687 15.7987 41.853 15.4115 42.181 15.1261C42.509 14.8406 42.9538 14.6803 43.4176 14.6803C43.8815 14.6803 44.3263 14.8406 44.6543 15.1261C44.9823 15.4115 45.1665 15.7987 45.1665 16.2023ZM52.6677 16.0946C52.5016 15.9698 52.3085 15.8753 52.0998 15.8165C51.8911 15.7577 51.671 15.7359 51.4524 15.7523C51.2338 15.7687 51.0213 15.8229 50.8272 15.912C50.6331 16.001 50.4614 16.1229 50.3223 16.2705C50.1832 16.4181 50.0795 16.5885 50.0172 16.7716C49.9549 16.9546 49.9354 17.1467 49.9597 17.3364C49.9841 17.5262 50.0518 17.7098 50.1589 17.8764C50.266 18.043 50.4104 18.1892 50.5835 18.3066L53.3624 20.2896C53.5287 20.4095 53.7207 20.4996 53.9272 20.5545C54.1338 20.6095 54.3508 20.6282 54.5658 20.6097C54.7807 20.5912 54.9893 20.5358 55.1794 20.4467C55.3696 20.3576 55.5376 20.2365 55.6736 20.0905L60.3958 15.0814C60.5391 14.9368 60.6478 14.7688 60.7153 14.5871C60.7829 14.4055 60.808 14.2139 60.7892 14.0237C60.7703 13.8335 60.7079 13.6485 60.6057 13.4796C60.5034 13.3107 60.3633 13.1613 60.1937 13.0402C60.024 12.9192 59.8283 12.8289 59.6179 12.7747C59.4076 12.7205 59.1869 12.7035 58.9689 12.7246C58.7509 12.7458 58.5399 12.8048 58.3485 12.898C58.157 12.9912 57.989 13.1168 57.8542 13.2675L54.1741 17.1706L52.6677 16.0946Z" fill="#181616"/>
</svg>
