<svg width="90" height="90" viewBox="0 0 90 90" fill="none" xmlns="http://www.w3.org/2000/svg">
<path d="M83.9257 90.0004H6.07102C5.72688 90.0004 5.39683 89.8649 5.15349 89.6238C4.91015 89.3827 4.77344 89.0556 4.77344 88.7147V36.0006C4.77344 35.6596 4.91015 35.3325 5.15349 35.0914C5.39683 34.8503 5.72688 34.7148 6.07102 34.7148H32.4767C32.8209 34.7148 33.1509 34.8503 33.3942 35.0914C33.6376 35.3325 33.7743 35.6596 33.7743 36.0006C33.7743 36.3415 33.6376 36.6686 33.3942 36.9097C33.1509 37.1508 32.8209 37.2863 32.4767 37.2863H7.36859V87.4289H82.6281V37.2863H57.6757C57.3315 37.2863 57.0015 37.1508 56.7582 36.9097C56.5148 36.6686 56.3781 36.3415 56.3781 36.0006C56.3781 35.6596 56.5148 35.3325 56.7582 35.0914C57.0015 34.8503 57.3315 34.7148 57.6757 34.7148H83.9257C84.2698 34.7148 84.5999 34.8503 84.8432 35.0914C85.0865 35.3325 85.2233 35.6596 85.2233 36.0006V88.7147C85.2233 89.0556 85.0865 89.3827 84.8432 89.6238C84.5999 89.8649 84.2698 90.0004 83.9257 90.0004Z" fill="#181616"/>
<path d="M87.1713 37.2858H2.82872C2.07955 37.2824 1.36203 36.986 0.832284 36.4611C0.302534 35.9362 0.00341314 35.2253 0 34.483V21.8573C0 19.4016 5.37197 19.0544 5.42388 19.0544H87.1713C87.9205 19.0578 88.638 19.3542 89.1677 19.8791C89.6975 20.404 89.9966 21.115 90 21.8573V34.5087C89.9898 35.2465 89.6877 35.9509 89.1587 36.4703C88.6296 36.9897 87.916 37.2825 87.1713 37.2858ZM2.59516 22.3073V34.5087C2.60157 34.5655 2.62898 34.6179 2.6721 34.6559C2.71523 34.6939 2.77102 34.7147 2.82872 34.7144H87.1713C87.2332 34.7144 87.2926 34.69 87.3364 34.6466C87.3802 34.6032 87.4048 34.5443 87.4048 34.483V21.8573C87.4048 21.7959 87.3802 21.737 87.3364 21.6936C87.2926 21.6502 87.2332 21.6259 87.1713 21.6259H5.42388C4.45189 21.7116 3.49837 21.9413 2.59516 22.3073Z" fill="#181616"/>
<path d="M55.3809 37.2859C55.0368 37.2859 54.7067 37.1505 54.4634 36.9094C54.2201 36.6682 54.0834 36.3412 54.0834 36.0002V21.626H36.06V36.0002C36.06 36.3412 35.9233 36.6682 35.6799 36.9094C35.4366 37.1505 35.1066 37.2859 34.7624 37.2859C34.4183 37.2859 34.0882 37.1505 33.8449 36.9094C33.6016 36.6682 33.4648 36.3412 33.4648 36.0002V20.3403C33.4648 19.9993 33.6016 19.6723 33.8449 19.4311C34.0882 19.19 34.4183 19.0546 34.7624 19.0546H55.3809C55.7251 19.0546 56.0551 19.19 56.2985 19.4311C56.5418 19.6723 56.6785 19.9993 56.6785 20.3403V36.0002C56.6785 36.3412 56.5418 36.6682 56.2985 36.9094C56.0551 37.1505 55.7251 37.2859 55.3809 37.2859Z" fill="#181616"/>
<path d="M38.9773 90C38.6331 90 38.3031 89.8645 38.0597 89.6234C37.8164 89.3823 37.6797 89.0553 37.6797 88.7143V36.0002C37.6797 35.6592 37.8164 35.3322 38.0597 35.0911C38.3031 34.8499 38.6331 34.7145 38.9773 34.7145C39.3214 34.7145 39.6514 34.8499 39.8948 35.0911C40.1381 35.3322 40.2748 35.6592 40.2748 36.0002V88.7143C40.2748 89.0553 40.1381 89.3823 39.8948 89.6234C39.6514 89.8645 39.3214 90 38.9773 90ZM51.1615 90C50.8174 90 50.4873 89.8645 50.244 89.6234C50.0006 89.3823 49.8639 89.0553 49.8639 88.7143V36.0002C49.8639 35.6592 50.0006 35.3322 50.244 35.0911C50.4873 34.8499 50.8174 34.7145 51.1615 34.7145C51.5057 34.7145 51.8357 34.8499 52.079 35.0911C52.3224 35.3322 52.4591 35.6592 52.4591 36.0002V88.7143C52.4591 89.0553 52.3224 89.3823 52.079 89.6234C51.8357 89.8645 51.5057 90 51.1615 90ZM65.4219 21.626C65.1124 21.6284 64.8123 21.5211 64.5757 21.3235C64.339 21.126 64.1814 20.8511 64.1313 20.5485C64.0812 20.2459 64.1418 19.9355 64.3024 19.6734C64.4629 19.4112 64.7127 19.2145 65.0067 19.1188C66.4227 18.7121 67.6957 17.9211 68.6817 16.835C69.6677 15.749 70.3274 14.4113 70.5863 12.9731C71.0692 10.7522 70.6457 8.43214 69.4083 6.5195C68.1708 4.60686 66.22 3.25699 63.9816 2.7646C61.7496 2.28576 59.4171 2.70177 57.4937 3.92174C55.21 5.37459 51.0837 11.636 46.1788 20.9317C46.1004 21.0819 45.9929 21.2154 45.8625 21.3246C45.732 21.4337 45.5812 21.5162 45.4185 21.5676C45.2558 21.6189 45.0846 21.638 44.9145 21.6238C44.7444 21.6095 44.5787 21.5622 44.4271 21.4845C44.2754 21.4069 44.1407 21.3004 44.0306 21.1711C43.9205 21.0418 43.8371 20.8924 43.7853 20.7312C43.7335 20.57 43.7142 20.4003 43.7286 20.2317C43.743 20.0632 43.7907 19.8991 43.8691 19.7488C47.5413 12.7546 52.6408 3.96031 56.0923 1.74889C57.9664 0.56541 60.1519 -0.0422891 62.3737 0.00228787C64.5956 0.0468648 66.7545 0.741726 68.5786 1.9994C70.4028 3.25708 71.8107 5.02135 72.6251 7.07014C73.4395 9.11893 73.6241 11.3607 73.1555 13.5131C72.8528 14.957 72.2603 16.3258 71.4133 17.5384C70.5662 18.751 69.4819 19.7825 68.2247 20.5717C67.4678 21.0128 66.6623 21.3665 65.8241 21.626C65.6907 21.6444 65.5553 21.6444 65.4219 21.626Z" fill="#181616"/>
<path d="M24.5757 21.6257C24.4392 21.6231 24.3038 21.6014 24.1735 21.5614C23.3433 21.3193 22.5427 20.9873 21.7859 20.5714C20.5364 19.7828 19.457 18.7566 18.6101 17.5522C17.7632 16.3477 17.1656 14.9889 16.8519 13.5542C16.5382 12.1196 16.5145 10.6376 16.7824 9.19381C17.0502 7.75006 17.6041 6.37322 18.4122 5.14287C19.2095 3.90637 20.2455 2.83819 21.4608 1.99975C22.676 1.16131 24.0466 0.569146 25.4936 0.257299C26.9406 -0.054547 28.4355 -0.079925 29.8925 0.182624C31.3494 0.445174 32.7396 0.990473 33.9832 1.78717C37.4347 3.98573 42.5342 12.78 46.2063 19.7871C46.2847 19.9374 46.3325 20.1015 46.3468 20.27C46.3612 20.4386 46.342 20.6083 46.2902 20.7695C46.2383 20.9306 46.155 21.0801 46.0449 21.2094C45.9348 21.3386 45.8 21.4451 45.6484 21.5228C45.4967 21.6005 45.3311 21.6478 45.161 21.662C44.9909 21.6763 44.8196 21.6572 44.657 21.6059C44.4943 21.5545 44.3434 21.4719 44.213 21.3628C44.0825 21.2537 43.975 21.1202 43.8966 20.97C38.9918 11.6228 34.8136 5.41287 32.5818 3.96002C31.1447 3.05311 29.4694 2.58667 27.7659 2.61916C26.0624 2.65165 24.4065 3.18162 23.0057 4.14265C21.6048 5.10368 20.5215 6.45301 19.8913 8.02153C19.2611 9.59005 19.1122 11.308 19.4633 12.96C19.6991 14.0584 20.1533 15.0993 20.7993 16.022C21.4454 16.9447 22.2704 17.7308 23.2262 18.3343C23.8004 18.6587 24.4098 18.9175 25.0428 19.1057C25.3368 19.2014 25.5866 19.3981 25.7472 19.6602C25.9077 19.9224 25.9684 20.2328 25.9182 20.5353C25.8681 20.8379 25.7105 21.1128 25.4739 21.3104C25.2372 21.508 24.9371 21.6152 24.6276 21.6128L24.5757 21.6257Z" fill="#181616"/>
</svg>
