<svg width="90" height="90" viewBox="0 0 90 90" fill="none" xmlns="http://www.w3.org/2000/svg">
<path fill-rule="evenodd" clip-rule="evenodd" d="M19.9515 52.9183H17.8086V55.3147H19.9515V57.711H17.8086V60.1074H19.9515V66.0982H22.0943V60.1074H28.4693V57.711H22.0943V55.3147H26.9157C28.4786 55.3147 29.9775 54.6204 31.0826 53.3845C32.1877 52.1487 32.8086 50.4725 32.8086 48.7247C32.8086 46.977 32.1877 45.3008 31.0826 44.0649C29.9775 42.8291 28.4786 42.1348 26.9157 42.1348H19.9515V52.9183ZM22.0943 52.9183V44.5311H26.9157C27.9103 44.5311 28.8641 44.9729 29.5674 45.7594C30.2706 46.5458 30.6657 47.6125 30.6657 48.7247C30.6657 49.8369 30.2706 50.9036 29.5674 51.6901C28.8641 52.4765 27.9103 52.9183 26.9157 52.9183H22.0943Z" fill="#181616"/>
<path d="M89.9277 51.1808C89.8191 50.6571 89.5859 50.1707 89.2498 49.7669C88.9138 49.3631 88.4857 49.055 88.0056 48.8713L84.2729 47.4326C84.1118 47.3692 83.9404 47.3398 83.7685 47.3461C83.5965 47.3525 83.4275 47.3944 83.2711 47.4696C83.1147 47.5448 82.974 47.6516 82.8572 47.784C82.7403 47.9164 82.6497 48.0718 82.5903 48.2411C82.531 48.4105 82.5042 48.5904 82.5114 48.7707C82.5187 48.9509 82.5599 49.1279 82.6327 49.2913C82.7055 49.4548 82.8084 49.6016 82.9355 49.7232C83.0625 49.8448 83.2113 49.9388 83.3732 49.9998L87.1059 51.4385C87.3001 51.5134 87.3613 51.6774 87.3803 51.7685C87.3995 51.8595 87.4097 52.0352 87.2631 52.1888L53.943 87.1305C53.7962 87.2844 53.6285 87.2733 53.542 87.2534C53.4552 87.2333 53.2989 87.1694 53.2276 86.9653L48.5449 73.6049C48.393 73.1706 48.1527 72.7762 47.8408 72.449C47.5288 72.1219 47.1526 71.87 46.7384 71.7107L33.9982 66.8004C33.8038 66.7254 33.7428 66.5615 33.7237 66.4705C33.7045 66.3794 33.6943 66.2037 33.8407 66.0502L67.1612 31.1085C67.3078 30.9547 67.4749 30.9656 67.5619 30.9855C67.6488 31.0056 67.805 31.0696 67.8764 31.2734L72.5588 44.6336C72.7107 45.0681 72.951 45.4626 73.263 45.7897C73.575 46.1169 73.9512 46.3688 74.3655 46.528L77.6059 47.7769C78.2819 48.0377 79.0314 47.674 79.2798 46.9651C79.5282 46.2561 79.1817 45.4701 78.5055 45.2097L75.265 43.9606C75.2059 43.9379 75.1522 43.9019 75.1077 43.8552C75.0632 43.8085 75.0289 43.7522 75.0073 43.6902L70.3249 30.33C70.1497 29.8265 69.8559 29.3777 69.4709 29.0252C69.0859 28.6728 68.6221 28.4282 68.1227 28.3143C67.6238 28.1979 67.1049 28.2157 66.6143 28.3661C66.1237 28.5165 65.6774 28.7945 65.3169 29.1744L64.0555 30.4972V16.9291C64.0555 15.1696 62.6904 13.7381 61.0125 13.7381H47.7299C48.945 11.2606 48.5653 8.13837 46.5885 6.06552C45.775 5.20992 44.7524 4.60601 43.6329 4.32013C42.5135 4.03426 41.3406 4.07747 40.243 4.44504C39.3938 1.86178 37.0538 0 34.3057 0C31.5577 0 29.2179 1.86141 28.3685 4.4443C26.1698 3.70568 23.7181 4.28762 22.023 6.06534C20.8368 7.30904 20.1836 8.96271 20.1836 10.7218C20.182 11.7711 20.4206 12.8054 20.8794 13.7379H19.7853C19.4432 13.7438 19.1169 13.8905 18.8769 14.1463C18.6369 14.4021 18.5024 14.7466 18.5024 15.1055C18.5024 15.4643 18.6369 15.8088 18.8769 16.0647C19.1169 16.3205 19.4432 16.4672 19.7853 16.473H29.0788V29.4168C27.631 29.1396 26.1623 28.9998 24.6905 28.9989C21.9722 28.9989 19.4143 29.4432 16.9663 30.2981L7.16446 30.2985V16.9289C7.16455 16.808 7.21038 16.6921 7.29189 16.6067C7.37339 16.5212 7.4839 16.4731 7.59917 16.473H13.5449C13.8871 16.4672 14.2134 16.3205 14.4533 16.0647C14.6933 15.8088 14.8278 15.4643 14.8278 15.1055C14.8278 14.7466 14.6933 14.4021 14.4533 14.1463C14.2134 13.8905 13.8871 13.7438 13.5449 13.7379H7.59881C5.92099 13.7379 4.55588 15.1694 4.55588 16.9289V39.894C4.55588 39.9023 4.55693 39.9104 4.55711 39.9189C1.68837 44.1487 0 49.3168 0 54.8907C0 60.4521 1.66324 65.7562 4.80988 70.2296C4.93109 70.4022 5.08935 70.5424 5.27184 70.639C5.45434 70.7355 5.65594 70.7857 5.86035 70.7853C6.10161 70.7852 6.33812 70.7149 6.54354 70.5822C6.74897 70.4495 6.91526 70.2597 7.02391 70.0338C7.13257 69.8079 7.17933 69.5548 7.15899 69.3027C7.13865 69.0506 7.052 68.8093 6.9087 68.6058C4.09516 64.6061 2.60806 59.8633 2.60806 54.8906C2.60806 42.1221 12.514 31.7343 24.69 31.7343C34.8958 31.7343 43.6691 38.9447 46.1211 49.3039L43.9133 51.6192C43.2529 47.3194 41.2986 43.3593 38.2678 40.2644C34.608 36.5275 29.786 34.4694 24.69 34.4694C13.9522 34.4694 5.21629 43.6303 5.21629 54.8906C5.21629 66.1508 13.952 75.3119 24.69 75.3119C29.1217 75.3119 33.4143 73.7212 36.8631 70.8187L39.6584 71.896C35.5948 75.8258 30.2406 78.047 24.69 78.047C19.6521 78.047 14.7209 76.2131 10.8049 72.8833C10.5356 72.6611 10.1938 72.559 9.85336 72.599C9.5129 72.639 9.20111 72.8178 8.98535 73.0969C8.76959 73.3759 8.6672 73.7328 8.70029 74.0904C8.73338 74.448 8.89931 74.7775 9.16221 75.0079C13.5413 78.7316 19.0558 80.7824 24.69 80.7824C31.3378 80.7824 37.7329 77.9346 42.3721 72.9419L45.8386 74.2779C45.8978 74.3007 45.9515 74.3367 45.996 74.3834C46.0406 74.4301 46.0748 74.4865 46.0965 74.5485L50.7789 87.9087C50.9541 88.4122 51.2478 88.861 51.6328 89.2135C52.0178 89.5659 52.4816 89.8105 52.9809 89.9244C53.2007 89.9751 53.4218 90 53.6408 90C54.0397 89.9999 54.4346 89.9172 54.8029 89.7566C55.1712 89.5961 55.5056 89.3608 55.7869 89.0643L89.1074 54.1228C89.4696 53.7448 89.7348 53.2768 89.8782 52.7624C90.0217 52.248 90.0387 51.704 89.9277 51.1808ZM7.16411 36.6726V33.034H11.4683C9.90902 34.0753 8.46538 35.2957 7.16411 36.6726ZM61.4471 16.9291V30.2987H39.5325V16.4732H61.0124C61.1276 16.4734 61.2381 16.5215 61.3196 16.6069C61.4011 16.6924 61.4469 16.8082 61.4471 16.9291ZM44.7442 7.99956C46.1756 9.50078 46.1756 11.9434 44.7444 13.4442C44.6873 13.5043 44.5764 13.6039 44.3839 13.7381H38.0299C39.9229 10.004 40.4137 8.17689 40.5404 7.25891C41.2272 6.9071 42.0018 6.78936 42.7556 6.92217C43.5094 7.05498 44.2047 7.4317 44.7442 7.99956ZM34.3055 2.73515C36.33 2.73515 37.977 4.46237 37.977 6.58516C37.977 6.98038 37.7626 8.65635 35.0592 13.7379H33.5519C30.8491 8.65764 30.6341 6.98111 30.6341 6.58516C30.6341 4.46237 32.281 2.73515 34.3055 2.73515ZM23.8671 13.4444C23.1737 12.7172 22.7917 11.7504 22.7917 10.722C22.7917 9.69359 23.1737 8.72676 23.8671 7.99956C24.9879 6.82425 26.6733 6.54221 28.0707 7.25964C28.1977 8.178 28.6881 10.0042 30.5811 13.7381H24.2275C24.035 13.6041 23.9244 13.5045 23.8671 13.4444ZM31.6867 16.4732H36.9243V30.2987H32.4086C32.4028 30.2987 32.3974 30.2994 32.3916 30.2996C32.1578 30.2189 31.9226 30.1429 31.6867 30.0696V16.4732ZM40.1214 34.6921C39.4135 34.0969 38.6747 33.5433 37.9083 33.034H61.4472V33.2324L56.3988 38.5265H43.805C42.7085 37.1167 41.4738 35.8315 40.1214 34.6921ZM45.6676 41.2616H53.7904L48.2326 47.0899C47.6113 45.0431 46.7497 43.0853 45.6676 41.2616ZM24.6901 72.5769C15.3905 72.5769 7.82487 64.643 7.82487 54.8909C7.82487 45.1389 15.3906 37.205 24.6901 37.205C33.6428 37.205 41.146 44.7641 41.538 54.1106L31.9966 64.1163C31.2589 64.89 30.9521 65.9899 31.1764 67.0585C31.4007 68.1271 32.1193 68.9903 33.0986 69.3678L33.9207 69.6847C31.1781 71.5709 27.9699 72.5761 24.6901 72.5769Z" fill="#181616"/>
<path d="M61.8057 71.3245L50.7717 59.7267L55.6849 54.5625C56.1591 54.064 56.6609 53.6873 57.1903 53.4323C57.7086 53.1657 58.227 53.0266 58.7453 53.015C59.2526 52.9918 59.7544 53.0903 60.2507 53.3106C60.7359 53.5192 61.1826 53.838 61.5906 54.2669C61.9435 54.6378 62.2082 55.032 62.3847 55.4493C62.5722 55.855 62.6824 56.2723 62.7155 56.7012C62.7486 57.1069 62.721 57.5069 62.6328 57.901C62.5336 58.2835 62.3847 58.6371 62.1862 58.9616C62.528 58.695 62.9085 58.5154 63.3276 58.4226C63.7577 58.3183 64.1878 58.2951 64.6179 58.3531C65.0591 58.3994 65.4892 58.5269 65.9083 58.7356C66.3384 58.9327 66.7188 59.2051 67.0497 59.5528C67.4908 60.0165 67.8217 60.515 68.0423 61.0482C68.2628 61.5814 68.3676 62.1321 68.3566 62.7001C68.3455 63.2681 68.2132 63.8361 67.9595 64.4041C67.7169 64.9605 67.3419 65.5053 66.8346 66.0385L61.8057 71.3245ZM60.2341 59.831C60.8627 59.1703 61.1715 58.498 61.1605 57.814C61.1385 57.1185 60.8738 56.5041 60.3665 55.9709C59.8702 55.4493 59.2912 55.1769 58.6295 55.1537C57.9568 55.1189 57.3061 55.4319 56.6775 56.0926L53.3689 59.5702L56.9256 63.3086L60.2341 59.831ZM65.3293 65.0474C65.9799 64.3635 66.3163 63.6622 66.3384 62.9435C66.3604 62.2016 66.0737 61.5177 65.4781 60.8917C65.2245 60.6251 64.9378 60.4164 64.6179 60.2657C64.2981 60.115 63.9672 60.0455 63.6254 60.0571C63.2835 60.0455 62.9361 60.1208 62.5832 60.2831C62.2192 60.4338 61.8663 60.6889 61.5245 61.0482L58.1498 64.5953L61.9546 68.5946L65.3293 65.0474Z" fill="#181616"/>
</svg>
