<svg width="1053" height="658" viewBox="0 0 1053 658" fill="none" xmlns="http://www.w3.org/2000/svg">
<g clip-path="url(#clip0_362_30717)">
<line x1="159" y1="213" x2="868" y2="213" stroke="#34322C" stroke-width="4"/>
<line x1="515.321" y1="541.734" x2="160.321" y2="213.734" stroke="#34322C" stroke-width="2"/>
<line x1="866.681" y1="213.733" x2="514.681" y2="540.733" stroke="#34322C" stroke-width="2"/>
<line x1="159.426" y1="213.181" x2="296.426" y2="117.181" stroke="#34322C" stroke-width="2"/>
<line x1="296" y1="117" x2="731" y2="117" stroke="#34322C" stroke-width="2"/>
<line x1="730.577" y1="117.183" x2="866.577" y2="213.183" stroke="#34322C" stroke-width="2"/>
<line x1="515.09" y1="540.584" x2="664.091" y2="214.584" stroke="#34322C" stroke-width="2"/>
<line x1="515.094" y1="541.423" x2="362.094" y2="213.423" stroke="#34322C" stroke-width="2"/>
<line x1="468.021" y1="441.797" x2="515.021" y2="214.797" stroke="#34322C" stroke-width="2"/>
<line x1="560.019" y1="442.194" x2="515.019" y2="215.194" stroke="#34322C" stroke-width="2"/>
<line x1="410.163" y1="445.547" x2="259.163" y2="214.547" stroke="#34322C" stroke-width="2"/>
<line x1="468.263" y1="442.676" x2="259.263" y2="214.676" stroke="#34322C" stroke-width="2"/>
<line x1="180.71" y1="214.296" x2="392.71" y2="428.296" stroke="#34322C" stroke-width="2"/>
<line x1="618.162" y1="444.454" x2="768.162" y2="214.454" stroke="#34322C" stroke-width="2"/>
<line x1="560.263" y1="441.324" x2="768.263" y2="214.324" stroke="#34322C" stroke-width="2"/>
<line x1="657.28" y1="408.306" x2="845.28" y2="213.306" stroke="#34322C" stroke-width="2"/>
<line x1="845.299" y1="214.714" x2="790.299" y2="160.714" stroke="#34322C" stroke-width="2"/>
<line x1="790.926" y1="160.377" x2="768.926" y2="214.377" stroke="#34322C" stroke-width="2"/>
<line x1="768.598" y1="213.915" x2="652.598" y2="162.915" stroke="#34322C" stroke-width="2"/>
<line x1="652.2" y1="161.4" x2="685.2" y2="117.4" stroke="#34322C" stroke-width="2"/>
<line x1="686.374" y1="117.073" x2="790.374" y2="159.073" stroke="#34322C" stroke-width="2"/>
<line x1="652.694" y1="162.952" x2="515.694" y2="118.952" stroke="#34322C" stroke-width="2"/>
<line x1="516.282" y1="118.959" x2="380.282" y2="158.959" stroke="#34322C" stroke-width="2"/>
<line x1="380.423" y1="158.906" x2="260.423" y2="214.906" stroke="#34322C" stroke-width="2"/>
<line x1="259.072" y1="214.371" x2="237.072" y2="159.371" stroke="#34322C" stroke-width="2"/>
<line x1="238.695" y1="159.719" x2="180.695" y2="215.719" stroke="#34322C" stroke-width="2"/>
<line x1="237.609" y1="159.079" x2="336.609" y2="117.079" stroke="#34322C" stroke-width="2"/>
<line x1="337.681" y1="117.268" x2="380.681" y2="157.268" stroke="#34322C" stroke-width="2"/>
<line x1="380.949" y1="158.316" x2="361.949" y2="215.316" stroke="#34322C" stroke-width="2"/>
<line x1="650.97" y1="161.757" x2="663.97" y2="213.757" stroke="#34322C" stroke-width="2"/>
<line x1="380.387" y1="157.078" x2="516.387" y2="214.078" stroke="#34322C" stroke-width="2"/>
<line x1="513.644" y1="214.066" x2="652.644" y2="161.066" stroke="#34322C" stroke-width="2"/>
<g filter="url(#filter0_f_362_30717)">
<ellipse cx="183.5" cy="213" rx="9.5" ry="2" fill="#F1F1F1"/>
</g>
<g filter="url(#filter1_f_362_30717)">
<ellipse cx="261.5" cy="213" rx="9.5" ry="2" fill="#F1F1F1"/>
</g>
<g filter="url(#filter2_f_362_30717)">
<ellipse cx="361.5" cy="213" rx="9.5" ry="2" fill="#F1F1F1"/>
</g>
<g filter="url(#filter3_f_362_30717)">
<ellipse cx="514.5" cy="213" rx="9.5" ry="2" fill="#F1F1F1"/>
</g>
<g filter="url(#filter4_f_362_30717)">
<ellipse cx="662.5" cy="213" rx="9.5" ry="2" fill="#F1F1F1"/>
</g>
<g filter="url(#filter5_f_362_30717)">
<ellipse cx="768.5" cy="213" rx="9.5" ry="2" fill="#F1F1F1"/>
</g>
<g filter="url(#filter6_f_362_30717)">
<ellipse cx="841.5" cy="213" rx="9.5" ry="2" fill="#F1F1F1"/>
</g>
</g>
<line x1="514.5" y1="561" x2="514.5" y2="611" stroke="#858585"/>
<line x1="514.5" y1="47" x2="514.5" y2="97" stroke="#858585"/>
<line x1="883" y1="212.5" x2="933" y2="212.5" stroke="#858585"/>
<line x1="94" y1="213.5" x2="144" y2="213.5" stroke="#858585"/>
<line x1="94" y1="115.5" x2="144" y2="115.5" stroke="#858585"/>
<line x1="883" y1="241.5" x2="933" y2="241.5" stroke="#858585"/>
<line x1="883" y1="540.5" x2="933" y2="540.5" stroke="#858585"/>
<path d="M484.582 651L479.016 644.4L477.542 646.072V651H475.716V636.326H477.542V643.916L484.032 636.326H486.32L480.204 643.3L486.848 651H484.582ZM495.142 651V649.79C494.247 650.773 493.074 651.264 491.622 651.264C491.167 651.264 490.72 651.191 490.28 651.044C489.84 650.897 489.444 650.677 489.092 650.384C488.74 650.076 488.454 649.702 488.234 649.262C488.014 648.822 487.904 648.316 487.904 647.744C487.904 647.157 488.014 646.644 488.234 646.204C488.454 645.764 488.74 645.397 489.092 645.104C489.444 644.811 489.84 644.598 490.28 644.466C490.72 644.319 491.167 644.246 491.622 644.246C492.355 644.246 493.015 644.363 493.602 644.598C494.203 644.833 494.716 645.199 495.142 645.698V643.784C495.142 643.065 494.885 642.515 494.372 642.134C493.873 641.738 493.235 641.54 492.458 641.54C491.211 641.54 490.126 642.031 489.202 643.014L488.432 641.87C489.561 640.697 490.976 640.11 492.678 640.11C493.235 640.11 493.763 640.176 494.262 640.308C494.76 640.44 495.193 640.653 495.56 640.946C495.941 641.225 496.242 641.591 496.462 642.046C496.682 642.501 496.792 643.051 496.792 643.696V651H495.142ZM492.216 650.076C492.802 650.076 493.352 649.966 493.866 649.746C494.394 649.526 494.819 649.196 495.142 648.756V646.754C494.819 646.314 494.394 645.984 493.866 645.764C493.352 645.544 492.802 645.434 492.216 645.434C491.438 645.434 490.808 645.654 490.324 646.094C489.84 646.519 489.598 647.077 489.598 647.766C489.598 648.441 489.84 648.998 490.324 649.438C490.808 649.863 491.438 650.076 492.216 650.076ZM498.845 649.9C499.344 649.9 499.755 649.577 500.077 648.932C500.4 648.287 500.664 647.179 500.869 645.61L501.551 640.374H508.943V651H507.293V641.826H503.003L502.519 645.808C502.402 646.805 502.241 647.649 502.035 648.338C501.83 649.027 501.573 649.592 501.265 650.032C500.972 650.457 500.62 650.773 500.209 650.978C499.813 651.169 499.359 651.264 498.845 651.264V649.9ZM517.034 651.264C516.242 651.264 515.516 651.132 514.856 650.868C514.196 650.589 513.624 650.208 513.14 649.724C512.671 649.225 512.297 648.639 512.018 647.964C511.754 647.275 511.622 646.512 511.622 645.676C511.622 644.913 511.754 644.195 512.018 643.52C512.282 642.831 512.641 642.237 513.096 641.738C513.565 641.239 514.115 640.843 514.746 640.55C515.391 640.257 516.095 640.11 516.858 640.11C517.665 640.11 518.383 640.257 519.014 640.55C519.645 640.843 520.18 641.247 520.62 641.76C521.06 642.273 521.39 642.882 521.61 643.586C521.845 644.275 521.962 645.016 521.962 645.808V646.226H513.36C513.389 646.725 513.499 647.201 513.69 647.656C513.881 648.096 514.137 648.485 514.46 648.822C514.797 649.145 515.193 649.409 515.648 649.614C516.103 649.805 516.616 649.9 517.188 649.9C517.804 649.9 518.398 649.783 518.97 649.548C519.542 649.313 520.041 648.983 520.466 648.558L521.258 649.636C520.73 650.164 520.114 650.567 519.41 650.846C518.706 651.125 517.914 651.264 517.034 651.264ZM520.334 645.016C520.334 644.62 520.261 644.217 520.114 643.806C519.982 643.381 519.769 642.999 519.476 642.662C519.197 642.31 518.838 642.024 518.398 641.804C517.958 641.584 517.437 641.474 516.836 641.474C516.264 641.474 515.765 641.584 515.34 641.804C514.915 642.024 514.555 642.303 514.262 642.64C513.983 642.977 513.763 643.359 513.602 643.784C513.455 644.195 513.375 644.605 513.36 645.016H520.334ZM526.57 651V641.826H523.49V640.374H531.322V641.826H528.22V651H526.57ZM535.422 651V641.826H532.342V640.374H540.174V641.826H537.072V651H535.422ZM548.982 651V649.79C548.087 650.773 546.914 651.264 545.462 651.264C545.007 651.264 544.56 651.191 544.12 651.044C543.68 650.897 543.284 650.677 542.932 650.384C542.58 650.076 542.294 649.702 542.074 649.262C541.854 648.822 541.744 648.316 541.744 647.744C541.744 647.157 541.854 646.644 542.074 646.204C542.294 645.764 542.58 645.397 542.932 645.104C543.284 644.811 543.68 644.598 544.12 644.466C544.56 644.319 545.007 644.246 545.462 644.246C546.195 644.246 546.855 644.363 547.442 644.598C548.043 644.833 548.556 645.199 548.982 645.698V643.784C548.982 643.065 548.725 642.515 548.212 642.134C547.713 641.738 547.075 641.54 546.298 641.54C545.051 641.54 543.966 642.031 543.042 643.014L542.272 641.87C543.401 640.697 544.816 640.11 546.518 640.11C547.075 640.11 547.603 640.176 548.102 640.308C548.6 640.44 549.033 640.653 549.4 640.946C549.781 641.225 550.082 641.591 550.302 642.046C550.522 642.501 550.632 643.051 550.632 643.696V651H548.982ZM546.056 650.076C546.642 650.076 547.192 649.966 547.706 649.746C548.234 649.526 548.659 649.196 548.982 648.756V646.754C548.659 646.314 548.234 645.984 547.706 645.764C547.192 645.544 546.642 645.434 546.056 645.434C545.278 645.434 544.648 645.654 544.164 646.094C543.68 646.519 543.438 647.077 543.438 647.766C543.438 648.441 543.68 648.998 544.164 649.438C544.648 649.863 545.278 650.076 546.056 650.076Z" fill="#070707"/>
<path d="M471.122 20V6.954H462.542V20H460.716V5.326H472.948V20H471.122ZM475.058 18.9C475.557 18.9 475.967 18.5773 476.29 17.932C476.613 17.2867 476.877 16.1793 477.082 14.61L477.764 9.374H485.156V20H483.506V10.826H479.216L478.732 14.808C478.615 15.8053 478.453 16.6487 478.248 17.338C478.043 18.0273 477.786 18.592 477.478 19.032C477.185 19.4573 476.833 19.7727 476.422 19.978C476.026 20.1687 475.571 20.264 475.058 20.264V18.9ZM493.093 20.264C492.286 20.264 491.553 20.1173 490.893 19.824C490.247 19.5307 489.697 19.1347 489.243 18.636C488.788 18.1227 488.436 17.5287 488.187 16.854C487.952 16.1793 487.835 15.4533 487.835 14.676C487.835 13.9133 487.952 13.1947 488.187 12.52C488.436 11.8307 488.788 11.2367 489.243 10.738C489.697 10.2393 490.247 9.84333 490.893 9.55C491.553 9.25667 492.286 9.11 493.093 9.11C493.899 9.11 494.625 9.25667 495.271 9.55C495.931 9.84333 496.488 10.2393 496.943 10.738C497.397 11.2367 497.742 11.8307 497.977 12.52C498.226 13.1947 498.351 13.9133 498.351 14.676C498.351 15.4533 498.226 16.1793 497.977 16.854C497.742 17.5287 497.397 18.1227 496.943 18.636C496.488 19.1347 495.931 19.5307 495.271 19.824C494.625 20.1173 493.899 20.264 493.093 20.264ZM493.093 18.79C493.665 18.79 494.163 18.68 494.589 18.46C495.029 18.2253 495.395 17.9247 495.689 17.558C495.997 17.1767 496.224 16.7367 496.371 16.238C496.532 15.7393 496.613 15.2187 496.613 14.676C496.613 14.1333 496.532 13.62 496.371 13.136C496.224 12.6373 495.997 12.2047 495.689 11.838C495.395 11.4567 495.029 11.156 494.589 10.936C494.163 10.7013 493.665 10.584 493.093 10.584C492.521 10.584 492.015 10.7013 491.575 10.936C491.135 11.156 490.761 11.4567 490.453 11.838C490.159 12.2047 489.932 12.6373 489.771 13.136C489.624 13.62 489.551 14.1333 489.551 14.676C489.551 15.2187 489.624 15.7393 489.771 16.238C489.932 16.7367 490.159 17.1767 490.453 17.558C490.761 17.9247 491.135 18.2253 491.575 18.46C492.015 18.68 492.521 18.79 493.093 18.79ZM514.967 9.374V18.548H516.331V22.706H514.681V20H501.041V9.374H502.691V18.548H507.179V9.374H508.829V18.548H513.317V9.374H514.967ZM525.237 20V18.79C524.343 19.7727 523.169 20.264 521.717 20.264C521.263 20.264 520.815 20.1907 520.375 20.044C519.935 19.8973 519.539 19.6773 519.187 19.384C518.835 19.076 518.549 18.702 518.329 18.262C518.109 17.822 517.999 17.316 517.999 16.744C517.999 16.1573 518.109 15.644 518.329 15.204C518.549 14.764 518.835 14.3973 519.187 14.104C519.539 13.8107 519.935 13.598 520.375 13.466C520.815 13.3193 521.263 13.246 521.717 13.246C522.451 13.246 523.111 13.3633 523.697 13.598C524.299 13.8327 524.812 14.1993 525.237 14.698V12.784C525.237 12.0653 524.981 11.5153 524.467 11.134C523.969 10.738 523.331 10.54 522.553 10.54C521.307 10.54 520.221 11.0313 519.297 12.014L518.527 10.87C519.657 9.69667 521.072 9.11 522.773 9.11C523.331 9.11 523.859 9.176 524.357 9.308C524.856 9.44 525.289 9.65267 525.655 9.946C526.037 10.2247 526.337 10.5913 526.557 11.046C526.777 11.5007 526.887 12.0507 526.887 12.696V20H525.237ZM522.311 19.076C522.898 19.076 523.448 18.966 523.961 18.746C524.489 18.526 524.915 18.196 525.237 17.756V15.754C524.915 15.314 524.489 14.984 523.961 14.764C523.448 14.544 522.898 14.434 522.311 14.434C521.534 14.434 520.903 14.654 520.419 15.094C519.935 15.5193 519.693 16.0767 519.693 16.766C519.693 17.4407 519.935 17.998 520.419 18.438C520.903 18.8633 521.534 19.076 522.311 19.076ZM528.941 18.636C529.19 18.592 529.41 18.504 529.601 18.372C529.806 18.24 529.99 18.0273 530.151 17.734C530.327 17.4407 530.481 17.0447 530.613 16.546C530.745 16.0473 530.862 15.402 530.965 14.61L531.647 9.374H539.039V18.548H540.271V22.706H538.621V20H530.591V22.706H528.941V18.636ZM532.615 14.808C532.483 15.82 532.285 16.6193 532.021 17.206C531.772 17.7927 531.456 18.24 531.075 18.548H537.389V10.826H533.099L532.615 14.808ZM549.765 20L545.937 15.226L544.177 16.964V20H542.527V9.374H544.177V15.028L549.765 9.374H551.855L547.147 14.192L551.877 20H549.765ZM560.472 20V18.79C559.577 19.7727 558.404 20.264 556.952 20.264C556.497 20.264 556.05 20.1907 555.61 20.044C555.17 19.8973 554.774 19.6773 554.422 19.384C554.07 19.076 553.784 18.702 553.564 18.262C553.344 17.822 553.234 17.316 553.234 16.744C553.234 16.1573 553.344 15.644 553.564 15.204C553.784 14.764 554.07 14.3973 554.422 14.104C554.774 13.8107 555.17 13.598 555.61 13.466C556.05 13.3193 556.497 13.246 556.952 13.246C557.685 13.246 558.345 13.3633 558.932 13.598C559.533 13.8327 560.046 14.1993 560.472 14.698V12.784C560.472 12.0653 560.215 11.5153 559.702 11.134C559.203 10.738 558.565 10.54 557.788 10.54C556.541 10.54 555.456 11.0313 554.532 12.014L553.762 10.87C554.891 9.69667 556.306 9.11 558.008 9.11C558.565 9.11 559.093 9.176 559.592 9.308C560.09 9.44 560.523 9.65267 560.89 9.946C561.271 10.2247 561.572 10.5913 561.792 11.046C562.012 11.5007 562.122 12.0507 562.122 12.696V20H560.472ZM557.546 19.076C558.132 19.076 558.682 18.966 559.196 18.746C559.724 18.526 560.149 18.196 560.472 17.756V15.754C560.149 15.314 559.724 14.984 559.196 14.764C558.682 14.544 558.132 14.434 557.546 14.434C556.768 14.434 556.138 14.654 555.654 15.094C555.17 15.5193 554.928 16.0767 554.928 16.766C554.928 17.4407 555.17 17.998 555.654 18.438C556.138 18.8633 556.768 19.076 557.546 19.076Z" fill="#070707"/>
<path d="M954.716 220V205.326H960.612C961.345 205.326 961.998 205.443 962.57 205.678C963.142 205.913 963.619 206.235 964 206.646C964.396 207.042 964.697 207.511 964.902 208.054C965.107 208.582 965.21 209.147 965.21 209.748C965.21 210.349 965.107 210.921 964.902 211.464C964.697 211.992 964.396 212.461 964 212.872C963.604 213.268 963.12 213.583 962.548 213.818C961.976 214.053 961.331 214.17 960.612 214.17H956.542V220H954.716ZM960.392 212.542C961.272 212.542 961.976 212.285 962.504 211.772C963.047 211.259 963.318 210.584 963.318 209.748C963.318 208.912 963.047 208.237 962.504 207.724C961.976 207.211 961.272 206.954 960.392 206.954H956.542V212.542H960.392ZM967.232 222.662C967.349 222.721 967.496 222.765 967.672 222.794C967.848 222.823 968.002 222.838 968.134 222.838C968.501 222.838 968.809 222.757 969.058 222.596C969.307 222.449 969.527 222.156 969.718 221.716L970.422 220.11L965.978 209.374H967.76L971.302 218.086L974.822 209.374H976.626L971.302 222.156C970.979 222.933 970.554 223.483 970.026 223.806C969.498 224.129 968.882 224.297 968.178 224.312C968.002 224.312 967.797 224.297 967.562 224.268C967.327 224.239 967.129 224.202 966.968 224.158L967.232 222.662ZM978.347 220V209.374H979.997V213.796H985.541V209.374H987.191V220H985.541V215.248H979.997V220H978.347ZM989.232 218.636C989.481 218.592 989.701 218.504 989.892 218.372C990.097 218.24 990.281 218.027 990.442 217.734C990.618 217.441 990.772 217.045 990.904 216.546C991.036 216.047 991.153 215.402 991.256 214.61L991.938 209.374H999.33V218.548H1000.56V222.706H998.912V220H990.882V222.706H989.232V218.636ZM992.906 214.808C992.774 215.82 992.576 216.619 992.312 217.206C992.063 217.793 991.747 218.24 991.366 218.548H997.68V210.826H993.39L992.906 214.808ZM1002.82 220V209.374H1004.47V217.492L1010.03 209.374H1011.66V220H1010.01V211.728L1004.4 220H1002.82ZM1019.64 220.264C1018.85 220.264 1018.12 220.125 1017.46 219.846C1016.82 219.553 1016.26 219.157 1015.79 218.658C1015.34 218.159 1014.98 217.573 1014.71 216.898C1014.47 216.209 1014.34 215.468 1014.34 214.676C1014.34 213.884 1014.47 213.151 1014.71 212.476C1014.98 211.801 1015.34 211.215 1015.79 210.716C1016.26 210.217 1016.82 209.829 1017.46 209.55C1018.12 209.257 1018.85 209.11 1019.64 209.11C1020.61 209.11 1021.4 209.286 1022 209.638C1022.61 209.99 1023.13 210.43 1023.54 210.958L1022.44 211.97C1022.08 211.486 1021.68 211.134 1021.23 210.914C1020.79 210.694 1020.29 210.584 1019.73 210.584C1019.16 210.584 1018.65 210.687 1018.19 210.892C1017.75 211.097 1017.37 211.383 1017.05 211.75C1016.72 212.117 1016.47 212.549 1016.3 213.048C1016.14 213.547 1016.06 214.089 1016.06 214.676C1016.06 215.263 1016.14 215.813 1016.3 216.326C1016.47 216.825 1016.72 217.257 1017.05 217.624C1017.37 217.991 1017.75 218.277 1018.19 218.482C1018.65 218.687 1019.16 218.79 1019.73 218.79C1020.85 218.79 1021.75 218.328 1022.44 217.404L1023.54 218.416C1023.13 218.944 1022.61 219.384 1022 219.736C1021.4 220.088 1020.61 220.264 1019.64 220.264ZM1027.79 220V210.826H1024.71V209.374H1032.54V210.826H1029.44V220H1027.79Z" fill="#070707"/>
<path d="M10.582 171L5.016 164.4L3.542 166.072V171H1.716V156.326H3.542V163.916L10.032 156.326H12.32L6.204 163.3L12.848 171H10.582ZM18.7529 171.264C17.9463 171.264 17.2129 171.117 16.5529 170.824C15.9076 170.531 15.3576 170.135 14.9029 169.636C14.4483 169.123 14.0963 168.529 13.8469 167.854C13.6123 167.179 13.4949 166.453 13.4949 165.676C13.4949 164.913 13.6123 164.195 13.8469 163.52C14.0963 162.831 14.4483 162.237 14.9029 161.738C15.3576 161.239 15.9076 160.843 16.5529 160.55C17.2129 160.257 17.9463 160.11 18.7529 160.11C19.5596 160.11 20.2856 160.257 20.9309 160.55C21.5909 160.843 22.1483 161.239 22.6029 161.738C23.0576 162.237 23.4023 162.831 23.6369 163.52C23.8863 164.195 24.0109 164.913 24.0109 165.676C24.0109 166.453 23.8863 167.179 23.6369 167.854C23.4023 168.529 23.0576 169.123 22.6029 169.636C22.1483 170.135 21.5909 170.531 20.9309 170.824C20.2856 171.117 19.5596 171.264 18.7529 171.264ZM18.7529 169.79C19.3249 169.79 19.8236 169.68 20.2489 169.46C20.6889 169.225 21.0556 168.925 21.3489 168.558C21.6569 168.177 21.8843 167.737 22.0309 167.238C22.1923 166.739 22.2729 166.219 22.2729 165.676C22.2729 165.133 22.1923 164.62 22.0309 164.136C21.8843 163.637 21.6569 163.205 21.3489 162.838C21.0556 162.457 20.6889 162.156 20.2489 161.936C19.8236 161.701 19.3249 161.584 18.7529 161.584C18.1809 161.584 17.6749 161.701 17.2349 161.936C16.7949 162.156 16.4209 162.457 16.1129 162.838C15.8196 163.205 15.5923 163.637 15.4309 164.136C15.2843 164.62 15.2109 165.133 15.2109 165.676C15.2109 166.219 15.2843 166.739 15.4309 167.238C15.5923 167.737 15.8196 168.177 16.1129 168.558C16.4209 168.925 16.7949 169.225 17.2349 169.46C17.6749 169.68 18.1809 169.79 18.7529 169.79ZM31.9368 171.264C31.2034 171.264 30.5288 171.103 29.9128 170.78C29.2968 170.457 28.7761 169.995 28.3508 169.394V175.048H26.7008V160.374H28.3508V161.958C28.7321 161.415 29.2381 160.975 29.8688 160.638C30.4994 160.286 31.1888 160.11 31.9368 160.11C32.6408 160.11 33.2788 160.242 33.8508 160.506C34.4374 160.755 34.9361 161.122 35.3468 161.606C35.7721 162.075 36.0948 162.655 36.3148 163.344C36.5494 164.033 36.6668 164.811 36.6668 165.676C36.6668 166.541 36.5494 167.319 36.3148 168.008C36.0948 168.697 35.7721 169.284 35.3468 169.768C34.9361 170.252 34.4374 170.626 33.8508 170.89C33.2788 171.139 32.6408 171.264 31.9368 171.264ZM31.5188 169.79C32.0468 169.79 32.5234 169.687 32.9488 169.482C33.3741 169.277 33.7334 168.991 34.0268 168.624C34.3201 168.257 34.5401 167.825 34.6868 167.326C34.8481 166.813 34.9288 166.263 34.9288 165.676C34.9288 165.089 34.8481 164.547 34.6868 164.048C34.5401 163.549 34.3201 163.117 34.0268 162.75C33.7334 162.383 33.3741 162.097 32.9488 161.892C32.5234 161.687 32.0468 161.584 31.5188 161.584C30.8588 161.584 30.2354 161.753 29.6488 162.09C29.0768 162.413 28.6441 162.809 28.3508 163.278V168.074C28.6441 168.543 29.0768 168.947 29.6488 169.284C30.2354 169.621 30.8588 169.79 31.5188 169.79ZM43.9326 171.264C43.126 171.264 42.3926 171.117 41.7326 170.824C41.0873 170.531 40.5373 170.135 40.0826 169.636C39.628 169.123 39.276 168.529 39.0266 167.854C38.792 167.179 38.6746 166.453 38.6746 165.676C38.6746 164.913 38.792 164.195 39.0266 163.52C39.276 162.831 39.628 162.237 40.0826 161.738C40.5373 161.239 41.0873 160.843 41.7326 160.55C42.3926 160.257 43.126 160.11 43.9326 160.11C44.7393 160.11 45.4653 160.257 46.1106 160.55C46.7706 160.843 47.328 161.239 47.7826 161.738C48.2373 162.237 48.582 162.831 48.8166 163.52C49.066 164.195 49.1906 164.913 49.1906 165.676C49.1906 166.453 49.066 167.179 48.8166 167.854C48.582 168.529 48.2373 169.123 47.7826 169.636C47.328 170.135 46.7706 170.531 46.1106 170.824C45.4653 171.117 44.7393 171.264 43.9326 171.264ZM43.9326 169.79C44.5046 169.79 45.0033 169.68 45.4286 169.46C45.8686 169.225 46.2353 168.925 46.5286 168.558C46.8366 168.177 47.064 167.737 47.2106 167.238C47.372 166.739 47.4526 166.219 47.4526 165.676C47.4526 165.133 47.372 164.62 47.2106 164.136C47.064 163.637 46.8366 163.205 46.5286 162.838C46.2353 162.457 45.8686 162.156 45.4286 161.936C45.0033 161.701 44.5046 161.584 43.9326 161.584C43.3606 161.584 42.8546 161.701 42.4146 161.936C41.9746 162.156 41.6006 162.457 41.2926 162.838C40.9993 163.205 40.772 163.637 40.6106 164.136C40.464 164.62 40.3906 165.133 40.3906 165.676C40.3906 166.219 40.464 166.739 40.6106 167.238C40.772 167.737 40.9993 168.177 41.2926 168.558C41.6006 168.925 41.9746 169.225 42.4146 169.46C42.8546 169.68 43.3606 169.79 43.9326 169.79ZM51.8805 171V160.374H53.5305V164.796H59.0745V160.374H60.7245V171H59.0745V166.248H53.5305V171H51.8805ZM70.6631 171V169.79C69.7685 170.773 68.5951 171.264 67.1431 171.264C66.6885 171.264 66.2411 171.191 65.8011 171.044C65.3611 170.897 64.9651 170.677 64.6131 170.384C64.2611 170.076 63.9751 169.702 63.7551 169.262C63.5351 168.822 63.4251 168.316 63.4251 167.744C63.4251 167.157 63.5351 166.644 63.7551 166.204C63.9751 165.764 64.2611 165.397 64.6131 165.104C64.9651 164.811 65.3611 164.598 65.8011 164.466C66.2411 164.319 66.6885 164.246 67.1431 164.246C67.8765 164.246 68.5365 164.363 69.1231 164.598C69.7245 164.833 70.2378 165.199 70.6631 165.698V163.784C70.6631 163.065 70.4065 162.515 69.8931 162.134C69.3945 161.738 68.7565 161.54 67.9791 161.54C66.7325 161.54 65.6471 162.031 64.7231 163.014L63.9531 161.87C65.0825 160.697 66.4978 160.11 68.1991 160.11C68.7565 160.11 69.2845 160.176 69.7831 160.308C70.2818 160.44 70.7145 160.653 71.0811 160.946C71.4625 161.225 71.7631 161.591 71.9831 162.046C72.2031 162.501 72.3131 163.051 72.3131 163.696V171H70.6631ZM67.7371 170.076C68.3238 170.076 68.8738 169.966 69.3871 169.746C69.9151 169.526 70.3405 169.196 70.6631 168.756V166.754C70.3405 166.314 69.9151 165.984 69.3871 165.764C68.8738 165.544 68.3238 165.434 67.7371 165.434C66.9598 165.434 66.3291 165.654 65.8451 166.094C65.3611 166.519 65.1191 167.077 65.1191 167.766C65.1191 168.441 65.3611 168.998 65.8451 169.438C66.3291 169.863 66.9598 170.076 67.7371 170.076Z" fill="#070707"/>
<path d="M965.122 397V383.954H956.542V397H954.716V382.326H966.948V397H965.122ZM976.956 397V395.79C976.061 396.773 974.888 397.264 973.436 397.264C972.981 397.264 972.534 397.191 972.094 397.044C971.654 396.897 971.258 396.677 970.906 396.384C970.554 396.076 970.268 395.702 970.048 395.262C969.828 394.822 969.718 394.316 969.718 393.744C969.718 393.157 969.828 392.644 970.048 392.204C970.268 391.764 970.554 391.397 970.906 391.104C971.258 390.811 971.654 390.598 972.094 390.466C972.534 390.319 972.981 390.246 973.436 390.246C974.169 390.246 974.829 390.363 975.416 390.598C976.017 390.833 976.531 391.199 976.956 391.698V389.784C976.956 389.065 976.699 388.515 976.186 388.134C975.687 387.738 975.049 387.54 974.272 387.54C973.025 387.54 971.94 388.031 971.016 389.014L970.246 387.87C971.375 386.697 972.791 386.11 974.492 386.11C975.049 386.11 975.577 386.176 976.076 386.308C976.575 386.44 977.007 386.653 977.374 386.946C977.755 387.225 978.056 387.591 978.276 388.046C978.496 388.501 978.606 389.051 978.606 389.696V397H976.956ZM974.03 396.076C974.617 396.076 975.167 395.966 975.68 395.746C976.208 395.526 976.633 395.196 976.956 394.756V392.754C976.633 392.314 976.208 391.984 975.68 391.764C975.167 391.544 974.617 391.434 974.03 391.434C973.253 391.434 972.622 391.654 972.138 392.094C971.654 392.519 971.412 393.077 971.412 393.766C971.412 394.441 971.654 394.998 972.138 395.438C972.622 395.863 973.253 396.076 974.03 396.076ZM981.914 397V386.374H987.766C988.704 386.374 989.438 386.631 989.966 387.144C990.494 387.643 990.758 388.295 990.758 389.102C990.758 389.747 990.582 390.275 990.23 390.686C989.892 391.097 989.496 391.375 989.042 391.522C989.306 391.595 989.555 391.713 989.79 391.874C990.024 392.035 990.23 392.233 990.406 392.468C990.582 392.703 990.721 392.959 990.824 393.238C990.926 393.517 990.978 393.81 990.978 394.118C990.978 394.983 990.706 395.68 990.164 396.208C989.621 396.736 988.858 397 987.876 397H981.914ZM987.546 395.548C988.074 395.548 988.492 395.409 988.8 395.13C989.108 394.837 989.262 394.433 989.262 393.92C989.262 393.495 989.115 393.113 988.822 392.776C988.528 392.439 988.103 392.27 987.546 392.27H983.564V395.548H987.546ZM987.48 390.818C987.993 390.818 988.382 390.679 988.646 390.4C988.924 390.121 989.064 389.769 989.064 389.344C989.064 388.875 988.924 388.508 988.646 388.244C988.382 387.965 987.993 387.826 987.48 387.826H983.564V390.818H987.48ZM994.095 397V386.374H995.745V394.492L1001.31 386.374H1002.94V397H1001.29V388.728L995.679 397H994.095ZM1004.98 395.9C1005.48 395.9 1005.89 395.577 1006.21 394.932C1006.53 394.287 1006.8 393.179 1007 391.61L1007.69 386.374H1015.08V397H1013.43V387.826H1009.14L1008.65 391.808C1008.54 392.805 1008.38 393.649 1008.17 394.338C1007.96 395.027 1007.71 395.592 1007.4 396.032C1007.11 396.457 1006.75 396.773 1006.34 396.978C1005.95 397.169 1005.49 397.264 1004.98 397.264V395.9ZM1020.02 386.374V390.488H1024C1024.55 390.488 1025.02 390.576 1025.43 390.752C1025.86 390.928 1026.21 391.17 1026.49 391.478C1026.78 391.771 1027 392.116 1027.13 392.512C1027.28 392.893 1027.35 393.304 1027.35 393.744C1027.35 394.184 1027.28 394.602 1027.13 394.998C1026.98 395.394 1026.77 395.739 1026.49 396.032C1026.21 396.325 1025.86 396.56 1025.43 396.736C1025.02 396.912 1024.55 397 1024 397H1018.37V386.374H1020.02ZM1020.02 391.94V395.548H1023.83C1024.43 395.548 1024.88 395.379 1025.19 395.042C1025.5 394.705 1025.65 394.272 1025.65 393.744C1025.65 393.231 1025.5 392.805 1025.19 392.468C1024.9 392.116 1024.44 391.94 1023.83 391.94H1020.02ZM1034.51 397.264C1033.7 397.264 1032.97 397.117 1032.31 396.824C1031.66 396.531 1031.11 396.135 1030.66 395.636C1030.2 395.123 1029.85 394.529 1029.6 393.854C1029.37 393.179 1029.25 392.453 1029.25 391.676C1029.25 390.913 1029.37 390.195 1029.6 389.52C1029.85 388.831 1030.2 388.237 1030.66 387.738C1031.11 387.239 1031.66 386.843 1032.31 386.55C1032.97 386.257 1033.7 386.11 1034.51 386.11C1035.32 386.11 1036.04 386.257 1036.69 386.55C1037.35 386.843 1037.9 387.239 1038.36 387.738C1038.81 388.237 1039.16 388.831 1039.39 389.52C1039.64 390.195 1039.77 390.913 1039.77 391.676C1039.77 392.453 1039.64 393.179 1039.39 393.854C1039.16 394.529 1038.81 395.123 1038.36 395.636C1037.9 396.135 1037.35 396.531 1036.69 396.824C1036.04 397.117 1035.32 397.264 1034.51 397.264ZM1034.51 395.79C1035.08 395.79 1035.58 395.68 1036 395.46C1036.44 395.225 1036.81 394.925 1037.1 394.558C1037.41 394.177 1037.64 393.737 1037.79 393.238C1037.95 392.739 1038.03 392.219 1038.03 391.676C1038.03 391.133 1037.95 390.62 1037.79 390.136C1037.64 389.637 1037.41 389.205 1037.1 388.838C1036.81 388.457 1036.44 388.156 1036 387.936C1035.58 387.701 1035.08 387.584 1034.51 387.584C1033.94 387.584 1033.43 387.701 1032.99 387.936C1032.55 388.156 1032.18 388.457 1031.87 388.838C1031.58 389.205 1031.35 389.637 1031.19 390.136C1031.04 390.62 1030.97 391.133 1030.97 391.676C1030.97 392.219 1031.04 392.739 1031.19 393.238C1031.35 393.737 1031.58 394.177 1031.87 394.558C1032.18 394.925 1032.55 395.225 1032.99 395.46C1033.43 395.68 1033.94 395.79 1034.51 395.79ZM1042.46 397V386.374H1044.11V390.796H1049.65V386.374H1051.3V397H1049.65V392.248H1044.11V397H1042.46Z" fill="#070707"/>
<line x1="932.5" y1="241" x2="932.5" y2="541" stroke="#858585"/>
<line x1="94.5" y1="116" x2="94.5" y2="214" stroke="#858585"/>
<defs>
<filter id="filter0_f_362_30717" x="169" y="206" width="29" height="14" filterUnits="userSpaceOnUse" color-interpolation-filters="sRGB">
<feFlood flood-opacity="0" result="BackgroundImageFix"/>
<feBlend mode="normal" in="SourceGraphic" in2="BackgroundImageFix" result="shape"/>
<feGaussianBlur stdDeviation="2.5" result="effect1_foregroundBlur_362_30717"/>
</filter>
<filter id="filter1_f_362_30717" x="247" y="206" width="29" height="14" filterUnits="userSpaceOnUse" color-interpolation-filters="sRGB">
<feFlood flood-opacity="0" result="BackgroundImageFix"/>
<feBlend mode="normal" in="SourceGraphic" in2="BackgroundImageFix" result="shape"/>
<feGaussianBlur stdDeviation="2.5" result="effect1_foregroundBlur_362_30717"/>
</filter>
<filter id="filter2_f_362_30717" x="347" y="206" width="29" height="14" filterUnits="userSpaceOnUse" color-interpolation-filters="sRGB">
<feFlood flood-opacity="0" result="BackgroundImageFix"/>
<feBlend mode="normal" in="SourceGraphic" in2="BackgroundImageFix" result="shape"/>
<feGaussianBlur stdDeviation="2.5" result="effect1_foregroundBlur_362_30717"/>
</filter>
<filter id="filter3_f_362_30717" x="500" y="206" width="29" height="14" filterUnits="userSpaceOnUse" color-interpolation-filters="sRGB">
<feFlood flood-opacity="0" result="BackgroundImageFix"/>
<feBlend mode="normal" in="SourceGraphic" in2="BackgroundImageFix" result="shape"/>
<feGaussianBlur stdDeviation="2.5" result="effect1_foregroundBlur_362_30717"/>
</filter>
<filter id="filter4_f_362_30717" x="648" y="206" width="29" height="14" filterUnits="userSpaceOnUse" color-interpolation-filters="sRGB">
<feFlood flood-opacity="0" result="BackgroundImageFix"/>
<feBlend mode="normal" in="SourceGraphic" in2="BackgroundImageFix" result="shape"/>
<feGaussianBlur stdDeviation="2.5" result="effect1_foregroundBlur_362_30717"/>
</filter>
<filter id="filter5_f_362_30717" x="754" y="206" width="29" height="14" filterUnits="userSpaceOnUse" color-interpolation-filters="sRGB">
<feFlood flood-opacity="0" result="BackgroundImageFix"/>
<feBlend mode="normal" in="SourceGraphic" in2="BackgroundImageFix" result="shape"/>
<feGaussianBlur stdDeviation="2.5" result="effect1_foregroundBlur_362_30717"/>
</filter>
<filter id="filter6_f_362_30717" x="827" y="206" width="29" height="14" filterUnits="userSpaceOnUse" color-interpolation-filters="sRGB">
<feFlood flood-opacity="0" result="BackgroundImageFix"/>
<feBlend mode="normal" in="SourceGraphic" in2="BackgroundImageFix" result="shape"/>
<feGaussianBlur stdDeviation="2.5" result="effect1_foregroundBlur_362_30717"/>
</filter>
<clipPath id="clip0_362_30717">
<rect width="704" height="437" fill="white" transform="translate(161 104)"/>
</clipPath>
</defs>
</svg>
