<svg width="100" height="100" viewBox="0 0 100 100" fill="none" xmlns="http://www.w3.org/2000/svg">
<circle cx="50" cy="50" r="50" fill="#D9D9D9"/>
<path fill-rule="evenodd" clip-rule="evenodd" d="M35.3636 63.1931C35.9091 62.9808 36.2273 62.8959 36.2273 61.2397V43.2767C36.2727 41.2383 35.5909 41.4932 35 41.0685H40.5909C40.2727 41.2808 39.3182 41.1109 39.3182 43.2767V50.1137H41.6818C42.0455 47.311 43.2727 45.0178 45.3637 43.2767C47.5909 41.4082 50.3636 40.5164 53.7727 40.5164C57.5 40.5164 60.5 41.6206 62.7727 43.8288C64.9545 45.9096 66 48.5425 66 51.7698C66 55.1671 65 58.0123 62.9546 60.263C60.7273 62.726 57.6364 64 53.7727 64C50 64 47 62.7685 44.7272 60.3479C42.5909 58.0973 41.5454 55.337 41.5454 52.1096H39.3182V61.1973C39.3182 63.4904 40.2273 63.1507 40.5909 63.4054C38.7273 63.4054 36.8636 63.4054 35 63.4054L35.3636 63.1931ZM48.9091 34.0616C49.2273 34.0616 49.5455 34.3164 49.5455 34.6562C49.5455 34.7836 49.5 34.911 49.4545 34.9959C50 35.3781 50.6818 35.7178 51.3636 35.9726C51.2727 37.2041 51.6818 37.8411 52.2727 37.8411C52.8636 37.8411 52.7273 36.9493 52.1364 35.3356C52.6818 35.0384 53.1818 34.6137 53.5 34.0616C53.3182 33.9767 53.1818 33.8068 53.1818 33.5521C53.1818 33.2548 53.4545 33 53.7727 33C54.0909 33 54.4091 33.2548 54.4091 33.5521C54.4091 33.7644 54.2728 33.9767 54.0455 34.0616C54.4091 34.5712 54.8636 34.9959 55.4091 35.3356C54.8182 36.9493 54.6818 37.7986 55.2727 37.8411C55.8636 37.8411 56.2273 37.2041 56.1818 35.9726C56.9091 35.7178 57.5455 35.3781 58.1363 34.9534C58.0454 34.8685 58.0454 34.7411 58.0454 34.6137C58.0454 34.3164 58.3182 34.0192 58.6818 34.0192C59 34.0192 59.3182 34.274 59.3182 34.6137C59.3182 34.911 59.0454 35.2082 58.6818 35.2082L57.3182 38.3931H57.6818V39.0726H57.2727V39.9219C55.0909 39.4973 52.4545 39.4973 50.2727 39.9219V39.0726H49.9091V38.3931H50.2727L48.9091 35.2082C48.5909 35.2082 48.2727 34.9534 48.2727 34.6137C48.2727 34.3164 48.5455 34.0616 48.9091 34.0616ZM53.8182 61.7918C56.8636 61.7918 59.1363 60.8151 60.6818 58.9041C62 57.2479 62.6363 54.9548 62.6363 52.0671C62.6363 49.3493 62 47.1411 60.7273 45.4849C59.2272 43.5315 56.9091 42.5973 53.8636 42.5973C50.9546 42.5973 48.7273 43.574 47.1364 45.4849C45.7272 47.1836 45.0455 49.3918 45.0455 52.0671C45.0455 54.7849 45.6818 56.9932 47 58.7342C48.5 60.7301 50.7727 61.7918 53.8182 61.7918Z" fill="black"/>
</svg>
