<svg width="594" height="86" viewBox="0 0 594 86" fill="none" xmlns="http://www.w3.org/2000/svg">
<path fill-rule="evenodd" clip-rule="evenodd" d="M0.881633 78.5938C2.20408 78.0412 2.9755 77.8201 2.9755 73.509V26.7507C3.08571 21.4446 1.43265 22.108 0 21.0025H13.5551C12.7837 21.5552 10.4694 21.113 10.4694 26.7507V44.5476H16.2C17.0816 37.252 20.0572 31.2827 25.1266 26.7507C30.5265 21.887 37.2489 19.5655 45.5143 19.5655C54.551 19.5655 61.8245 22.4396 67.3347 28.1876C72.6244 33.6041 75.1592 40.4576 75.1592 48.8586C75.1592 57.7018 72.7347 65.108 67.7756 70.9666C62.3755 77.3778 54.8816 80.6941 45.5143 80.6941C36.3673 80.6941 29.0939 77.4885 23.5836 71.1876C18.4041 65.3291 15.8694 58.144 15.8694 49.743H10.4694V73.3985C10.4694 79.3675 12.6735 78.4833 13.5551 79.1465C9.03674 79.1465 4.51836 79.1465 0 79.1465L0.881633 78.5938ZM248.951 65.4396L276.943 24.5399C278.485 22.2186 275.289 23.8765 273.858 21.113H287.413C285.538 24.0976 284.326 22.2186 284.326 26.7507V73.1774C284.326 78.3728 285.76 76.7146 287.413 78.8149H273.858C275.18 76.383 276.943 78.0412 276.943 73.1774V34.0462L248.951 75.1672C248.179 76.9357 250.935 77.599 251.706 78.8149H238.481C240.354 76.7146 241.568 78.1517 241.568 73.1774V26.7507C241.568 21.6659 239.804 22.9923 238.481 21.113H252.036C250.935 23.1028 248.951 21.6659 248.951 26.7507V65.4396ZM33.7224 2.7635C34.494 2.7635 35.2654 3.42674 35.2654 4.31105C35.2654 4.64267 35.1551 4.9743 35.0448 5.19536C36.3673 6.19022 38.0204 7.07455 39.6735 7.73778C39.4531 10.9434 40.4449 12.6015 41.8776 12.6015C43.3101 12.6015 42.9797 10.2802 41.5469 6.07969C42.8694 5.30591 44.0817 4.20052 44.8531 2.7635C44.4122 2.54242 44.0817 2.10025 44.0817 1.43702C44.0817 0.663239 44.7429 0 45.5143 0C46.2857 0 47.0571 0.663239 47.0571 1.43702C47.0571 1.98972 46.7266 2.54242 46.1756 2.7635C47.0571 4.08997 48.1591 5.19536 49.4816 6.07969C48.0491 10.2802 47.7184 12.491 49.1509 12.6015C50.5837 12.6015 51.4653 10.9434 51.3551 7.73778C53.1185 7.07455 54.6613 6.19022 56.0938 5.08483C55.8734 4.86375 55.8734 4.53214 55.8734 4.20052C55.8734 3.42674 56.5347 2.65295 57.4162 2.65295C58.1878 2.65295 58.9593 3.31619 58.9593 4.20052C58.9593 4.9743 58.2979 5.74808 57.4162 5.74808L54.1102 14.0386H54.9919V15.8072H53.9999V18.018C48.7102 16.9126 42.3183 16.9126 37.0286 18.018V15.8072H36.1469V14.0386H37.0286L33.7224 5.74808C32.951 5.74808 32.1796 5.08483 32.1796 4.20052C32.1796 3.42674 32.8409 2.7635 33.7224 2.7635ZM550.8 21.0025H577.36C581.768 21.0025 585.735 22.4396 589.04 25.4242C592.347 28.4087 594 32.0566 594 36.5886C594 41.8947 592.127 46.3161 588.27 49.8535C585.294 52.617 580.995 54.9384 575.265 57.0384C570.636 58.5861 566.009 60.0232 561.38 61.5706V73.2879C561.38 77.9306 563.363 76.4935 564.464 79.0359H550.909C552.343 76.2725 553.996 78.0412 553.996 73.2879V26.7507C553.885 21.9975 551.571 23.9871 550.8 21.0025ZM561.269 26.4189V56.2647C567.11 54.7173 570.858 53.6118 572.4 53.0591C576.588 51.5115 579.673 49.5219 581.768 47.4216C584.413 44.6582 585.625 41.1208 585.625 36.8099C585.625 33.7146 584.302 31.2827 581.657 29.4037C579.011 27.5244 576.037 26.5295 572.731 26.5295H561.269V26.4189ZM499.114 21.0025H547.383V31.5038C543.857 30.509 546.06 26.1979 539.78 26.1979H526.997V73.1774C526.997 77.7096 527.878 76.2725 530.082 78.9254H516.527C518.18 76.6041 519.611 77.9306 519.611 73.1774V26.3084H506.829C500.437 26.3084 501.869 31.1722 499.225 31.6143V21.0025H499.114ZM449.854 73.2879V26.7507C449.854 21.887 448.751 23.6555 446.767 21.0025H460.322C458.669 24.0976 457.237 21.9975 457.237 26.7507V44.5476H484.787V26.7507C484.787 21.4446 483.465 23.9871 481.702 21.0025H495.257C493.384 24.0976 492.171 21.6659 492.171 26.7507V73.2879C492.171 78.3728 493.493 76.7146 495.257 79.0359H481.702C482.914 76.7146 484.787 78.3728 484.787 73.2879V49.5219H457.237V73.1774C457.237 77.9306 459 76.7146 460.322 78.9254H446.767C447.979 76.2725 450.294 77.9306 449.854 73.2879ZM394.089 21.0025H439.714V31.5038C436.408 29.0719 438.503 26.1979 432.109 26.1979H404.56V44.4371H425.167C429.466 44.4371 428.143 42.6684 431.339 40.5681V53.5013C428.252 51.622 430.458 49.6325 425.167 49.6325H404.56V73.6195H433.654C440.817 73.6195 438.172 71.0771 442.579 67.8715V79.0359H394.089C394.862 76.6041 397.176 78.1517 397.176 73.2879V26.7507C397.176 22.2186 394.751 24.0976 394.089 21.0025ZM342.734 73.2879V26.7507C342.734 22.108 341.192 24.2083 339.649 21.0025H353.204C351.44 24.5399 350.117 22.2186 350.117 26.7507V73.6195H377.449V26.7507C377.449 22.2186 375.796 24.3188 374.363 21.0025H387.918C386.155 24.5399 384.833 22.2186 384.833 26.7507V73.6195H389.571V86C384.502 83.2365 390.123 79.0359 380.314 79.0359H339.538C340.75 76.9356 343.176 78.2622 342.734 73.2879ZM291.601 21.0025H318.158C322.568 21.0025 326.536 22.4396 329.84 25.4242C333.147 28.4087 334.8 32.0566 334.8 36.5886C334.8 41.8947 332.927 46.3161 329.07 49.8535C326.094 52.617 321.796 54.9384 316.065 57.0384C311.436 58.5861 306.809 60.0232 302.18 61.5706V73.2879C302.18 77.9306 303.283 76.2725 305.265 79.0359H291.709C293.585 76.4935 294.796 78.1517 294.796 73.2879V26.7507C294.685 22.108 292.923 24.3188 291.601 21.0025ZM302.069 26.4189V56.2647C307.91 54.7173 311.658 53.6118 313.2 53.0591C317.388 51.5115 320.473 49.5219 322.568 47.4216C325.213 44.6582 326.425 41.1208 326.425 36.8099C326.425 33.7146 325.102 31.2827 322.457 29.4037C319.812 27.5244 316.838 26.5295 313.531 26.5295H302.069V26.4189ZM233.854 78.9254H220.519C221.511 77.1567 223.714 78.7043 223.273 74.8354C223.273 74.5038 223.164 74.2827 223.053 73.9511L207.955 32.7198L192.416 73.2879C192.196 73.73 192.196 74.1722 192.196 74.5038C191.424 78.3727 192.967 76.6041 195.171 78.8149H183.931C184.812 77.7096 184.812 77.9306 186.686 73.0669L204.429 26.9718C204.649 26.4189 204.649 25.9768 204.649 25.6452C205.199 21.3341 203.437 22.7712 202.225 20.892H211.923L231.098 73.509C232.531 78.1517 232.09 77.0462 233.854 78.9254ZM133.898 21.0025H179.522V31.5038C177.429 30.1774 178.42 26.1979 171.918 26.1979H144.367V44.4371H164.976C169.604 44.4371 169.384 42.3368 171.147 40.5681V53.5013C168.943 51.401 169.604 49.6325 164.976 49.6325H144.367V73.6195H173.461C181.396 73.6195 179.412 70.9666 182.388 67.8715V79.0359H133.898C134.339 78.0412 136.984 78.7043 136.984 73.2879V26.7507C136.873 21.4446 135 22.2186 133.898 21.0025ZM79.6776 21.0025H111.306C114.943 21.0025 118.139 22.4396 120.784 25.2031C123.429 27.9666 124.751 31.1722 124.751 34.8201C124.751 37.5836 123.98 40.0155 122.327 42.1158C120.784 44.2158 118.469 45.874 115.494 46.8688C119.461 47.6427 122.657 49.5219 125.192 52.617C127.726 55.7121 128.939 59.1387 128.939 62.8972C128.939 67.5399 126.845 71.4087 122.547 74.6143C118.58 77.599 114.171 79.0359 109.323 79.0359H79.5673C79.8979 78.5938 81.4408 77.3778 81.8817 76.1619C82.2122 75.2777 82.5428 74.2827 82.5428 73.2879V26.7507C82.6531 24.761 80.8897 22.4396 79.6776 21.0025ZM90.147 25.6452V44.5476H108C110.645 44.5476 112.739 43.6632 114.392 41.784C116.045 40.0155 116.927 37.6941 116.927 34.8201C116.927 31.9461 115.824 29.6247 113.51 28.0771C111.306 26.4189 108.551 25.6452 105.576 25.6452H90.147ZM90.147 49.5219V73.509H107.89C111.196 73.509 114.061 72.2929 116.706 69.9718C119.351 67.5399 120.563 64.7764 120.563 61.3496C120.563 58.144 119.351 55.3805 116.816 53.0591C114.282 50.7378 111.306 49.5219 108 49.5219H90.147ZM45.6245 74.9461C53.0082 74.9461 58.5183 72.4037 62.2653 67.4294C65.4612 63.1183 67.004 57.1492 67.004 49.6325C67.004 42.5579 65.4612 36.8099 62.3755 32.4987C58.7387 27.4139 53.1185 24.982 45.7346 24.982C38.6817 24.982 33.2816 27.5244 29.4246 32.4987C26.0081 36.9204 24.3552 42.6684 24.3552 49.6325C24.3552 56.7069 25.898 62.4551 29.0939 66.9871C32.7306 72.1824 38.2407 74.9461 45.6245 74.9461Z" fill="#FCFCFC"/>
</svg>
