<svg width="250" height="36" viewBox="0 0 250 36" fill="none" xmlns="http://www.w3.org/2000/svg">
<path fill-rule="evenodd" clip-rule="evenodd" d="M0.371057 32.8997C0.927642 32.6684 1.25232 32.5759 1.25232 30.7712V11.198C1.2987 8.97682 0.602968 9.25452 0 8.79175H5.70501C5.38033 9.02309 4.40631 8.83802 4.40631 11.198V18.6478H6.81818C7.18924 15.5939 8.44158 13.0951 10.5752 11.198C12.8478 9.16198 15.6772 8.19023 19.1558 8.19023C22.9592 8.19023 26.0204 9.39333 28.3395 11.7995C30.5658 14.0668 31.6327 16.9357 31.6327 20.4524C31.6327 24.1543 30.6122 27.2545 28.5251 29.7069C26.2523 32.3907 23.0983 33.7789 19.1558 33.7789C15.3061 33.7789 12.2449 32.437 9.92575 29.7995C7.74582 27.3471 6.67903 24.3393 6.67903 20.8226H4.40631V30.7249C4.40631 33.2236 5.33395 32.8535 5.70501 33.1311C3.80334 33.1311 1.90167 33.1311 0 33.1311L0.371057 32.8997ZM104.777 27.3933L116.558 10.2725C117.207 9.30079 115.862 9.99482 115.26 8.83802H120.965C120.176 10.0874 119.666 9.30079 119.666 11.198V30.6324C119.666 32.8072 120.269 32.1131 120.965 32.9923H115.26C115.817 31.9743 116.558 32.6684 116.558 30.6324V14.2519L104.777 31.4653C104.452 32.2056 105.612 32.4833 105.937 32.9923H100.371C101.159 32.1131 101.67 32.7147 101.67 30.6324V11.198C101.67 9.06944 100.927 9.62467 100.371 8.83802H106.076C105.612 9.67094 104.777 9.06944 104.777 11.198V27.3933ZM14.1929 1.15681C14.5177 1.15681 14.8423 1.43445 14.8423 1.80463C14.8423 1.94344 14.7959 2.08226 14.7495 2.1748C15.3061 2.59126 16.0018 2.96144 16.6976 3.23907C16.6048 4.58097 17.0222 5.27507 17.6252 5.27507C18.2282 5.27507 18.0891 4.30334 17.4861 2.54499C18.0427 2.22108 18.5529 1.75836 18.8776 1.15681C18.692 1.06427 18.5529 0.879175 18.5529 0.601543C18.5529 0.277635 18.8312 0 19.1558 0C19.4805 0 19.8052 0.277635 19.8052 0.601543C19.8052 0.832906 19.6661 1.06427 19.4342 1.15681C19.8052 1.71208 20.269 2.1748 20.8256 2.54499C20.2227 4.30334 20.0835 5.22879 20.6864 5.27507C21.2894 5.27507 21.6605 4.58097 21.6141 3.23907C22.3562 2.96144 23.0056 2.59126 23.6085 2.12853C23.5157 2.03599 23.5158 1.89717 23.5158 1.75836C23.5158 1.43445 23.7941 1.11054 24.1651 1.11054C24.4898 1.11054 24.8145 1.38817 24.8145 1.75836C24.8145 2.08226 24.5362 2.40617 24.1651 2.40617L22.7737 5.8766H23.1448V6.61696H22.7272V7.54241C20.5009 7.07969 17.8107 7.07969 15.5844 7.54241V6.61696H15.2133V5.8766H15.5844L14.1929 2.40617C13.8682 2.40617 13.5436 2.12853 13.5436 1.75836C13.5436 1.43445 13.8219 1.15681 14.1929 1.15681ZM231.818 8.79175H242.997C244.852 8.79175 246.522 9.39333 247.912 10.6427C249.304 11.892 250 13.4191 250 15.3162C250 17.5373 249.212 19.3881 247.588 20.8689C246.336 22.0257 244.527 22.9975 242.115 23.8766C240.167 24.5244 238.219 25.126 236.271 25.7737V30.6787C236.271 32.6221 237.106 32.0205 237.569 33.0848H231.864C232.467 31.928 233.163 32.6684 233.163 30.6787V11.198C233.117 9.20825 232.143 10.0411 231.818 8.79175ZM236.224 11.0591V23.5527C238.682 22.9049 240.26 22.4421 240.909 22.2108C242.672 21.563 243.97 20.7301 244.852 19.8509C245.965 18.6941 246.475 17.2133 246.475 15.4088C246.475 14.1131 245.918 13.0951 244.805 12.3085C243.692 11.5219 242.44 11.1054 241.048 11.1054H236.224V11.0591ZM210.065 8.79175H230.38V13.1876C228.896 12.7712 229.823 10.9666 227.18 10.9666H221.8V30.6324C221.8 32.5296 222.171 31.928 223.098 33.0385H217.393C218.089 32.0668 218.692 32.6221 218.692 30.6324V11.0128H213.312C210.622 11.0128 211.224 13.0488 210.112 13.2339V8.79175H210.065ZM189.333 30.6787V11.198C189.333 9.16198 188.868 9.90228 188.033 8.79175H193.738C193.042 10.0874 192.44 9.20825 192.44 11.198V18.6478H204.035V11.198C204.035 8.97682 203.478 10.0411 202.737 8.79175H208.442C207.653 10.0874 207.143 9.06944 207.143 11.198V30.6787C207.143 32.8072 207.699 32.1131 208.442 33.0848H202.737C203.247 32.1131 204.035 32.8072 204.035 30.6787V20.7301H192.44V30.6324C192.44 32.6221 193.182 32.1131 193.738 33.0385H188.033C188.543 31.928 189.518 32.6221 189.333 30.6787ZM165.863 8.79175H185.065V13.1876C183.673 12.1696 184.555 10.9666 181.864 10.9666H170.269V18.6016H178.943C180.752 18.6016 180.195 17.8612 181.54 16.982V22.3959C180.241 21.6092 181.169 20.7764 178.943 20.7764H170.269V30.8175H182.514C185.529 30.8175 184.416 29.7532 186.271 28.4113V33.0848H165.863C166.188 32.0668 167.162 32.7147 167.162 30.6787V11.198C167.162 9.30079 166.141 10.0874 165.863 8.79175ZM144.248 30.6787V11.198C144.248 9.25452 143.599 10.1337 142.95 8.79175H148.655C147.912 10.2725 147.356 9.30079 147.356 11.198V30.8175H158.859V11.198C158.859 9.30079 158.163 10.18 157.56 8.79175H163.265C162.523 10.2725 161.967 9.30079 161.967 11.198V30.8175H163.961V36C161.827 34.8432 164.193 33.0848 160.065 33.0848H142.903C143.413 32.2056 144.434 32.7609 144.248 30.6787ZM122.727 8.79175H133.905C135.761 8.79175 137.431 9.39333 138.822 10.6427C140.213 11.892 140.909 13.4191 140.909 15.3162C140.909 17.5373 140.121 19.3881 138.497 20.8689C137.245 22.0257 135.436 22.9975 133.024 23.8766C131.076 24.5244 129.128 25.126 127.18 25.7737V30.6787C127.18 32.6221 127.644 31.928 128.478 33.0848H122.773C123.562 32.0205 124.072 32.7147 124.072 30.6787V11.198C124.026 9.25452 123.284 10.18 122.727 8.79175ZM127.133 11.0591V23.5527C129.592 22.9049 131.169 22.4421 131.818 22.2108C133.581 21.563 134.879 20.7301 135.761 19.8509C136.874 18.6941 137.384 17.2133 137.384 15.4088C137.384 14.1131 136.827 13.0951 135.714 12.3085C134.601 11.5219 133.349 11.1054 131.957 11.1054H127.133V11.0591ZM98.4233 33.0385H92.8108C93.2283 32.2982 94.1558 32.946 93.97 31.3264C93.97 31.1876 93.9242 31.0951 93.8775 30.9563L87.5233 13.6967L80.9833 30.6787C80.8905 30.8637 80.8905 31.0488 80.8905 31.1876C80.5658 32.8072 81.2152 32.0668 82.1428 32.9923H77.4118C77.7829 32.5296 77.7829 32.6221 78.5714 30.5861L86.0392 11.2905C86.1317 11.0591 86.1317 10.874 86.1317 10.7352C86.3633 8.93055 85.6217 9.53213 85.1117 8.74548H89.1933L97.2633 30.7712C97.8667 32.7147 97.6808 32.2519 98.4233 33.0385ZM56.3543 8.79175H75.5566V13.1876C74.6753 12.6324 75.0928 10.9666 72.3562 10.9666H60.7607V18.6016H69.4342C71.3822 18.6016 71.2894 17.7224 72.0316 16.982V22.3959C71.1039 21.5167 71.3822 20.7764 69.4342 20.7764H60.7607V30.8175H73.0056C76.3451 30.8175 75.5102 29.7069 76.7625 28.4113V33.0848H56.3543C56.5399 32.6684 57.6531 32.946 57.6531 30.6787V11.198C57.6067 8.97682 56.8182 9.30079 56.3543 8.79175ZM33.5343 8.79175H46.846C48.3766 8.79175 49.7217 9.39333 50.8349 10.5501C51.9481 11.7069 52.5047 13.0488 52.5047 14.5759C52.5047 15.7327 52.18 16.7507 51.4842 17.6298C50.8349 18.509 49.8608 19.2031 48.6085 19.6195C50.2783 19.9435 51.6234 20.7301 52.6902 22.0257C53.7569 23.3213 54.2672 24.7558 54.2672 26.3291C54.2672 28.2725 53.3859 29.892 51.577 31.2339C49.9072 32.4833 48.0519 33.0848 46.0112 33.0848H33.4879C33.6271 32.8997 34.2764 32.3907 34.462 31.8817C34.6011 31.5116 34.7402 31.0951 34.7402 30.6787V11.198C34.7867 10.3651 34.0445 9.39333 33.5343 8.79175ZM37.9407 10.7352V18.6478H45.4546C46.5677 18.6478 47.449 18.2776 48.1447 17.491C48.8404 16.7507 49.2115 15.7789 49.2115 14.5759C49.2115 13.3728 48.7477 12.4011 47.7737 11.7532C46.846 11.0591 45.6864 10.7352 44.4342 10.7352H37.9407ZM37.9407 20.7301V30.7712H45.4082C46.7997 30.7712 48.0056 30.2622 49.1188 29.2905C50.2319 28.2725 50.7421 27.1157 50.7421 25.6812C50.7421 24.3393 50.2319 23.1825 49.1651 22.2108C48.0983 21.2391 46.846 20.7301 45.4546 20.7301H37.9407ZM19.2022 31.3728C22.3098 31.3728 24.6289 30.3085 26.2059 28.2262C27.551 26.4216 28.2003 23.9229 28.2003 20.7764C28.2003 17.8149 27.551 15.4088 26.2523 13.6041C24.7217 11.4756 22.3563 10.4576 19.2486 10.4576C16.2802 10.4576 14.0074 11.5219 12.3841 13.6041C10.9462 15.455 10.2505 17.8612 10.2505 20.7764C10.2505 23.7378 10.8998 26.144 12.2449 28.0411C13.7755 30.2159 16.0946 31.3728 19.2022 31.3728Z" fill="#070707"/>
</svg>
