<svg width="40" height="38" viewBox="0 0 40 38" fill="none" xmlns="http://www.w3.org/2000/svg">
<path d="M30.6276 22.0602C30.3021 21.8436 29.9038 21.765 29.5203 21.8416C29.1367 21.9181 28.7993 22.1437 28.5824 22.4686C28.3654 22.7935 28.2866 23.1911 28.3633 23.574C28.44 23.9569 28.666 24.2936 28.9914 24.5102C29.3169 24.7268 29.7152 24.8055 30.0987 24.7289C30.2886 24.691 30.4692 24.6161 30.6301 24.5085C30.791 24.4009 30.9292 24.2628 31.0366 24.1019C31.144 23.941 31.2187 23.7606 31.2562 23.571C31.2938 23.3813 31.2936 23.1861 31.2556 22.9965C31.2177 22.8069 31.1426 22.6266 31.0349 22.466C30.9271 22.3054 30.7887 22.1675 30.6276 22.0602ZM37.4205 17.1359H36.8501V12.9849C36.8485 11.8832 36.4348 10.8218 35.6899 10.0088C34.9451 9.19583 33.9229 8.68995 32.8238 8.59034L31.7721 5.22213C31.6571 4.85365 31.4705 4.5114 31.223 4.21491C30.9755 3.91843 30.6719 3.67352 30.3296 3.49418C29.9873 3.31483 29.6129 3.20457 29.2279 3.16967C28.8429 3.13478 28.4547 3.17595 28.0856 3.29082L23.9643 4.57395L20.866 1.01592C20.3552 0.426907 19.6311 0.0643214 18.8527 0.007765C18.0744 -0.0487914 17.3053 0.205303 16.7144 0.714264L7.61027 8.57048H4.42201C3.24964 8.57184 2.12568 9.03737 1.29668 9.86494C0.467693 10.6925 0.00136538 11.8145 0 12.9849V33.5856C0.00136538 34.7559 0.467693 35.878 1.29668 36.7055C2.12568 37.5331 3.24964 37.9986 4.42201 38H32.4281C33.6004 37.9986 34.7244 37.5331 35.5534 36.7055C36.3824 35.878 36.8487 34.7559 36.8501 33.5856V29.4345H37.4205C38.1044 29.4338 38.76 29.1622 39.2436 28.6795C39.7272 28.1967 39.9992 27.5422 40 26.8595V19.711C39.9992 19.0283 39.7272 18.3738 39.2436 17.891C38.76 17.4083 38.1044 17.1367 37.4205 17.1359ZM28.7438 5.39871C28.8355 5.3701 28.932 5.35981 29.0278 5.36843C29.1235 5.37705 29.2166 5.40442 29.3017 5.44897C29.3869 5.49351 29.4624 5.55437 29.524 5.62805C29.5855 5.70174 29.632 5.78681 29.6606 5.87841L30.5015 8.57048H18.5525L28.7438 5.39871ZM18.1604 2.38439C18.308 2.25774 18.4998 2.19473 18.6938 2.20922C18.8879 2.2237 19.0682 2.31449 19.1952 2.46164L21.659 5.29129L11.596 8.42333C11.4916 8.45741 11.393 8.50702 11.3034 8.57048H10.9916L18.1604 2.38439ZM34.6391 33.5856C34.6385 34.1708 34.4053 34.7319 33.9908 35.1457C33.5763 35.5595 33.0143 35.7922 32.4281 35.7928H4.42201C3.83579 35.7922 3.27375 35.5595 2.85924 35.1457C2.44472 34.7319 2.21159 34.1708 2.211 33.5856V12.9849C2.21159 12.3997 2.44472 11.8386 2.85924 11.4248C3.27375 11.011 3.83579 10.7783 4.42201 10.7777H32.4281C33.0143 10.7783 33.5763 11.011 33.9908 11.4248C34.4053 11.8386 34.6385 12.3997 34.6391 12.9849V17.1359H26.5836C25.8997 17.1367 25.2441 17.4083 24.7605 17.891C24.2769 18.3738 24.0049 19.0283 24.0041 19.711V26.8595C24.0049 27.5422 24.2769 28.1967 24.7605 28.6795C25.2441 29.1622 25.8997 29.4338 26.5836 29.4345H34.6391V33.5856ZM37.789 26.8595C37.789 26.957 37.7502 27.0506 37.6811 27.1196C37.612 27.1886 37.5182 27.2273 37.4205 27.2273H35.7659L35.7438 27.2251C35.7364 27.2251 35.7306 27.2266 35.7232 27.2273H26.5844C26.4866 27.2273 26.3929 27.1886 26.3238 27.1196C26.2547 27.0506 26.2159 26.957 26.2159 26.8595V19.711C26.2159 19.6135 26.2547 19.5199 26.3238 19.4509C26.3929 19.3819 26.4866 19.3432 26.5844 19.3432H35.7232C35.7306 19.3432 35.7372 19.3454 35.7446 19.3454L35.7659 19.3432H37.4205C37.5182 19.3432 37.612 19.3819 37.6811 19.4509C37.7502 19.5199 37.789 19.6135 37.789 19.711V26.8595Z" fill="#181616"/>
</svg>
