<svg width="38" height="40" viewBox="0 0 38 40" fill="none" xmlns="http://www.w3.org/2000/svg">
<g clip-path="url(#clip0_1510_43582)">
<path d="M1.08984 8.70679L6.60029 17.3651V22.6465L1.09629 31.2878L1.08984 8.70679Z" fill="#5B57A2"/>
<path d="M22.248 14.2143L27.4115 11.4323L37.9789 11.4236L22.248 19.8949V14.2143Z" fill="#D90751"/>
<path d="M22.2187 8.65567L22.2479 20.119L16.7246 17.1357V0L22.2187 8.65567Z" fill="#FAB718"/>
<path d="M37.9788 11.4237L27.411 11.4323L22.2187 8.65567L16.7246 0L37.9788 11.4237Z" fill="#ED6F26"/>
<path d="M22.2479 31.3357V25.7741L16.7246 22.8474L16.7276 40.0001L22.2479 31.3357Z" fill="#63B22F"/>
<path d="M27.3983 28.5791L6.59991 17.3651L1.08984 8.70679L37.9562 28.5678L27.3983 28.5791Z" fill="#1487C9"/>
<path d="M16.7285 40L22.2481 31.3356L27.3986 28.579L37.9565 28.5676L16.7285 40Z" fill="#017F36"/>
<path d="M1.09766 31.2876L16.7709 22.8476L11.5016 20.0056L6.60165 22.6463L1.09766 31.2876Z" fill="#984995"/>
</g>
<defs>
<clipPath id="clip0_1510_43582">
<rect width="38" height="40" fill="white"/>
</clipPath>
</defs>
</svg>
