<svg width="40" height="30" viewBox="0 0 40 30" fill="none" xmlns="http://www.w3.org/2000/svg">
<path d="M34.9219 0H5.07809C3.73176 0.00158807 2.44101 0.56386 1.48901 1.56346C0.53701 2.56306 0.00151245 3.91835 0 5.332V24.668C0.00151245 26.0816 0.53701 27.4369 1.48901 28.4365C2.44101 29.4361 3.73176 29.9984 5.07809 30H34.9219C36.2682 29.9984 37.559 29.4361 38.511 28.4365C39.463 27.4369 39.9985 26.0816 40 24.668V5.332C39.9985 3.91835 39.463 2.56306 38.511 1.56346C37.559 0.56386 36.2682 0.00158807 34.9219 0ZM5.07809 2H34.9219C35.7632 2.00106 36.5698 2.35245 37.1647 2.97709C37.7596 3.60173 38.0942 4.44862 38.0952 5.332V8H1.90476V5.332C1.90577 4.44862 2.24043 3.60173 2.83532 2.97709C3.43022 2.35245 4.23678 2.00106 5.07809 2ZM34.9219 28H5.07809C4.23678 27.9989 3.43022 27.6476 2.83532 27.0229C2.24043 26.3983 1.90577 25.5514 1.90476 24.668V10H38.0952V24.668C38.0942 25.5514 37.7596 26.3983 37.1647 27.0229C36.5698 27.6476 35.7632 27.9989 34.9219 28Z" fill="#181616"/>
<path d="M14.2863 22H6.66722C6.41464 22 6.1724 22.1054 5.99379 22.2929C5.81518 22.4804 5.71484 22.7348 5.71484 23C5.71484 23.2652 5.81518 23.5196 5.99379 23.7071C6.1724 23.8946 6.41464 24 6.66722 24H14.2863C14.5389 24 14.7811 23.8946 14.9597 23.7071C15.1383 23.5196 15.2387 23.2652 15.2387 23C15.2387 22.7348 15.1383 22.4804 14.9597 22.2929C14.7811 22.1054 14.5389 22 14.2863 22Z" fill="#181616"/>
</svg>
