<svg width="16" height="17" viewBox="0 0 16 17"  xmlns="http://www.w3.org/2000/svg">
<path d="M10.4615 8.05263C13.5385 8.05263 16 6.26316 16 4.02632C16 1.78947 13.5385 0 10.4615 0H4.30769C3.93846 0 3.69231 0.178947 3.69231 0.447368V7.15789H0.615385C0.246154 7.15789 0 7.33684 0 7.60526C0 7.87368 0.246154 8.05263 0.615385 8.05263H3.69231V10.7368H0.615385C0.246154 10.7368 0 10.9158 0 11.1842C0 11.4526 0.246154 11.6316 0.615385 11.6316H3.69231V16.5526C3.69231 16.8211 3.93846 17 4.30769 17C4.67692 17 4.92308 16.8211 4.92308 16.5526V11.6316H11.6923C12.0615 11.6316 12.3077 11.4526 12.3077 11.1842C12.3077 10.9158 12.0615 10.7368 11.6923 10.7368H4.92308V8.05263H10.4615ZM4.92308 0.894737H10.4615C12.8 0.894737 14.7692 2.32632 14.7692 4.02632C14.7692 5.72632 12.8 7.15789 10.4615 7.15789H4.92308V0.894737Z"/>
</svg>
