<svg width="34" height="34" viewBox="0 0 34 34" fill="none" xmlns="http://www.w3.org/2000/svg">
<path fill-rule="evenodd" clip-rule="evenodd" d="M0.398827 33.1151C0.997065 32.8822 1.34604 32.789 1.34604 30.9726L1.34604 11.2713C1.39589 9.03557 0.648093 9.31509 0 8.84929H6.13196C5.78299 9.08215 4.73607 8.89586 4.73607 11.2713L4.73607 18.7699H7.32844C7.72727 15.6959 9.07334 13.1808 11.3666 11.2713C13.8093 9.22194 16.8504 8.24383 20.5894 8.24383C24.6774 8.24383 27.9677 9.4548 30.4604 11.8767C32.8533 14.1589 34 17.0466 34 20.5863C34 24.3123 32.9032 27.4329 30.6598 29.9014C28.217 32.6027 24.827 34 20.5894 34C16.4516 34 13.1613 32.6493 10.6686 29.9945C8.32551 27.526 7.17888 24.4986 7.17888 20.9589H4.73607V30.926C4.73607 33.4411 5.73313 33.0685 6.13196 33.3479C4.08798 33.3479 2.04398 33.3479 0 33.3479L0.398827 33.1151ZM15.2551 1.16438C15.6041 1.16438 15.9531 1.44384 15.9531 1.81644C15.9531 1.95616 15.9032 2.09589 15.8533 2.18904C16.4516 2.60821 17.1994 2.98082 17.9472 3.26027C17.8475 4.61096 18.2962 5.30959 18.9443 5.30959C19.5923 5.30959 19.4428 4.33151 18.7947 2.56164C19.3929 2.23562 19.9414 1.76987 20.2903 1.16438C20.0909 1.07123 19.9414 0.884929 19.9414 0.605479C19.9414 0.279452 20.2405 0 20.5894 0C20.9384 0 21.2873 0.279452 21.2873 0.605479C21.2873 0.838357 21.1379 1.07123 20.8886 1.16438C21.2873 1.72329 21.7859 2.18904 22.3841 2.56164C21.7361 4.33151 21.5865 5.26301 22.2346 5.30959C22.8827 5.30959 23.2815 4.61096 23.2316 3.26027C24.0294 2.98082 24.7273 2.60821 25.3753 2.14246C25.2756 2.04931 25.2756 1.90959 25.2756 1.76987C25.2756 1.44384 25.5748 1.1178 25.9736 1.1178C26.3226 1.1178 26.6716 1.39726 26.6716 1.76987C26.6716 2.09589 26.3724 2.42192 25.9736 2.42192L24.478 5.91506H24.8769V6.66027H24.4281V7.59178C22.0352 7.12603 19.1437 7.12603 16.7507 7.59178V6.66027H16.3519V5.91506H16.7507L15.2551 2.42192C14.9061 2.42192 14.5572 2.14246 14.5572 1.76987C14.5572 1.44384 14.8563 1.16438 15.2551 1.16438ZM20.6393 31.5781C23.9795 31.5781 26.4721 30.5069 28.1671 28.411C29.6129 26.5945 30.3108 24.0795 30.3108 20.9124C30.3108 17.9315 29.6129 15.5096 28.217 13.6932C26.5718 11.5507 24.0294 10.526 20.6891 10.526C17.4985 10.526 15.0557 11.5973 13.3109 13.6932C11.7654 15.5562 11.0176 17.9781 11.0176 20.9124C11.0176 23.8931 11.7156 26.3151 13.1613 28.2246C14.8064 30.4136 17.2991 31.5781 20.6393 31.5781Z" fill="white"/>
</svg>
