<svg width="24" height="24" viewBox="0 0 24 24" fill="none" xmlns="http://www.w3.org/2000/svg">
<path d="M11.5399 9.69108C11.5399 7.32272 10.3692 5.1517 8.61308 4.16488C8.61308 4.0662 8.61308 4.0662 8.61308 3.96752C8.61308 2.9807 7.94409 2.28992 7.1915 2.28992C6.4389 2.28992 5.85357 2.9807 5.85357 3.96752C5.85357 4.95434 6.4389 5.64512 7.27511 5.64512C7.69326 5.64512 8.02771 5.44776 8.27859 5.05303C9.78379 5.94117 10.7037 7.71745 10.7037 9.69108C10.7037 12.5529 8.69669 14.9213 6.27168 14.9213C4.59922 14.9213 3.09402 13.8357 2.34142 12.0595C2.67591 11.7634 2.84315 11.27 2.84315 10.8753C2.75953 9.88844 2.17418 9.19766 1.42158 9.19766C0.668978 9.19766 0 9.88844 0 10.7766C0 11.6648 0.585357 12.4542 1.42158 12.4542C1.5052 12.4542 1.5052 12.4542 1.58882 12.4542C2.42504 14.4279 4.01386 15.7107 5.85357 15.9081V18.2765C5.76991 18.2765 5.76991 18.2765 5.6863 18.2765C4.93371 18.2765 3.51213 18.9673 2.84315 19.362C2.42504 19.658 2.17418 20.0527 2.17418 20.5462C2.09056 21.0396 2.34142 21.4343 2.42504 21.6316C2.50867 21.8291 2.84315 22.4211 3.51213 22.4211C3.763 22.4211 4.01386 22.3224 4.34835 22.1251C4.5156 22.0264 4.68284 21.8291 4.85009 21.6316C4.76646 22.0264 4.76646 22.3224 4.76646 22.3224C4.76646 23.1119 5.01733 24 6.18807 24C7.35877 24 7.6096 23.1119 7.6096 22.3224C7.6096 22.3224 7.6096 22.0264 7.52599 21.6316C7.69326 21.8291 7.94409 22.0264 8.02771 22.1251C8.3622 22.3224 8.61308 22.4211 8.86397 22.4211C9.5329 22.4211 9.8674 21.8291 9.95106 21.6316C10.1183 21.3356 10.2856 20.9409 10.2019 20.5462C10.1183 20.1514 9.95106 19.7567 9.5329 19.362C8.94758 18.9673 7.52599 18.2765 6.68978 18.2765C6.60617 18.2765 6.60617 18.2765 6.52251 18.2765V15.9081C9.36568 15.6121 11.5399 12.9476 11.5399 9.69108ZM7.1915 4.55961C6.94066 4.55961 6.68978 4.26357 6.68978 3.96752C6.68978 3.67147 6.94066 3.27674 7.1915 3.27674C7.44238 3.27674 7.77687 3.57279 7.77687 3.96752C7.77687 4.0662 7.77687 4.16488 7.69326 4.16488C7.6096 4.46093 7.44238 4.55961 7.1915 4.55961ZM0.83622 10.7766C0.83622 10.4806 1.08709 10.1845 1.42158 10.1845C1.75607 10.1845 2.00693 10.4806 2.00693 10.8753C2.00693 11.1713 1.83969 11.3687 1.67245 11.4674C1.17071 11.5661 0.83622 11.27 0.83622 10.7766ZM3.93024 21.2369C3.763 21.3356 3.59575 21.4343 3.51213 21.4343C3.42851 21.4343 3.34489 21.4343 3.17764 21.0396C3.09402 20.8422 3.0104 20.6449 3.0104 20.5462C3.0104 20.3488 3.17764 20.2501 3.34488 20.1514C3.763 19.8554 4.76646 19.362 5.43547 19.2633C5.3518 19.4607 5.26819 19.658 5.18458 19.9541C4.85009 20.3488 4.34835 20.9409 3.93024 21.2369ZM6.27168 22.9146C5.85357 22.9146 5.6863 22.8158 5.6863 22.2238C5.6863 21.7304 5.76991 20.9409 5.93718 20.2501C6.02079 20.0527 6.18807 19.9541 6.18807 19.8554C6.27168 19.9541 6.35529 20.1514 6.4389 20.2501C6.60617 20.8422 6.68978 21.6316 6.68978 22.2238C6.77339 22.8158 6.68978 22.9146 6.27168 22.9146ZM9.44929 20.5462C9.44929 20.6449 9.44929 20.8422 9.28207 21.0396C9.1148 21.4343 8.94758 21.4343 8.94758 21.4343C8.86397 21.4343 8.7803 21.4343 8.52947 21.2369C8.11137 20.9409 7.6096 20.3488 7.27511 19.8554C7.1915 19.658 7.10789 19.362 7.02427 19.1646C7.69326 19.2633 8.69669 19.7567 9.1148 20.0527C9.28207 20.1514 9.44929 20.3488 9.44929 20.5462Z" fill="#070707"/>
<path d="M22.1595 17.072C21.5742 16.6773 20.1526 15.9866 19.3164 15.9866C19.2327 15.9866 19.2327 15.9866 19.1491 15.9866V13.6182C21.825 13.3222 23.9992 10.6577 23.9992 7.40116C23.9992 5.0328 22.8285 2.86179 21.0724 1.87497C21.0724 1.77628 21.0724 1.77628 21.0724 1.6776C21.0724 0.789458 20.4871 0 19.6509 0C18.8146 0 18.3965 0.789458 18.3965 1.77628C18.3965 2.76311 18.9819 3.45388 19.8181 3.45388C20.2362 3.45388 20.5707 3.25652 20.8216 2.86179C22.3268 3.74993 23.2466 5.52621 23.2466 7.49987C23.2466 10.3616 21.2397 12.73 18.8146 12.73C17.1422 12.73 15.637 11.6445 14.8844 9.86827C15.2189 9.5722 15.3861 9.07878 15.3861 8.68407C15.3861 7.79594 14.8008 7.00645 13.9646 7.00645C13.1283 7.00645 12.543 7.69723 12.543 8.68407C12.543 9.5722 13.1283 10.3616 13.9646 10.3616C14.0482 10.3616 14.0482 10.3616 14.1318 10.3616C14.968 12.3353 16.5568 13.6182 18.3965 13.8155V16.1839C18.3129 16.1839 18.3129 16.1839 18.2293 16.1839C17.4767 16.1839 16.0551 16.8747 15.3861 17.2694C14.968 17.5655 14.7172 17.9602 14.7172 18.4536C14.6335 18.947 14.8844 19.3417 14.968 19.5391C15.0516 19.7365 15.3861 20.3286 16.0551 20.3286C16.306 20.3286 16.5568 20.2299 16.8913 20.0325C17.0586 19.9339 17.2258 19.7365 17.3931 19.5391C17.3094 19.9339 17.3094 20.2299 17.3094 20.2299C17.3094 21.0193 17.5603 21.9075 18.731 21.9075C19.9017 21.9075 20.1526 21.0193 20.1526 20.2299C20.1526 20.2299 20.1526 19.9339 20.069 19.5391C20.2362 19.7365 20.4871 19.9339 20.5707 20.0325C20.9052 20.2299 21.1561 20.3286 21.4069 20.3286C22.0759 20.3286 22.4104 19.7365 22.494 19.5391C23.2466 18.1576 22.7449 17.4668 22.1595 17.072ZM19.8181 2.36838C19.4836 2.36838 19.2327 2.07233 19.2327 1.77628C19.2327 1.48023 19.4836 1.0855 19.8181 1.0855C20.1526 1.0855 20.4035 1.38156 20.4035 1.77628C20.4035 1.87497 20.4035 1.97365 20.3198 1.97365C20.2362 2.2697 20.069 2.36838 19.8181 2.36838ZM13.4628 8.58536C13.4628 8.19065 13.7137 7.89458 14.0482 7.89458C14.3827 7.89458 14.6335 8.19065 14.6335 8.58536C14.6335 8.88143 14.4663 9.07878 14.2991 9.17749C13.7973 9.37485 13.4628 9.07878 13.4628 8.58536ZM16.5568 19.0457C16.3896 19.1444 16.2224 19.2431 16.1387 19.2431C16.0551 19.2431 15.9715 19.2431 15.8042 18.8484C15.7206 18.6509 15.637 18.4536 15.637 18.3549C15.637 18.1576 15.8042 18.0589 15.9715 17.9602C16.3896 17.6642 17.3931 17.1707 18.062 17.072C17.9784 17.2694 17.8948 17.4668 17.8112 17.7628C17.3931 18.1576 16.8913 18.7497 16.5568 19.0457ZM18.8146 20.7233C18.3965 20.7233 18.2293 20.6246 18.2293 20.0325C18.2293 19.5391 18.3129 18.7497 18.4802 18.0589C18.5638 17.8615 18.731 17.7628 18.731 17.6642C18.8146 17.7628 18.8983 17.9602 18.9819 18.0589C19.1491 18.6509 19.2327 19.4404 19.2327 20.0325C19.4 20.6246 19.2328 20.7233 18.8146 20.7233ZM21.9087 18.8484C21.7414 19.2431 21.5742 19.2431 21.5742 19.2431C21.4905 19.2431 21.4069 19.2431 21.1561 19.0457C20.7379 18.7497 20.2362 18.1576 19.9017 17.6642C19.8181 17.4668 19.7345 17.1707 19.6509 16.9734C20.3198 17.072 21.3233 17.5655 21.7414 17.8615C22.1595 18.1576 22.1595 18.3549 21.9087 18.8484Z" fill="#070707"/>
</svg>
