<svg width="26" height="26" viewBox="0 0 26 26" fill="none" xmlns="http://www.w3.org/2000/svg">
<path d="M9.72372 25.0001C10.3262 25.0001 10.8146 24.4884 10.8146 23.8572C10.8146 23.226 10.3262 22.7144 9.72372 22.7144C9.12123 22.7144 8.63281 23.226 8.63281 23.8572C8.63281 24.4884 9.12123 25.0001 9.72372 25.0001Z" stroke="#070707" stroke-width="2" stroke-linecap="round" stroke-linejoin="round"/>
<path d="M21.7315 25.0001C22.334 25.0001 22.8224 24.4884 22.8224 23.8572C22.8224 23.226 22.334 22.7144 21.7315 22.7144C21.129 22.7144 20.6406 23.226 20.6406 23.8572C20.6406 24.4884 21.129 25.0001 21.7315 25.0001Z" stroke="#070707" stroke-width="2" stroke-linecap="round" stroke-linejoin="round"/>
<path d="M1 1H5.36364L8.28727 16.3029C8.38703 16.829 8.66026 17.3017 9.05914 17.6381C9.45802 17.9744 9.95713 18.1531 10.4691 18.1429H21.0727C21.5847 18.1531 22.0838 17.9744 22.4827 17.6381C22.8816 17.3017 23.1548 16.829 23.2545 16.3029L25 6.71429H6.45455" stroke="#070707" stroke-width="2" stroke-linecap="round" stroke-linejoin="round"/>
</svg>
