<svg width="16" height="16" viewBox="0 0 16 16"  xmlns="http://www.w3.org/2000/svg">
<path d="M8 7.72947C6.9 7.72947 6 7.36876 5.3 6.64734C4.6 5.92593 4.25 4.99839 4.25 3.86474C4.25 2.73108 4.6 1.80354 5.3 1.08213C6 0.360709 6.9 0 8 0C9.1 0 10 0.360709 10.7 1.08213C11.4 1.80354 11.75 2.73108 11.75 3.86474C11.75 4.99839 11.4 5.92593 10.7 6.64734C10 7.36876 9.1 7.72947 8 7.72947V7.72947ZM0 16V13.5781C0 12.9254 0.158333 12.3671 0.475 11.9034C0.791667 11.4396 1.2 11.0875 1.7 10.847C2.81667 10.3317 3.8875 9.94525 4.9125 9.6876C5.9375 9.42995 6.96667 9.30113 8 9.30113C9.03333 9.30113 10.0583 9.43425 11.075 9.70048C12.0917 9.96672 13.1583 10.3489 14.275 10.847C14.7917 11.0875 15.2083 11.4396 15.525 11.9034C15.8417 12.3671 16 12.9254 16 13.5781V16H0ZM1.5 14.4541H14.5V13.5781C14.5 13.3033 14.4208 13.0413 14.2625 12.7923C14.1042 12.5432 13.9083 12.3586 13.675 12.2383C12.6083 11.7059 11.6333 11.3408 10.75 11.1433C9.86667 10.9458 8.95 10.847 8 10.847C7.05 10.847 6.125 10.9458 5.225 11.1433C4.325 11.3408 3.35 11.7059 2.3 12.2383C2.06667 12.3586 1.875 12.5432 1.725 12.7923C1.575 13.0413 1.5 13.3033 1.5 13.5781V14.4541ZM8 6.18358C8.65 6.18358 9.1875 5.96457 9.6125 5.52657C10.0375 5.08857 10.25 4.53462 10.25 3.86474C10.25 3.19485 10.0375 2.6409 9.6125 2.2029C9.1875 1.7649 8.65 1.54589 8 1.54589C7.35 1.54589 6.8125 1.7649 6.3875 2.2029C5.9625 2.6409 5.75 3.19485 5.75 3.86474C5.75 4.53462 5.9625 5.08857 6.3875 5.52657C6.8125 5.96457 7.35 6.18358 8 6.18358Z" />
</svg>
