<svg width="24" height="24" viewBox="0 0 24 24" fill="none" xmlns="http://www.w3.org/2000/svg">
<path d="M22.6667 7.99998C22.4889 7.99998 22.3111 7.99998 22.1333 8.10003C22.2222 7.89999 22.2222 7.7 22.2222 7.50001C22.2222 6.9 22.0444 6 20.8889 6C20.7111 6 20.6222 6 20.4445 6.09999C18.9333 2.4 15.6445 0 12 0C8.35555 0 5.06667 2.4 3.55556 6.09999C3.37778 6 3.28889 6 3.11111 6C1.95556 6 1.77778 6.9 1.77778 7.50001C1.77778 7.7 1.77778 7.89999 1.86667 8.10003C1.68889 7.99998 1.51111 7.99998 1.33333 7.99998C0.800002 7.99998 0 8.20003 0 9.49999C0 10.8 0.800002 11 1.33333 11C1.51111 11 1.68889 11 1.86667 10.9C1.77778 11.1 1.77778 11.3 1.77778 11.5C1.77778 12 1.95556 12.9 2.93333 13C3.11111 13.7 3.28889 14.4 3.55556 15.1C3.46667 15 3.28889 15 3.11111 15C2.57778 15 1.77778 15.2 1.77778 16.5C1.77778 17.8 2.57778 18 3.11111 18C3.28889 18 3.46667 18 3.64444 17.9C3.55556 18.1 3.55556 18.3 3.55556 18.5C3.55556 19.1 3.73333 20 4.88889 20C5.86669 20 6.13331 19.3 6.22222 18.7C7.02224 19.4 7.91111 20 8.88889 20.4V20.5C8.88889 21.8 9.68891 22 10.2222 22C10.4 22 10.5778 22 10.7555 21.9C10.7555 22.1 10.6667 22.3 10.6667 22.5C10.6667 23.1 10.8445 24 12 24C13.1555 24 13.3333 23.1 13.3333 22.5C13.3333 22.3 13.3333 22.1 13.2445 21.9C13.4222 21.9 13.6 22 13.7778 22C14.3111 22 15.1111 21.8 15.1111 20.5V20.4C16.0889 20 16.9778 19.5 17.7778 18.7C17.8667 19.3 18.0445 20 19.1111 20C20.2667 20 20.4445 19.1 20.4445 18.5C20.4445 18.3 20.4445 18.1 20.3555 17.9C20.5333 17.9 20.7111 18 20.8889 18C21.4222 18 22.2222 17.8 22.2222 16.5C22.2222 15.2 21.4222 15 20.8889 15C20.7111 15 20.5333 15 20.4445 15.1C20.7111 14.4 20.9778 13.7 21.0667 13C22.0444 12.9 22.2222 12 22.2222 11.5C22.2222 11.3 22.2222 11.1 22.1333 10.9C22.3111 10.9 22.4889 11 22.6667 11C23.2 11 24 10.8 24 9.49999C24 8.20003 23.2 7.99998 22.6667 7.99998ZM19.9111 9.20002C20 9.30001 20 9.4 20.0889 9.49999C20 9.59999 20 9.69998 19.9111 9.80003C19.6444 9.90003 19.3778 10 19.1111 10C18.7556 10 18.6667 9.90003 18.6667 9.49999C18.6667 9.10002 18.7556 9.00003 19.1111 9.00003C19.3778 9.00003 19.6444 9.10002 19.9111 9.20002ZM21.3333 7.50001C21.3333 7.79999 21.2444 8.10003 21.1556 8.40001C21.0667 8.40001 21.0667 8.5 20.9778 8.5L20.8889 8.6C20.8889 8.6 20.8889 8.6 20.8 8.6C20.7111 8.5 20.6222 8.5 20.5333 8.40001C20.5333 8.10003 20.4445 7.79999 20.4445 7.50001C20.4445 7.30003 20.4445 7.20004 20.5333 7.09998C20.6222 6.99999 20.7111 6.99999 20.8889 6.99999C21.2444 6.99999 21.3333 7.09998 21.3333 7.50001ZM12 1C15.3778 1 18.4 3.2 19.7333 6.70001C19.7333 6.70001 19.7333 6.8 19.6444 6.9V6.99999C19.5556 7.09998 19.5556 7.30003 19.5556 7.50001C19.5556 7.7 19.5556 7.89999 19.6444 8.10003C19.4667 7.99998 19.2889 7.99998 19.1111 7.99998C18.5778 7.99998 17.7778 8.20003 17.7778 9.49999C17.7778 10.8 18.5778 11 19.1111 11C19.2889 11 19.4667 11 19.6444 10.9C19.6444 11.1 19.5556 11.3 19.5556 11.5C19.5556 11.7 19.5556 11.9 19.6444 12C19.6444 12.1 19.6444 12.1 19.7333 12.1C19.7333 12.2 19.8222 12.3 19.8222 12.4L19.9111 12.5C20 12.6 20.0889 12.6 20.1778 12.7C20.1778 12.7 20.1778 12.7 20.2667 12.8C20.2667 13 20.1778 13.1 20.1778 13.3C19.8222 13.1 19.5556 13 19.1111 13C17.9555 13 17.7778 13.9 17.7778 14.5C17.7778 14.7 17.7778 14.9 17.8667 15.1C17.6889 15.1 17.5111 15 17.3333 15C16.8 15 16 15.2 16 16.5C16 17.7 16.7111 17.9 17.1556 18C16.4444 18.6 15.6445 19.1 14.8444 19.5L14.7556 19.4C14.7556 19.4 14.7556 19.4 14.6667 19.3L14.5778 19.2L14.4889 19.2C14.4 19.2 14.4 19.2 14.3111 19.1H14.2222C14.1333 19.1 14.0444 19.1 13.8667 19.1C13.6889 19.1 13.5111 19.1 13.3333 19.2C13.3333 19 13.4222 18.8 13.4222 18.6C13.4222 18 13.2445 17.1 12.0889 17.1C10.9333 17.1 10.6667 17.9 10.6667 18.5C10.6667 18.7 10.6667 18.9 10.7555 19.1C10.5778 19.1 10.4 19 10.2222 19C10.1333 19 9.95558 19 9.86667 19H9.77776C9.68891 19 9.6 19 9.6 19.1H9.51109C9.42224 19.1 9.42224 19.2 9.33333 19.2C9.24442 19.3 9.24442 19.3 9.15556 19.4C8.35555 19.1 7.55558 18.6 6.84442 17.9C7.37776 17.9 8.00002 17.6 8.00002 16.4C8.00002 15.2 7.2 15 6.66666 15C6.48889 15 6.31113 15 6.13331 15.1C6.22222 14.9 6.22222 14.7 6.22222 14.5C6.22222 13.9 6.04446 13 4.88889 13C4.44445 13 4.17778 13.1 3.91111 13.3C3.82222 13.1 3.82222 13 3.73333 12.8C3.82222 12.7 3.91111 12.6 4 12.5L4.08889 12.4C4.17778 12.3 4.17778 12.2 4.26667 12.1V12C4.44445 11.9 4.44445 11.7 4.44445 11.5C4.44445 11.3 4.44445 11.1 4.35556 10.9C4.53333 11 4.71111 11 4.88889 11C5.42222 11 6.22222 10.8 6.22222 9.49999C6.22222 8.20003 5.42222 7.99998 4.88889 7.99998C4.71111 7.99998 4.53333 7.99998 4.35556 8.10003C4.44445 7.89999 4.44445 7.7 4.44445 7.50001C4.44445 7.30003 4.44445 7.09998 4.35556 6.9C4.35556 6.9 4.35556 6.8 4.26667 6.8C4.26667 6.70001 4.26667 6.70001 4.17778 6.60002C5.60002 3.2 8.62222 1 12 1ZM18.6667 14.5C18.6667 14.1 18.7556 14 19.1111 14C19.4667 14 19.5556 14.1 19.5556 14.5C19.5556 14.6 19.5556 14.7 19.5556 14.8C19.4667 15.1 19.2889 15.4 19.1111 15.6C19.0222 15.5 18.9333 15.5 18.8444 15.4C18.7556 15.1 18.6667 14.8 18.6667 14.5ZM18.3111 16.5C18.2222 16.6 18.2222 16.7 18.1333 16.8C17.8667 16.9 17.6 17 17.3333 17C16.9778 17 16.8889 16.9 16.8889 16.5C16.8889 16.1 16.9778 16 17.3333 16C17.6 16 17.8667 16.1 18.1333 16.2C18.2222 16.3 18.2222 16.4 18.3111 16.5ZM11.5556 18.5C11.5556 18.1 11.6444 18 12 18C12.3556 18 12.4444 18.1 12.4444 18.5C12.4444 18.8 12.3556 19.1 12.2667 19.4C12.1778 19.5 12.0889 19.5 12 19.6C11.9111 19.5 11.8222 19.5 11.7333 19.4C11.6444 19.1 11.5556 18.8 11.5556 18.5ZM4.44445 14.5C4.44445 14.1 4.53333 14 4.88889 14C5.24444 14 5.33333 14.1 5.33333 14.5C5.33333 14.8 5.24444 15.1 5.15555 15.4C5.06667 15.5 4.97778 15.5 4.88889 15.6C4.71111 15.3 4.62222 15.1 4.44445 14.8C4.44445 14.7 4.44445 14.6 4.44445 14.5ZM5.68887 16.5C5.77778 16.4 5.77778 16.3 5.86669 16.2C6.13331 16.1 6.39998 16 6.66666 16C7.02224 16 7.11109 16.1 7.11109 16.5C7.11109 16.9 7.02224 17 6.66666 17C6.39998 17 6.13331 16.9 5.86669 16.8C5.77778 16.7 5.77778 16.6 5.68887 16.5ZM4.08889 9.80003C4 9.69998 3.91111 9.59999 3.91111 9.49999C4 9.4 4 9.30001 4.08889 9.20002C4.35556 9.10002 4.62222 9.00003 4.88889 9.00003C5.24444 9.00003 5.33333 9.10002 5.33333 9.49999C5.33333 9.90003 5.24444 10 4.88889 10C4.62222 10 4.35556 9.90003 4.08889 9.80003ZM3.11111 6.99999C3.28889 6.99999 3.37778 6.99999 3.46667 7.09998C3.55556 7.20004 3.55556 7.30003 3.55556 7.50001C3.55556 7.79999 3.46667 8.10003 3.37778 8.40001C3.28889 8.5 3.2 8.5 3.11111 8.6C3.11111 8.6 3.11111 8.6 3.02222 8.5C3.02222 8.5 2.93333 8.5 2.93333 8.40001C2.93333 8.40001 2.84444 8.40001 2.84444 8.30002C2.75555 8.10003 2.66667 7.79999 2.66667 7.50001C2.66667 7.09998 2.75555 6.99999 3.11111 6.99999ZM0.888889 9.49999C0.888889 9.10002 0.977776 9.00003 1.33333 9.00003C1.6 9.00003 1.86667 9.10002 2.13333 9.20002C2.22222 9.30001 2.22222 9.4 2.31111 9.49999C2.31111 9.59999 2.22222 9.69998 2.13333 9.80003C1.95556 9.90003 1.6 10 1.33333 10C0.977776 10 0.888889 9.90003 0.888889 9.49999ZM2.66667 11.5C2.66667 11.2 2.75555 10.9 2.84444 10.6C2.93333 10.6 2.93333 10.5 3.02222 10.5L3.11111 10.4C3.11111 10.4 3.11111 10.4 3.2 10.4H3.28889C3.37778 10.4 3.37778 10.5 3.46667 10.5C3.46667 10.5 3.46667 10.5 3.55556 10.5C3.46667 10.9 3.55556 11.2 3.55556 11.5C3.55556 12 3.46667 12 3.2 12C3.2 12 3.2 12 3.11111 12C2.75555 12 2.66667 12 2.66667 11.5ZM3.11111 17C2.75555 17 2.66667 16.9 2.66667 16.5C2.66667 16.1 2.75555 16 3.11111 16C3.37778 16 3.64444 16.1 3.91111 16.2C4 16.3 4 16.4 4.08889 16.5C4 16.6 4 16.7 3.91111 16.8C3.64444 16.9 3.37778 17 3.11111 17ZM4.88889 19C4.53333 19 4.44445 18.9 4.44445 18.5C4.44445 18.2 4.53333 17.9 4.62222 17.6C4.71111 17.5 4.8 17.5 4.88889 17.4C4.97778 17.4 4.97778 17.5 5.06667 17.5C5.15555 17.6 5.15555 17.6 5.24444 17.7C5.24444 17.9 5.33333 18.2 5.33333 18.5C5.33333 18.9 5.24444 19 4.88889 19ZM9.77776 20.5C9.77776 20.4 9.77776 20.3 9.77776 20.2C9.77776 20.1 9.86667 20 10.2222 20C10.4889 20 10.7555 20.1 11.0222 20.2C11.0222 20.3 11.1111 20.3 11.1111 20.4L11.2 20.5C11.2 20.5 11.2 20.5 11.2 20.6C11.2 20.6 11.2 20.6 11.2 20.7L11.1111 20.8C11.1111 20.9 11.0222 20.9 11.0222 21C10.7555 21.1 10.4889 21.2 10.2222 21.2C9.86667 21 9.77776 20.9 9.77776 20.5ZM12 23C11.6444 23 11.5556 22.9 11.5556 22.5C11.5556 22.2 11.6444 21.9 11.7333 21.6C11.8222 21.5 11.9111 21.5 12 21.4C12.0889 21.5 12.1778 21.5 12.2667 21.6C12.3556 21.9 12.4444 22.2 12.4444 22.5C12.4444 22.9 12.3556 23 12 23ZM13.7778 21C13.5111 21 13.2445 20.9 12.9778 20.8C12.9778 20.7 12.8889 20.6 12.8 20.6C12.8 20.6 12.8 20.6 12.8 20.5L12.8889 20.4L12.9778 20.3C13.2445 20.2 13.5111 20.1 13.7778 20.1C14.1333 20.1 14.1333 20.2 14.2222 20.3C14.2222 20.4 14.2222 20.5 14.2222 20.6C14.2222 20.9 14.1333 21 13.7778 21ZM19.5556 18.5C19.5556 18.9 19.4667 19 19.1111 19C18.7556 19 18.6667 18.9 18.6667 18.5C18.6667 18.2 18.7556 17.9 18.7556 17.7C18.8444 17.6 18.8444 17.6 18.9333 17.5C19.0222 17.5 19.0222 17.4 19.1111 17.4C19.2 17.5 19.2889 17.5 19.3778 17.6C19.4667 17.9 19.5556 18.2 19.5556 18.5ZM21.3333 16.5C21.3333 16.9 21.2444 17 20.8889 17C20.6222 17 20.3555 16.9 20.0889 16.8C20 16.7 20 16.6 19.9111 16.5C20 16.4 20 16.3 20.0889 16.2C20.3555 16.1 20.6222 16 20.8889 16C21.2444 16 21.3333 16.1 21.3333 16.5ZM20.8889 12C20.8889 12 20.8 12 20.7111 12C20.5333 12 20.4445 12 20.4445 11.5C20.4445 11.2 20.5333 10.9 20.6222 10.6H20.7111C20.8 10.6 20.8 10.5 20.8 10.5C20.8 10.5 20.8 10.5 20.8889 10.5L20.9778 10.6C21.0667 10.6 21.0667 10.7 21.1556 10.7C21.2444 11 21.3333 11.3 21.3333 11.6C21.3333 11.9 21.2444 12 20.8889 12ZM22.6667 10C22.4 10 22.1333 9.90003 21.8667 9.80003C21.7778 9.69998 21.7778 9.59999 21.6889 9.49999C21.7778 9.4 21.7778 9.30001 21.8667 9.20002C22.0444 9.10002 22.4 9.00003 22.6667 9.00003C23.0222 9.00003 23.1111 9.10002 23.1111 9.49999C23.1111 9.90003 23.0222 10 22.6667 10Z" fill="#070707"/>
</svg>
