<svg width="26" height="24" viewBox="0 0 26 24" fill="none" xmlns="http://www.w3.org/2000/svg">
<path d="M13.7704 8.09974V4.39621C13.7704 1.97212 11.5684 0 8.86177 0C6.15512 0 3.95318 1.97212 3.95318 4.39621V8.09974C3.42053 8.25809 3.03516 8.70823 3.03516 9.23768C3.03516 9.8988 3.63569 10.4366 4.37388 10.4366C5.11206 10.4366 5.7126 9.8988 5.7126 9.23768C5.7126 8.70823 5.32718 8.25809 4.79458 8.09974V4.39621C4.79458 2.38767 6.61906 0.753654 8.86172 0.753654C11.1044 0.753654 12.9289 2.38767 12.9289 4.39621V8.09974C12.3963 8.25809 12.0108 8.70823 12.0108 9.23768C12.0108 9.8988 12.6114 10.4366 13.3496 10.4366C14.0877 10.4366 14.6883 9.8988 14.6883 9.23768C14.6884 8.70823 14.303 8.25813 13.7704 8.09974ZM4.8711 9.23768C4.8711 9.48321 4.64803 9.68304 4.37383 9.68304C4.09962 9.68304 3.87655 9.48321 3.87655 9.23768C3.87655 8.99215 4.09968 8.79237 4.37383 8.79237C4.64803 8.79241 4.8711 8.99215 4.8711 9.23768ZM13.3496 9.68308C13.0754 9.68308 12.8523 9.48326 12.8523 9.23773C12.8523 8.9922 13.0754 8.79241 13.3496 8.79241C13.6238 8.79241 13.8469 8.9922 13.8469 9.23773C13.8469 9.4833 13.6239 9.68308 13.3496 9.68308Z" fill="#070707"/>
<path d="M5.49667 7.03387H12.2285V7.78753H5.49667V7.03387ZM16.5503 7.03387H14.4725V7.78753H15.7607L15.9498 10.4492L16.7896 10.4013L16.5503 7.03387ZM0.895726 23.1114L1.96511 7.78753H3.2528V7.03387H1.17453L0 23.865H13.9115V23.1114H0.895726Z" fill="#070707"/>
<path d="M26.0002 17.3641L24.6261 16.0916L25.2494 14.4105L23.3929 13.8002L23.1402 12.0441L21.1721 12.2128L20.0929 10.7283L18.4025 11.6478L16.7121 10.7283L15.633 12.2128L13.6648 12.0441L13.4121 13.8001L11.5554 14.4105L12.1788 16.0916L10.8047 17.3641L12.1788 18.6367L11.5554 20.3177L13.4119 20.9281L13.6646 22.6841L15.6328 22.5154L16.7119 24L18.4023 23.0805L20.0928 24L21.1719 22.5154L23.1401 22.6842L23.3927 20.9282L25.2493 20.3178L24.626 18.6367L26.0002 17.3641ZM22.6235 20.3783L22.4097 21.8645L20.7448 21.7217L19.8326 22.9767L18.4024 22.1987L16.9723 22.9767L16.0601 21.7217L14.3952 21.8645L14.1814 20.3782L12.6112 19.8621L13.1382 18.441L11.9754 17.3642L13.1382 16.2873L12.6112 14.8662L14.1814 14.3501L14.3952 12.8639L16.0601 13.0066L16.9723 11.7517L18.4024 12.5295L19.8326 11.7517L20.7448 13.0066L22.4097 12.8639L22.6235 14.3502L24.1937 14.8663L23.6667 16.2873L24.8295 17.3642L23.6667 18.441L24.1937 19.8621L22.6235 20.3783Z" fill="#070707"/>
<path d="M15.1595 19.7357L21.0497 14.4604L21.6447 14.9934L15.7545 20.2686L15.1595 19.7357ZM16.7206 14.5703C16.0246 14.5703 15.4584 15.0775 15.4584 15.7008C15.4584 16.3241 16.0246 16.8312 16.7206 16.8312C17.4166 16.8312 17.9828 16.3241 17.9828 15.7008C17.9828 15.0775 17.4166 14.5703 16.7206 14.5703ZM16.7206 16.0776C16.4886 16.0776 16.2998 15.9086 16.2998 15.7008C16.2998 15.493 16.4886 15.3239 16.7206 15.3239C16.9526 15.3239 17.1413 15.493 17.1413 15.7008C17.1413 15.9086 16.9526 16.0776 16.7206 16.0776ZM20.0865 18.0873C19.3905 18.0873 18.8243 18.5944 18.8243 19.2177C18.8243 19.841 19.3905 20.3482 20.0865 20.3482C20.7825 20.3482 21.3487 19.841 21.3487 19.2177C21.3487 18.5944 20.7825 18.0873 20.0865 18.0873ZM20.0865 19.5946C19.8545 19.5946 19.6658 19.4255 19.6658 19.2177C19.6658 19.0099 19.8545 18.8409 20.0865 18.8409C20.3186 18.8409 20.5073 19.0099 20.5073 19.2177C20.5073 19.4255 20.3186 19.5946 20.0865 19.5946ZM7.4642 15.5752H8.30571V16.3288H7.4642V15.5752ZM9.14716 15.5752H9.98866V16.3288H9.14716V15.5752ZM5.78125 15.5752H6.62275V16.3288H5.78125V15.5752Z" fill="#070707"/>
</svg>
