<svg width="24" height="24" viewBox="0 0 24 24" fill="none" xmlns="http://www.w3.org/2000/svg">
<path d="M1 5.40002H3.44444H23" stroke="#181616" stroke-width="2" stroke-linecap="round" stroke-linejoin="round"/>
<path d="M7.11198 5.4V3.2C7.11198 2.61652 7.36952 2.05695 7.82794 1.64436C8.28636 1.23178 8.90812 1 9.55642 1H14.4453C15.0936 1 15.7154 1.23178 16.1738 1.64436C16.6322 2.05695 16.8898 2.61652 16.8898 3.2V5.4M20.5564 5.4V20.8C20.5564 21.3835 20.2989 21.9431 19.8405 22.3556C19.382 22.7682 18.7603 23 18.112 23H5.88976C5.24145 23 4.6197 22.7682 4.16127 22.3556C3.70285 21.9431 3.44531 21.3835 3.44531 20.8V5.4H20.5564Z" stroke="#181616" stroke-width="2" stroke-linecap="round" stroke-linejoin="round"/>
<path d="M9.55469 10.9V17.5" stroke="#181616" stroke-width="2" stroke-linecap="round" stroke-linejoin="round"/>
<path d="M14.4453 10.9V17.5" stroke="#181616" stroke-width="2" stroke-linecap="round" stroke-linejoin="round"/>
</svg>
