<svg width="20" height="18" viewBox="0 0 20 18" fill="none" xmlns="http://www.w3.org/2000/svg">
<path d="M19.0808 17.3507H18.7475V7.71866C19.5001 7.182 20 6.24622 20 5.18286C20 5.12636 19.9867 5.07084 19.9614 5.02178L17.6367 0.513281C17.5561 0.357516 17.4399 0.228048 17.2998 0.137932C17.1597 0.0478162 17.0006 0.000239649 16.8386 0H3.16145C2.99943 0.000230843 2.84034 0.0478036 2.70021 0.13792C2.56009 0.228037 2.44388 0.35751 2.36332 0.513281L0.0385938 5.02178C0.0133145 5.07084 1.26121e-05 5.12636 0 5.18286C0 6.24622 0.499922 7.182 1.2525 7.71866V17.3507H0.919219C0.841519 17.3507 0.767001 17.3849 0.712059 17.4458C0.657116 17.5066 0.62625 17.5892 0.62625 17.6753C0.62625 17.7614 0.657116 17.844 0.712059 17.9049C0.767001 17.9658 0.841519 18 0.919219 18H19.0808C19.1585 18 19.233 17.9658 19.2879 17.9049C19.3429 17.844 19.3737 17.7614 19.3737 17.6753C19.3737 17.5892 19.3429 17.5066 19.2879 17.4458C19.233 17.3849 19.1585 17.3507 19.0808 17.3507ZM0.606133 5.50753H1.54535C1.62305 5.50753 1.69757 5.47332 1.75251 5.41243C1.80745 5.35155 1.83832 5.26896 1.83832 5.18286C1.83832 5.09675 1.80745 5.01417 1.75251 4.95328C1.69757 4.89239 1.62305 4.85819 1.54535 4.85819H0.797812L2.87207 0.83544C2.90128 0.778962 2.94341 0.732018 2.99422 0.699345C3.04502 0.666671 3.1027 0.649423 3.16145 0.64934H16.8386C16.8973 0.649418 16.955 0.666665 17.0058 0.699339C17.0566 0.732013 17.0987 0.778959 17.1279 0.83544L19.2021 4.85819H18.4545C18.3768 4.85819 18.3022 4.89239 18.2473 4.95328C18.1924 5.01417 18.1615 5.09675 18.1615 5.18286C18.1615 5.26896 18.1924 5.35155 18.2473 5.41243C18.3022 5.47332 18.3768 5.50753 18.4545 5.50753H19.3938C19.2506 6.65833 18.3574 7.54754 17.2802 7.54754C16.2031 7.54754 15.3104 6.65824 15.1671 5.50753H17.2021C17.2798 5.50753 17.3543 5.47332 17.4092 5.41243C17.4642 5.35155 17.495 5.26896 17.495 5.18286C17.495 5.09675 17.4642 5.01417 17.4092 4.95328C17.3543 4.89239 17.2798 4.85819 17.2021 4.85819H2.79809C2.72039 4.85819 2.64587 4.89239 2.59093 4.95328C2.53598 5.01417 2.50512 5.09675 2.50512 5.18286C2.50512 5.26896 2.53598 5.35155 2.59093 5.41243C2.64587 5.47332 2.72039 5.50753 2.79809 5.50753H4.83289C4.68961 6.65824 3.79684 7.54754 2.71973 7.54754C1.64254 7.54754 0.749375 6.65833 0.606133 5.50753ZM14.5399 5.50753C14.3966 6.65824 13.5039 7.54754 12.4268 7.54754C11.3496 7.54754 10.4569 6.65824 10.3136 5.50753H14.5399ZM9.68641 5.50753C9.54313 6.65824 8.65035 7.54754 7.57324 7.54754C6.49613 7.54754 5.60336 6.65824 5.46008 5.50753H9.68641ZM16.5959 17.3507H13.4243V16.265H16.5959V17.3507ZM16.5959 15.6156H13.4243V9.6717H16.5959V15.6156ZM18.1616 17.3507H17.1818V9.34703C17.1818 9.26092 17.151 9.17834 17.096 9.11745C17.0411 9.05657 16.9666 9.02236 16.8889 9.02236H13.1313C13.0536 9.02236 12.9791 9.05657 12.9242 9.11745C12.8692 9.17834 12.8384 9.26092 12.8384 9.34703V17.3507H1.83844V8.03354C2.12201 8.14172 2.41983 8.19692 2.71973 8.19688C3.77813 8.19688 4.69723 7.52347 5.14648 6.54292C5.59574 7.52342 6.51484 8.19688 7.57324 8.19688C8.63164 8.19688 9.55074 7.52347 10 6.54292C10.4493 7.52342 11.3684 8.19688 12.4268 8.19688C13.4852 8.19688 14.4043 7.52347 14.8535 6.54292C15.3028 7.52342 16.2219 8.19688 17.2803 8.19688C17.5887 8.19688 17.885 8.13887 18.1616 8.03359V17.3507Z" fill="#181616"/>
<path d="M11.5678 9.02234H3.11328C3.03558 9.02234 2.96106 9.05655 2.90612 9.11743C2.85118 9.17832 2.82031 9.2609 2.82031 9.34701V15.9403C2.82031 16.0264 2.85118 16.109 2.90612 16.1699C2.96106 16.2307 3.03558 16.2649 3.11328 16.2649H11.5678C11.6455 16.2649 11.72 16.2307 11.775 16.1699C11.8299 16.109 11.8608 16.0264 11.8608 15.9403V9.34701C11.8608 9.16766 11.7296 9.02234 11.5678 9.02234ZM11.2748 15.6156H3.40625V9.67168H11.2748V15.6156Z" fill="#181616"/>
</svg>
