<svg width="24" height="14" viewBox="0 0 24 14" fill="none" xmlns="http://www.w3.org/2000/svg">
<path d="M23.1429 7.875H0.857143C0.629814 7.875 0.411797 7.78281 0.251051 7.61872C0.0903058 7.45462 0 7.23206 0 7C0 6.76794 0.0903058 6.54538 0.251051 6.38128C0.411797 6.21719 0.629814 6.125 0.857143 6.125H23.1429C23.3702 6.125 23.5882 6.21719 23.7489 6.38128C23.9097 6.54538 24 6.76794 24 7C24 7.23206 23.9097 7.45462 23.7489 7.61872C23.5882 7.78281 23.3702 7.875 23.1429 7.875ZM24 13.125C24 12.8929 23.9097 12.6704 23.7489 12.5063C23.5882 12.3422 23.3702 12.25 23.1429 12.25H0.857143C0.629814 12.25 0.411797 12.3422 0.251051 12.5063C0.0903058 12.6704 0 12.8929 0 13.125C0 13.3571 0.0903058 13.5796 0.251051 13.7437C0.411797 13.9078 0.629814 14 0.857143 14H23.1429C23.3702 14 23.5882 13.9078 23.7489 13.7437C23.9097 13.5796 24 13.3571 24 13.125ZM24 0.875C24 0.642936 23.9097 0.420376 23.7489 0.256282C23.5882 0.0921874 23.3702 0 23.1429 0H0.857143C0.629814 0 0.411797 0.0921874 0.251051 0.256282C0.0903058 0.420376 0 0.642936 0 0.875C0 1.10706 0.0903058 1.32962 0.251051 1.49372C0.411797 1.65781 0.629814 1.75 0.857143 1.75H23.1429C23.3702 1.75 23.5882 1.65781 23.7489 1.49372C23.9097 1.32962 24 1.10706 24 0.875Z" fill="white"/>
</svg>
