<svg width="22" height="18" viewBox="0 0 22 18" fill="none" xmlns="http://www.w3.org/2000/svg">
<path d="M18.2291 16.4831C18.0231 16.4832 17.8218 16.4075 17.6505 16.2658C17.4792 16.1241 17.3457 15.9226 17.2669 15.6868C17.188 15.4511 17.1673 15.1916 17.2075 14.9413C17.2476 14.691 17.3468 14.4611 17.4924 14.2806C17.638 14.1001 17.8235 13.9772 18.0255 13.9273C18.2275 13.8775 18.4369 13.9031 18.6271 14.0007C18.8174 14.0984 18.98 14.2637 19.0945 14.4759C19.2089 14.6881 19.27 14.9376 19.27 15.1928C19.2697 15.5348 19.16 15.8628 18.9648 16.1047C18.7697 16.3466 18.5051 16.4827 18.2291 16.4831ZM18.2291 14.6818C18.1474 14.6818 18.0676 14.7117 17.9997 14.7679C17.9318 14.824 17.8788 14.9039 17.8476 14.9973C17.8163 15.0908 17.8081 15.1936 17.824 15.2929C17.8399 15.3921 17.8792 15.4832 17.9369 15.5548C17.9947 15.6263 18.0682 15.675 18.1483 15.6947C18.2284 15.7145 18.3114 15.7043 18.3868 15.6656C18.4622 15.6268 18.5267 15.5612 18.572 15.477C18.6173 15.3929 18.6415 15.294 18.6414 15.1928C18.6413 15.0573 18.5978 14.9274 18.5205 14.8316C18.4432 14.7358 18.3384 14.6819 18.2291 14.6818Z" fill="#070707"/>
<path d="M21.6857 15.5823H20.1802C20.0969 15.5823 20.0169 15.5413 19.958 15.4682C19.8991 15.3952 19.8659 15.2961 19.8659 15.1928C19.8659 15.0895 19.8991 14.9905 19.958 14.9174C20.0169 14.8444 20.0969 14.8034 20.1802 14.8034H21.3714V7.67979L18.7961 3.50908H15.0856V14.8034H16.2768C16.3601 14.8034 16.4401 14.8444 16.499 14.9174C16.5579 14.9905 16.5911 15.0895 16.5911 15.1928C16.5911 15.2961 16.5579 15.3952 16.499 15.4682C16.4401 15.5413 16.3601 15.5823 16.2768 15.5823H14.7713C14.688 15.5823 14.608 15.5413 14.5491 15.4682C14.4901 15.3952 14.457 15.2961 14.457 15.1928V3.11962C14.457 3.01633 14.4901 2.91727 14.5491 2.84423C14.608 2.7712 14.688 2.73016 14.7713 2.73016H18.9514C18.9996 2.73016 19.0472 2.74393 19.0905 2.7704C19.1338 2.79688 19.1716 2.83535 19.2009 2.88283L21.9352 7.31097C21.9772 7.37894 22 7.46216 22 7.54776V15.1928C22 15.2961 21.9668 15.3952 21.9079 15.4682C21.849 15.5413 21.769 15.5823 21.6857 15.5823Z" fill="#070707"/>
<path d="M14.7716 15.5822H7.04635C6.963 15.5822 6.88306 15.5412 6.82412 15.4682C6.76517 15.3951 6.73206 15.2961 6.73206 15.1928C6.73206 15.0895 6.76517 14.9904 6.82412 14.9174C6.88306 14.8443 6.963 14.8033 7.04635 14.8033H14.4573V0.778917H0.628577V14.8033H3.14289C3.22624 14.8033 3.30618 14.8443 3.36512 14.9174C3.42406 14.9904 3.45718 15.0895 3.45718 15.1928C3.45718 15.2961 3.42406 15.3951 3.36512 15.4682C3.30618 15.5412 3.22624 15.5822 3.14289 15.5822H0.314289C0.230934 15.5822 0.150994 15.5412 0.092053 15.4682C0.0331124 15.3951 0 15.2961 0 15.1928V0.389458C0 0.286168 0.0331124 0.187107 0.092053 0.11407C0.150994 0.0410322 0.230934 0 0.314289 0H14.7716C14.8549 0 14.9349 0.0410322 14.9938 0.11407C15.0527 0.187107 15.0859 0.286168 15.0859 0.389458V15.1928C15.0859 15.2961 15.0527 15.3951 14.9938 15.4682C14.9349 15.5412 14.8549 15.5822 14.7716 15.5822Z" fill="#070707"/>
<path d="M14.7716 11.2982H0.314289C0.230934 11.2982 0.150994 11.2572 0.092053 11.1841C0.0331124 11.1111 0 11.012 0 10.9087C0 10.8055 0.0331124 10.7064 0.092053 10.6334C0.150994 10.5603 0.230934 10.5193 0.314289 10.5193H14.7716C14.8549 10.5193 14.9349 10.5603 14.9938 10.6334C15.0527 10.7064 15.0859 10.8055 15.0859 10.9087C15.0859 11.012 15.0527 11.1111 14.9938 11.1841C14.9349 11.2572 14.8549 11.2982 14.7716 11.2982ZM5.09399 18C4.64595 17.9999 4.20799 17.8352 3.83549 17.5267C3.46299 17.2182 3.17268 16.7798 3.00126 16.2668C2.82985 15.7538 2.78503 15.1894 2.87248 14.6449C2.95993 14.1004 3.17571 13.6002 3.49254 13.2076C3.80937 12.8151 4.21303 12.5478 4.65246 12.4395C5.0919 12.3312 5.54738 12.3868 5.96131 12.5993C6.37523 12.8118 6.72902 13.1716 6.97793 13.6332C7.22684 14.0949 7.3597 14.6376 7.3597 15.1928C7.35903 15.9371 7.1201 16.6507 6.69533 17.177C6.27057 17.7033 5.69466 17.9993 5.09399 18ZM5.09399 13.1641C4.77029 13.1642 4.45387 13.2832 4.18474 13.5061C3.91562 13.729 3.70587 14.0458 3.58202 14.4164C3.45818 14.787 3.42579 15.1948 3.48896 15.5882C3.55212 15.9816 3.70801 16.343 3.9369 16.6266C4.1658 16.9103 4.45742 17.1034 4.7749 17.1817C5.09238 17.26 5.42147 17.2198 5.72054 17.0664C6.01962 16.9129 6.27526 16.653 6.45514 16.3195C6.63502 15.986 6.73106 15.5939 6.73112 15.1928C6.73062 14.655 6.55797 14.1394 6.25105 13.7591C5.94412 13.3789 5.528 13.1646 5.09399 13.1641Z" fill="#070707"/>
<path d="M5.09386 16.4422C4.89446 16.4421 4.69956 16.3688 4.5338 16.2314C4.36804 16.0941 4.23886 15.8989 4.1626 15.6706C4.08633 15.4423 4.06641 15.1911 4.10535 14.9488C4.14429 14.7065 4.24034 14.4839 4.38136 14.3092C4.52237 14.1345 4.70202 14.0156 4.89759 13.9674C5.09316 13.9192 5.29587 13.944 5.48008 14.0386C5.6643 14.1331 5.82174 14.2933 5.93252 14.4987C6.04329 14.7042 6.10241 14.9457 6.10241 15.1928C6.10208 15.5241 5.99571 15.8417 5.80663 16.0759C5.61755 16.3102 5.36122 16.4419 5.09386 16.4422ZM5.09386 14.7219C5.0188 14.722 4.94544 14.7497 4.88305 14.8014C4.82067 14.8531 4.77205 14.9266 4.74335 15.0126C4.71466 15.0985 4.70717 15.1931 4.72183 15.2843C4.73649 15.3755 4.77264 15.4593 4.82572 15.5251C4.87879 15.5909 4.94641 15.6357 5.02003 15.6538C5.09365 15.672 5.16996 15.6627 5.23932 15.6271C5.30868 15.5916 5.36798 15.5313 5.40972 15.454C5.45146 15.3767 5.47377 15.2858 5.47384 15.1928C5.47367 15.068 5.43357 14.9484 5.36234 14.8602C5.29111 14.772 5.19456 14.722 5.09386 14.7219ZM18.2286 18C17.7806 18 17.3426 17.8354 16.97 17.5269C16.5975 17.2185 16.3071 16.78 16.1357 16.2671C15.9642 15.7541 15.9193 15.1897 16.0067 14.6451C16.0942 14.1006 16.3099 13.6004 16.6267 13.2078C16.9436 12.8152 17.3472 12.5478 17.7867 12.4395C18.2261 12.3312 18.6816 12.3868 19.0955 12.5993C19.5095 12.8117 19.8633 13.1715 20.1122 13.6332C20.3611 14.0948 20.494 14.6376 20.494 15.1928C20.4933 15.9371 20.2544 16.6506 19.8298 17.1769C19.4051 17.7032 18.8292 17.9992 18.2286 18ZM18.2286 13.1641C17.9049 13.1641 17.5884 13.2831 17.3193 13.5059C17.0501 13.7288 16.8403 14.0455 16.7164 14.4161C16.5925 14.7867 16.5601 15.1945 16.6232 15.588C16.6864 15.9814 16.8422 16.3428 17.0711 16.6265C17.3 16.9102 17.5916 17.1034 17.9091 17.1817C18.2266 17.26 18.5557 17.2199 18.8548 17.0664C19.1539 16.913 19.4095 16.6531 19.5894 16.3196C19.7693 15.9861 19.8654 15.5939 19.8654 15.1928C19.8649 14.6551 19.6923 14.1395 19.3855 13.7593C19.0786 13.379 18.6626 13.1647 18.2286 13.1641ZM19.8535 10.1298H16.3429C16.2595 10.1298 16.1796 10.0888 16.1206 10.0158C16.0617 9.94273 16.0286 9.84367 16.0286 9.74038V5.39013C16.0286 5.28684 16.0617 5.18778 16.1206 5.11474C16.1796 5.0417 16.2595 5.00067 16.3429 5.00067H18.5146C18.563 5.0007 18.6107 5.01456 18.654 5.04118C18.6974 5.06779 18.7352 5.10644 18.7645 5.15412L20.1033 7.32924C20.1451 7.39705 20.1677 7.47997 20.1678 7.56526V9.74038C20.1678 9.84367 20.1347 9.94273 20.0757 10.0158C20.0168 10.0888 19.9368 10.1298 19.8535 10.1298ZM16.6572 9.35092H19.5392V7.69689L18.359 5.77959H16.6572V9.35092Z" fill="#070707"/>
</svg>
