<svg width="24" height="24" viewBox="0 0 24 24" fill="none" xmlns="http://www.w3.org/2000/svg">
<g clip-path="url(#clip0_1_27169)">
<path d="M0 12C0 5.3724 5.3724 0 12 0C18.6276 0 24 5.3724 24 12C24 18.6276 18.6276 24 12 24C5.3724 24 0 18.6276 0 12Z" fill="#070707"/>
<path fill-rule="evenodd" clip-rule="evenodd" d="M18.1942 9.06597C18.2902 8.77197 18.1942 8.55897 17.7676 8.55897H16.3492C15.9916 8.55897 15.826 8.74497 15.73 8.94597C15.73 8.94597 15.0004 10.6536 13.9816 11.7618C13.651 12.0816 13.4998 12.1884 13.3204 12.1884C13.2244 12.1884 13.1002 12.0816 13.1002 11.7882V9.05217C13.1002 8.70537 12.9904 8.54517 12.6874 8.54517H10.4566C10.2364 8.54517 10.099 8.70537 10.099 8.86557C10.099 9.19917 10.6084 9.27957 10.663 10.2138V12.2418C10.663 12.6822 10.5808 12.7626 10.4014 12.7626C9.9196 12.7626 8.7496 11.0406 8.0476 9.07917C7.9096 8.69217 7.7716 8.54517 7.414 8.54517H5.9824C5.569 8.54517 5.5 8.73237 5.5 8.93217C5.5 9.29217 5.9824 11.1078 7.744 13.5102C8.9146 15.1512 10.5808 16.032 12.0814 16.032C12.9898 16.032 13.1002 15.8316 13.1002 15.498V14.2572C13.1002 13.857 13.183 13.7898 13.4722 13.7898C13.6786 13.7898 14.05 13.8966 14.89 14.6838C15.8536 15.6186 16.0192 16.0458 16.5562 16.0458H17.974C18.3874 16.0458 18.58 15.8454 18.4696 15.4578C18.346 15.0714 17.878 14.5104 17.272 13.8438C16.942 13.47 16.4458 13.056 16.294 12.8556C16.0882 12.5892 16.1428 12.4824 16.294 12.2418C16.2808 12.2418 18.0154 9.86637 18.1942 9.06597Z" fill="white"/>
</g>
<defs>
<clipPath id="clip0_1_27169">
<rect width="24" height="24" fill="white"/>
</clipPath>
</defs>
</svg>
