<svg width="24" height="24" viewBox="0 0 24 24" fill="none" xmlns="http://www.w3.org/2000/svg">
<g clip-path="url(#clip0_1_27166)">
<path d="M0.00012495 12.0061C-0.0298751 5.41213 5.34612 0.030125 11.9881 0.000124951C18.5641 -0.0298751 23.9761 5.34612 24.0001 11.9401C24.0241 18.5581 18.6721 23.9881 12.1141 24.0001C5.39413 24.0181 0.030125 18.7021 0.00012495 12.0061ZM11.9701 16.1761C12.9181 16.8721 13.8481 17.5681 14.7841 18.2521C14.9461 18.3721 15.1141 18.4861 15.2941 18.5581C15.6541 18.7021 15.9181 18.5941 16.0741 18.2341C16.1401 18.0901 16.1761 17.9281 16.2121 17.7781C16.7161 15.4261 17.2141 13.0741 17.7121 10.7281C17.8981 9.85212 18.0961 8.98213 18.2461 8.10013C18.3601 7.43412 17.9281 7.11613 17.2981 7.33213C17.2321 7.35613 17.1721 7.38013 17.1121 7.40413C14.8681 8.26813 12.6301 9.13813 10.3861 10.0021C8.73012 10.6441 7.07412 11.2741 5.41812 11.9221C5.13012 12.0361 4.73413 12.1261 4.74613 12.5101C4.75813 12.8941 5.16012 12.9121 5.44212 13.0021C6.25212 13.2661 7.07413 13.5001 7.88413 13.7761C8.16613 13.8721 8.37012 13.8421 8.62212 13.6861C10.8301 12.2761 13.0501 10.8841 15.2701 9.49212C15.4441 9.38412 15.6481 9.33612 15.8401 9.26412C15.8641 9.30612 15.8881 9.35413 15.9121 9.39612C15.8041 9.50412 15.7081 9.61813 15.5941 9.72013C13.8301 11.3161 12.0661 12.9121 10.3021 14.5141C10.2001 14.6101 10.0561 14.7301 10.0441 14.8441C9.95413 15.8521 9.88813 16.8661 9.81013 18.0061C10.7221 17.5321 11.2141 16.7341 11.9701 16.1761Z" fill="#070707"/>
<path d="M11.9665 16.1761C11.2105 16.7341 10.7185 17.5321 9.80645 18.0001C9.89045 16.8541 9.95045 15.8461 10.0405 14.8381C10.0525 14.7181 10.1965 14.5981 10.2985 14.5081C12.0625 12.9061 13.8265 11.3101 15.5905 9.71411C15.7045 9.61211 15.8005 9.49811 15.9085 9.39011C15.8845 9.34811 15.8605 9.30011 15.8365 9.25811C15.6445 9.33611 15.4345 9.37811 15.2665 9.48611C13.0465 10.8781 10.8325 12.2701 8.61845 13.6801C8.36645 13.8421 8.16245 13.8661 7.88045 13.7701C7.07045 13.4941 6.24845 13.2601 5.43845 12.9961C5.15645 12.9061 4.75445 12.8881 4.74245 12.5041C4.73045 12.1141 5.12645 12.0301 5.41445 11.9161C7.07045 11.2681 8.72645 10.6321 10.3825 9.99611C12.6265 9.13211 14.8645 8.26211 17.1085 7.39811C17.1685 7.37411 17.2345 7.35011 17.2945 7.32611C17.9245 7.10411 18.3565 7.42811 18.2425 8.09411C18.0925 8.97611 17.8945 9.85211 17.7085 10.7221C17.2105 13.0741 16.7125 15.4261 16.2085 17.7721C16.1725 17.9281 16.1365 18.0841 16.0705 18.2281C15.9085 18.5881 15.6505 18.6961 15.2905 18.5521C15.1105 18.4801 14.9365 18.3661 14.7805 18.2461C13.8445 17.5681 12.9085 16.8781 11.9665 16.1761Z" fill="white"/>
</g>
<defs>
<clipPath id="clip0_1_27166">
<rect width="24" height="24" fill="white"/>
</clipPath>
</defs>
</svg>
