<svg width="24" height="24" viewBox="0 0 24 24" fill="none" xmlns="http://www.w3.org/2000/svg">
<path d="M23.568 0.50271C23.4073 0.344652 23.2095 0.218059 22.9877 0.131377C22.766 0.0446937 22.5255 -8.62537e-05 22.2822 2.36304e-05C21.8614 0.00274286 21.4561 0.137977 21.1422 0.380438C20.8283 0.622899 20.6272 0.955984 20.5765 1.31741C20.3455 2.91189 19.5245 4.39893 18.2361 5.55639C16.9476 6.71385 15.2609 7.4796 13.428 7.73925C13.3357 7.47368 13.147 7.24089 12.8898 7.07541C12.6326 6.90993 12.3206 6.82057 12.0001 6.82057C11.6796 6.82057 11.3676 6.90993 11.1104 7.07541C10.8532 7.24089 10.6645 7.47368 10.5722 7.73925C8.7393 7.47926 7.05279 6.71321 5.76462 5.55554C4.47644 4.39786 3.65573 2.91069 3.42508 1.31617C3.37043 0.956466 3.17054 0.625063 2.86076 0.380547C2.69296 0.249585 2.4968 0.14873 2.28363 0.0838218C2.07047 0.0189139 1.84453 -0.00875621 1.61892 0.00241423C1.39331 0.0135847 1.1725 0.0633736 0.96928 0.148897C0.766064 0.234421 0.584481 0.353979 0.43505 0.500647C0.271111 0.662328 0.14881 0.852336 0.0762682 1.05805C0.00372677 1.26377 -0.0173943 1.48048 0.0143077 1.6938C0.366717 3.99092 1.58687 6.12283 3.48491 7.75779C5.38294 9.39275 7.8524 10.4391 10.509 10.7339V11.5129C10.5091 11.7018 10.5572 11.8885 10.65 12.0595C10.7428 12.2305 10.878 12.3818 11.0459 12.5026L7.2535 14.3961C7.24849 14.3986 7.24492 14.4025 7.23991 14.4052C7.21913 14.4166 7.19958 14.4296 7.18147 14.444C7.17432 14.4498 7.16668 14.4551 7.16001 14.4613C7.15333 14.4675 7.15213 14.4669 7.14879 14.4704C7.13083 14.4878 7.11486 14.5067 7.10109 14.5268L7.09966 14.5286C7.08329 14.5534 7.07055 14.5799 7.06174 14.6074C7.05935 14.6145 7.05792 14.6219 7.05601 14.6291C7.0503 14.6506 7.04695 14.6725 7.04599 14.6945C7.04599 14.6995 7.04385 14.704 7.04385 14.709L7.04385 21.3716C7.04385 21.3766 7.04576 21.3811 7.04599 21.3861C7.04695 21.4081 7.0503 21.43 7.05601 21.4515C7.05792 21.4587 7.05935 21.4661 7.06174 21.4732C7.07059 21.5007 7.08333 21.5272 7.09966 21.552L7.10109 21.5538C7.11486 21.5739 7.13083 21.5928 7.14879 21.6102C7.15213 21.6135 7.15619 21.6155 7.15953 21.6188C7.1674 21.6261 7.17646 21.6323 7.18505 21.6395C7.202 21.6529 7.22028 21.6651 7.23967 21.6758C7.24444 21.6785 7.24826 21.6824 7.2535 21.6851L11.791 23.9517C11.796 23.9542 11.8015 23.955 11.8063 23.9573C11.8288 23.9674 11.8522 23.9758 11.8764 23.9823C11.885 23.9845 11.8931 23.9872 11.9017 23.9891C11.966 24.0036 12.0335 24.0036 12.0978 23.9891C12.1063 23.9872 12.1147 23.9845 12.1233 23.9823C12.1474 23.9757 12.1708 23.9674 12.1932 23.9573C12.1982 23.955 12.2037 23.9542 12.2084 23.9517L16.7464 21.6845C16.7517 21.6818 16.7553 21.6779 16.7603 21.6752C16.7796 21.6645 16.7978 21.6524 16.8146 21.6389C16.8236 21.6324 16.8322 21.6255 16.8404 21.6182C16.8437 21.6149 16.8478 21.6129 16.8511 21.6096C16.8691 21.5922 16.8851 21.5733 16.8988 21.5532L16.9003 21.5514C16.9164 21.5264 16.9291 21.5 16.9382 21.4725C16.9406 21.4655 16.942 21.4581 16.9439 21.4509C16.9496 21.4294 16.953 21.4075 16.9539 21.3855C16.9539 21.3805 16.9561 21.376 16.9561 21.371V14.709C16.9561 14.704 16.9542 14.6995 16.9539 14.6945C16.953 14.6725 16.9496 14.6506 16.9439 14.6291C16.942 14.6219 16.9406 14.6145 16.9382 14.6074C16.9292 14.58 16.9164 14.5535 16.9003 14.5286L16.8988 14.5268C16.8851 14.5067 16.8691 14.4878 16.8511 14.4704C16.8478 14.4669 16.8435 14.4646 16.8399 14.4613C16.8364 14.458 16.8254 14.4498 16.818 14.4438C16.8002 14.4295 16.781 14.4167 16.7605 14.4054C16.7555 14.4027 16.7517 14.3988 16.7464 14.3961L12.9562 12.5026C13.1241 12.3817 13.2592 12.2302 13.3519 12.059C13.4445 11.8879 13.4925 11.7011 13.4924 11.5121V10.7341C16.1487 10.4399 18.6181 9.39397 20.5159 7.7592C22.4136 6.12442 23.6333 3.99257 23.9849 1.69566C24.0175 1.4826 23.9972 1.26598 23.9253 1.06026C23.8534 0.854537 23.7316 0.664457 23.568 0.50271ZM11.3438 8.11131C11.3438 7.96059 11.413 7.81604 11.5362 7.70946C11.6594 7.60288 11.8265 7.543 12.0007 7.543C12.1749 7.543 12.342 7.60288 12.4652 7.70946C12.5884 7.81604 12.6576 7.96059 12.6576 8.11131V11.5129C12.6576 11.6636 12.5884 11.8082 12.4652 11.9148C12.342 12.0213 12.1749 12.0812 12.0007 12.0812C11.8265 12.0812 11.6594 12.0213 11.5362 11.9148C11.413 11.8082 11.3438 11.6636 11.3438 11.5129V8.11131ZM16.1208 20.5728L15.0165 19.7323V16.3481L16.1208 15.5078V20.5728ZM7.88056 15.5078L8.98489 16.3483V19.7325L7.88056 20.573L7.88056 15.5078ZM12 20.7765L9.81898 19.6869V16.3937L12 15.3041L14.181 16.3937V19.6869L12 20.7765ZM11.5826 14.6786L9.45214 15.7428L8.17465 14.7703L11.5826 13.0678V14.6786ZM9.45214 20.3378L11.5826 21.402L11.5826 23.0128L8.17465 21.3103L9.45214 20.3378ZM12.4174 21.402L14.5476 20.3378L15.8253 21.3103L12.4174 23.0128L12.4174 21.402ZM14.5476 15.7428L12.4174 14.6786V13.0678L15.8253 14.7703L14.5476 15.7428ZM0.842435 1.6028C0.825615 1.49123 0.836442 1.37785 0.874194 1.27018C0.911947 1.16252 0.975761 1.06304 1.06139 0.978364C1.14289 0.897367 1.24365 0.832553 1.35677 0.788355C1.46989 0.744156 1.59271 0.721616 1.71683 0.722274C1.93214 0.722284 2.13984 0.79115 2.30001 0.915631C2.46292 1.04447 2.56807 1.21889 2.59696 1.40821C2.85177 3.16773 3.76162 4.80768 5.18904 6.08024C6.61645 7.3528 8.48384 8.1888 10.509 8.46191V10.0071C8.05655 9.71491 5.7827 8.73446 4.03648 7.21626C2.29026 5.69805 1.16816 3.726 0.842435 1.6028ZM23.157 1.6028C22.8324 3.7261 21.7109 5.69844 19.9649 7.21678C18.2188 8.73511 15.9449 9.71543 13.4924 10.0071V8.46212C15.5177 8.18891 17.3852 7.35282 18.8128 6.08017C20.2404 4.80752 21.1504 3.16746 21.4054 1.40779C21.4303 1.22081 21.5331 1.04809 21.6946 0.921931C21.8561 0.795767 22.0651 0.724792 22.2826 0.722274C22.4073 0.721507 22.5308 0.744089 22.6444 0.788471C22.7581 0.832852 22.8593 0.897983 22.9412 0.979395C23.0263 1.06407 23.0896 1.16346 23.1268 1.27096C23.164 1.37846 23.1743 1.49159 23.157 1.6028Z" fill="#070707"/>
</svg>
