<svg width="18" height="23" viewBox="0 0 18 23" xmlns="http://www.w3.org/2000/svg">
<path d="M10.8 0H4.8C4.48174 0 4.17652 0.110146 3.95147 0.306207C3.72643 0.502267 3.6 0.768183 3.6 1.04545V10.4545H1.2C0.88174 10.4545 0.576516 10.5647 0.351472 10.7608C0.126428 10.9568 0 11.2227 0 11.5C0 11.7773 0.126428 12.0432 0.351472 12.2392C0.576516 12.4353 0.88174 12.5455 1.2 12.5455H3.6V15.6818H1.2C0.88174 15.6818 0.576516 15.792 0.351472 15.988C0.126428 16.1841 0 16.45 0 16.7273C0 17.0045 0.126428 17.2705 0.351472 17.4665C0.576516 17.6626 0.88174 17.7727 1.2 17.7727H3.6V21.9545C3.6 22.2318 3.72643 22.4977 3.95147 22.6938C4.17652 22.8899 4.48174 23 4.8 23C5.11826 23 5.42348 22.8899 5.64853 22.6938C5.87357 22.4977 6 22.2318 6 21.9545V17.7727H9.6C9.91826 17.7727 10.2235 17.6626 10.4485 17.4665C10.6736 17.2705 10.8 17.0045 10.8 16.7273C10.8 16.45 10.6736 16.1841 10.4485 15.988C10.2235 15.792 9.91826 15.6818 9.6 15.6818H6V12.5455H10.8C12.7096 12.5455 14.5409 11.8846 15.8912 10.7082C17.2414 9.53185 18 7.93636 18 6.27273C18 4.6091 17.2414 3.0136 15.8912 1.83724C14.5409 0.660875 12.7096 2.479e-08 10.8 0ZM10.8 10.4545H6V2.09091H10.8C12.073 2.09091 13.2939 2.53149 14.1941 3.31573C15.0943 4.09998 15.6 5.16364 15.6 6.27273C15.6 7.38181 15.0943 8.44548 14.1941 9.22972C13.2939 10.014 12.073 10.4545 10.8 10.4545Z"/>
</svg>
