<svg width="20" height="26" viewBox="0 0 20 26" fill="none" xmlns="http://www.w3.org/2000/svg">
<path d="M17.3182 0H7.13768C5.65889 0 4.45575 1.29092 4.45575 2.87759V3.23076H2.68194C1.20315 3.23076 0 4.52167 0 6.10834V23.1224C0 24.7091 1.20315 26 2.68194 26H12.8624C14.3412 26 15.5443 24.7091 15.5443 23.1224V22.7692H17.3181C18.7969 22.7692 20 21.4783 20 19.8917V2.87759C20.0001 1.29092 18.797 0 17.3182 0ZM13.8144 23.1224C13.8144 23.6856 13.3873 24.1438 12.8625 24.1438H2.68194C2.15706 24.1438 1.72998 23.6856 1.72998 23.1224V6.10822C1.72998 5.54505 2.15706 5.08682 2.68194 5.08682H12.8624C13.3873 5.08682 13.8143 5.54505 13.8143 6.10822V23.1224H13.8144ZM18.2701 19.8917C18.2701 20.4548 17.8431 20.9131 17.3182 20.9131H15.5444V6.10822C15.5444 4.52155 14.3412 3.23063 12.8625 3.23063H6.18573V2.87746C6.18573 2.3143 6.61281 1.85606 7.13768 1.85606H17.3182C17.8431 1.85606 18.2701 2.3143 18.2701 2.87746V19.8917Z" fill="#34322C"/>
</svg>
