<svg width="23" height="20" viewBox="0 0 23 20"  xmlns="http://www.w3.org/2000/svg">
<path d="M6.69531 1.57886H21.9997" stroke="currentColor" stroke-linecap="round" stroke-linejoin="round"/>
<path d="M6.69531 10H21.9997" stroke="currentColor" stroke-linecap="round" stroke-linejoin="round"/>
<path d="M6.69531 18.4211H21.9997" stroke="currentColor" stroke-linecap="round" stroke-linejoin="round"/>
<path d="M2.36957 1.57895C2.36957 2.22096 1.90708 2.65789 1.43478 2.65789C0.962488 2.65789 0.5 2.22096 0.5 1.57895C0.5 0.936936 0.962488 0.5 1.43478 0.5C1.90708 0.5 2.36957 0.936936 2.36957 1.57895Z" fill="currentColor" stroke="currentColor"/>
<path d="M2.36957 10.0001C2.36957 10.6421 1.90708 11.079 1.43478 11.079C0.962488 11.079 0.5 10.6421 0.5 10.0001C0.5 9.35808 0.962488 8.92114 1.43478 8.92114C1.90708 8.92114 2.36957 9.35808 2.36957 10.0001Z" fill="currentColor" stroke="currentColor"/>
<path d="M2.36957 18.421C2.36957 19.063 1.90708 19.4999 1.43478 19.4999C0.962488 19.4999 0.5 19.063 0.5 18.421C0.5 17.779 0.962488 17.342 1.43478 17.342C1.90708 17.342 2.36957 17.779 2.36957 18.421Z" fill="currentColor" stroke="currentColor"/>
</svg>
