<svg width="18" height="24" viewBox="0 0 18 24" fill="none" xmlns="http://www.w3.org/2000/svg">
<path d="M9.00042 8.92505C4.98691 8.92505 1.70312 11.9625 1.70312 15.675C1.70312 19.3875 4.98691 22.425 9.00042 22.425C13.0139 22.425 16.2977 19.3875 16.2977 15.675C16.2977 11.9625 13.0139 8.92505 9.00042 8.92505ZM9.00042 21.7125C5.43285 21.7125 2.51394 19.0125 2.51394 15.7125C2.51394 12.4125 5.43285 9.71255 9.00042 9.71255C12.568 9.71255 15.4869 12.4125 15.4869 15.7125C15.4869 19.0125 12.568 21.7125 9.00042 21.7125Z" fill="#070707"/>
<path d="M11.4324 7.6875V6.5625L15.0405 2.625C15.1622 2.475 15.1622 2.2875 15.0405 2.1375L13.1351 0.15C13.0541 0.0375 12.9324 0 12.8108 0H5.18919C5.06757 0 4.94595 0.0375 4.90541 0.1125L2.95946 2.1C2.83784 2.25 2.83784 2.4375 2.95946 2.5875L6.64865 6.525V7.65C2.83784 8.625 0 11.85 0 15.675C0 20.2875 4.05405 24 9 24C13.9459 24 18 20.2875 18 15.675C18 11.8875 15.2027 8.6625 11.4324 7.6875ZM7.25676 6.0375L4.13514 2.7375H6.77027L7.82432 6.0375H7.25676ZM8.67568 6.0375L7.62162 2.7375H10.3784L9.40541 6.0375H8.67568ZM7.5 1.9875V0.75H10.5V1.9875H7.5ZM11.2703 2.7375H13.8649L10.8243 6.0375H10.2568L11.2703 2.7375ZM13.8243 1.9875H11.3514V0.75H12.6486L13.8243 1.9875ZM5.39189 0.75H6.72973V1.9875H4.21622L5.39189 0.75ZM7.45946 6.7875H10.6216V7.5C10.0946 7.425 9.56757 7.35 9 7.35C8.47297 7.35 7.94595 7.3875 7.45946 7.4625V6.7875ZM9 23.25C4.5 23.25 0.810811 19.8375 0.810811 15.675C0.810811 11.5125 4.5 8.1 9 8.1C13.5 8.1 17.1892 11.5125 17.1892 15.675C17.1892 19.8375 13.5 23.25 9 23.25Z" fill="#070707"/>
</svg>
