<svg width="16" height="16" viewBox="0 0 16 16"  xmlns="http://www.w3.org/2000/svg">
<path d="M4.81633 16C4.40816 16 4.06122 15.8598 3.77551 15.5795C3.4898 15.2991 3.34694 14.9587 3.34694 14.5582C3.34694 14.1577 3.4898 13.8173 3.77551 13.5369C4.06122 13.2566 4.40816 13.1164 4.81633 13.1164C5.22449 13.1164 5.57143 13.2566 5.85714 13.5369C6.14286 13.8173 6.28571 14.1577 6.28571 14.5582C6.28571 14.9587 6.14286 15.2991 5.85714 15.5795C5.57143 15.8598 5.22449 16 4.81633 16V16ZM12.9796 16C12.5714 16 12.2245 15.8598 11.9388 15.5795C11.6531 15.2991 11.5102 14.9587 11.5102 14.5582C11.5102 14.1577 11.6531 13.8173 11.9388 13.5369C12.2245 13.2566 12.5714 13.1164 12.9796 13.1164C13.3878 13.1164 13.7347 13.2566 14.0204 13.5369C14.3061 13.8173 14.449 14.1577 14.449 14.5582C14.449 14.9587 14.3061 15.2991 14.0204 15.5795C13.7347 15.8598 13.3878 16 12.9796 16ZM3.7551 2.78348L6 7.34919H11.8776L14.4286 2.78348H3.7551ZM3.14286 1.58198H15.1633C15.4762 1.58198 15.7143 1.72215 15.8776 2.0025C16.0408 2.28285 16.0408 2.5632 15.8776 2.84355L13.1224 7.70964C12.9728 7.96329 12.7789 8.16688 12.5408 8.3204C12.3027 8.47393 12.0408 8.55069 11.7551 8.55069H5.57143L4.42857 10.6333H14.449V11.8348H4.61224C4.04082 11.8348 3.62925 11.6479 3.37755 11.2741C3.12585 10.9003 3.12925 10.4798 3.38776 10.0125L4.69388 7.64956L1.59184 1.2015H0V0H2.38775L3.14286 1.58198ZM6 7.34919H11.8776H6Z"/>
</svg>
