<svg width="24" height="24" viewBox="0 0 24 24" fill="none" xmlns="http://www.w3.org/2000/svg">
<path d="M23.7302 0.0309945C23.4824 -0.0516575 23.3172 0.0309945 23.2346 0.278951C19.5171 10.7757 15.7172 16.0654 11.9998 16.0654H11.9172C5.47366 15.9001 0.847576 0.526903 0.847576 0.361602C0.76497 0.113646 0.517144 -0.0516575 0.351924 0.0309945C0.104098 0.113646 -0.061119 0.361602 0.0214884 0.526903C0.186709 1.18812 4.73021 16.3134 11.5867 16.8919V16.9746V18.297C10.5954 18.7103 9.93454 20.6113 9.93454 21.9337C9.93454 23.3388 10.5954 24 11.9998 24C13.4041 24 14.065 23.3388 14.065 21.9337C14.065 20.6113 13.4041 18.7103 12.4128 18.297V16.9746V16.8919C16.4606 16.5613 20.3432 11.0237 23.978 0.609558C24.0606 0.361602 23.8954 0.113646 23.7302 0.0309945ZM13.2389 21.9337C13.2389 23.0082 12.8259 23.1735 11.9998 23.1735C11.1737 23.1735 10.7606 23.0082 10.7606 21.9337C10.7606 20.5286 11.5041 19.0409 11.9998 19.0409C12.4954 19.0409 13.2389 20.5286 13.2389 21.9337Z" fill="#070707"/>
</svg>
