<svg width="26" height="24" viewBox="0 0 26 24" fill="none" xmlns="http://www.w3.org/2000/svg">
<path d="M23.4952 1.5412C23.6807 1.39266 23.7735 1.09556 23.7735 0.798458C23.7735 0.649907 23.7735 0.649907 23.7735 0.501355C23.6807 0.0557053 23.4025 -0.0928442 23.2169 0.055707C20.8977 1.54121 18.9495 5.40351 19.4134 9.26577C18.3929 5.25496 15.6098 3.6209 13.2906 4.21511C10.8786 4.66076 8.37389 7.33465 8.18836 12.9795C8.00283 12.9795 7.91004 12.9795 7.72451 12.9795C7.72451 12.5339 7.72451 12.2368 7.72451 11.9397C7.72451 8.37451 7.07513 5.84916 5.59083 3.91801C5.40525 3.6209 5.12698 3.76946 4.94143 4.06656C4.66312 4.36366 4.66312 4.80931 4.84866 5.10641C6.24021 6.889 6.7968 9.26577 6.70401 12.9795C6.24021 12.6824 5.68357 12.3854 5.21972 12.0883C5.21972 11.7912 5.31251 11.6426 5.31251 11.3455C5.31251 9.86003 4.75589 8.22596 3.73543 6.59191C3.54989 6.2948 3.27159 6.2948 3.08605 6.59191C2.90051 6.889 2.90051 7.33465 3.08605 7.63176C3.73543 8.67161 4.38482 10.3057 4.38482 11.494C4.19928 11.494 4.01374 11.494 3.92097 11.7912C3.54989 12.6824 2.80774 14.6136 2.52944 15.3564C2.43667 15.5049 2.43667 15.802 2.52944 15.9505C2.06559 16.6933 1.23067 16.9904 0.67406 16.6933C0.395749 16.6933 0.117443 16.8419 0.0246756 17.2875C-0.0680938 17.5846 0.117443 18.0303 0.302984 18.1788C1.23067 18.6245 2.3439 18.1788 3.08605 16.9904C3.64266 17.7331 4.19928 18.1788 4.75589 18.4759C4.1065 19.8129 2.71498 20.8527 1.50898 20.8527C1.23067 20.8527 1.04514 21.1498 1.04514 21.5955C1.04514 22.0411 1.23067 22.3382 1.50898 22.3382C3.17882 22.3382 4.94143 21.0012 5.77636 19.0701C6.7968 19.3672 7.72451 19.3672 8.65221 19.2186C11.7135 24.5665 14.0328 24.4179 15.9809 23.5266C18.3002 22.4867 19.6917 19.5158 20.0628 15.0593C20.1556 15.0593 20.2483 15.0593 20.2483 14.9107C20.2483 15.0593 20.2483 15.0593 20.3411 15.0593C21.6399 17.7331 23.4025 18.4759 25.3506 17.5846C25.5361 17.436 25.7217 17.139 25.7217 16.8419V16.6933C25.6289 16.2476 25.3506 16.0991 25.165 16.2476C23.588 16.9904 22.382 16.5448 21.3615 14.6136C22.0109 14.3165 22.4748 14.168 22.7531 14.0194C23.6807 15.0593 24.9795 14.7621 25.8144 14.0194C25.9072 13.8709 26 13.5738 26 13.2766C26 13.1281 26 12.9795 25.9072 12.9795C25.8144 12.6824 25.5361 12.5339 25.2578 12.6824C25.165 12.6824 23.9591 13.7223 23.2169 12.831C23.2169 12.5339 23.3097 12.2368 23.3097 11.7912C23.3097 10.7513 23.1241 9.41436 22.382 8.37451C22.382 8.37451 22.2892 8.37451 22.2892 8.22596C22.382 6.74045 23.2169 5.40351 24.4229 4.36366C24.6084 4.21511 24.7012 3.91801 24.7012 3.76945C24.7012 3.6209 24.7012 3.47235 24.6084 3.47235C24.5156 3.17525 24.2374 3.0267 23.9591 3.17525C22.2892 4.51221 21.3615 6.44335 21.2687 8.52306C20.9905 8.67161 20.6194 8.82019 20.1556 8.96869C19.8772 5.7006 21.8254 2.58105 23.4952 1.5412ZM16.4448 16.0991C16.5375 16.2476 16.5375 16.2476 16.6303 16.2476C16.352 17.436 15.8882 17.8817 15.4243 18.1788C14.4039 18.773 13.1051 18.1788 12.1774 16.9904C12.2702 16.6933 12.2702 16.3962 12.2702 15.9505C12.2702 15.5049 12.2702 15.0593 12.2702 14.6136C12.2702 14.3165 12.2702 13.8709 12.2702 13.5738V11.9397C12.2702 11.7912 12.1774 11.494 12.0847 11.3455C12.4557 10.1571 13.2906 9.86003 13.6617 9.86003C14.4967 9.71144 15.5171 10.3057 15.9809 11.3455C15.8882 11.494 15.8882 11.494 15.7954 11.6426C15.8882 11.7912 15.4243 14.465 16.4448 16.0991ZM13.2906 5.84916C15.3316 5.40351 17.6508 6.74045 18.4857 10.0085C18.0218 10.3057 17.4652 10.4542 16.9086 10.8999C16.2592 9.11728 14.8677 8.37451 13.6617 8.52306C12.2702 8.67161 11.3425 10.0085 11.0642 11.7912C10.322 12.3854 9.57986 12.831 8.93048 13.1281C9.3016 7.1861 12.3629 5.99771 13.2906 5.84916ZM3.45712 15.5049C3.73544 14.7621 4.10651 13.8709 4.38482 13.1281C6.61127 14.7621 8.65221 15.3564 11.3425 12.9795V13.2766C11.3425 14.0194 11.3425 14.7621 11.3425 15.6535C11.3425 16.0991 11.3425 16.0991 10.8786 16.3962C9.85818 17.436 6.24021 19.3672 3.45712 15.5049ZM15.7954 22.0411C14.1255 22.7839 12.2702 22.9324 9.76539 18.773C10.5076 18.4759 11.0642 18.1788 11.3425 17.8817C11.3425 17.8817 11.4353 17.8817 11.4353 17.7331C12.6412 19.5158 14.3111 20.11 15.7026 19.3672C16.7231 18.773 17.3724 17.436 17.558 15.802C18.0218 15.6535 18.4857 15.3564 19.0423 15.2078C18.8567 18.0303 18.0218 21.0012 15.7954 22.0411ZM22.382 12.5339C21.4543 12.9795 18.3002 14.1679 16.9086 14.6136C16.6303 14.0194 16.7231 12.9795 16.7231 12.3854C18.8567 11.1969 21.2687 10.0085 21.9181 9.71144C22.4748 10.6028 22.382 11.9397 22.382 12.5339Z" fill="#070707"/>
</svg>
