<svg width="20" height="20" viewBox="0 0 20 20" fill="none" xmlns="http://www.w3.org/2000/svg">
<path d="M13.5 6.5L6.5 13.5" stroke="#070707" stroke-linecap="round" stroke-linejoin="round"/>
<path d="M7.25 8.5C7.94036 8.5 8.5 7.94036 8.5 7.25C8.5 6.55964 7.94036 6 7.25 6C6.55964 6 6 6.55964 6 7.25C6 7.94036 6.55964 8.5 7.25 8.5Z" stroke="#070707" stroke-linecap="round" stroke-linejoin="round"/>
<path d="M12.75 14C13.4404 14 14 13.4404 14 12.75C14 12.0596 13.4404 11.5 12.75 11.5C12.0596 11.5 11.5 12.0596 11.5 12.75C11.5 13.4404 12.0596 14 12.75 14Z" stroke="#070707" stroke-linecap="round" stroke-linejoin="round"/>
<path d="M3.63942 16.3606C2.84327 15.5644 3.37115 13.8942 2.96442 12.9163C2.55769 11.9385 1 11.0817 1 10C1 8.91827 2.54038 8.09615 2.96442 7.08365C3.38846 6.07115 2.84327 4.43558 3.63942 3.63942C4.43558 2.84327 6.10577 3.37115 7.08365 2.96442C8.06154 2.55769 8.91827 1 10 1C11.0817 1 11.9038 2.54038 12.9163 2.96442C13.9288 3.38846 15.5644 2.84327 16.3606 3.63942C17.1567 4.43558 16.6288 6.10577 17.0356 7.08365C17.4423 8.06154 19 8.91827 19 10C19 11.0817 17.4596 11.9038 17.0356 12.9163C16.6115 13.9288 17.1567 15.5644 16.3606 16.3606C15.5644 17.1567 13.8942 16.6288 12.9163 17.0356C11.9385 17.4423 11.0817 19 10 19C8.91827 19 8.09615 17.4596 7.08365 17.0356C6.07115 16.6115 4.43558 17.1567 3.63942 16.3606Z" stroke="#070707" stroke-linecap="round" stroke-linejoin="round"/>
</svg>
