<svg width="26" height="26" viewBox="0 0 26 26" fill="none" xmlns="http://www.w3.org/2000/svg">
<path d="M4.735 16.3077V11.4077H5.309L8.55 15.4327H8.249V11.4077H8.949V16.3077H8.375L5.134 12.2827H5.435V16.3077H4.735ZM11.0527 13.5217H13.5727V14.1167H11.0527V13.5217ZM11.1157 15.6987H13.9717V16.3077H10.4157V11.4077H13.8737V12.0167H11.1157V15.6987ZM16.1638 16.3077L14.5258 11.4077H15.2468L16.7518 15.9297H16.3878L17.9488 11.4077H18.5928L20.1188 15.9297H19.7688L21.2948 11.4077H21.9598L20.3218 16.3077H19.5868L18.1588 12.1147H18.3478L16.9128 16.3077H16.1638Z" fill="#070707"/>
<path d="M4.51923 21.4808C3.45769 20.4192 4.16154 18.1923 3.61923 16.8885C3.07692 15.5846 1 14.4423 1 13C1 11.5577 3.05385 10.4615 3.61923 9.11154C4.18462 7.76154 3.45769 5.58077 4.51923 4.51923C5.58077 3.45769 7.80769 4.16154 9.11154 3.61923C10.4154 3.07692 11.5577 1 13 1C14.4423 1 15.5385 3.05385 16.8885 3.61923C18.2385 4.18462 20.4192 3.45769 21.4808 4.51923C22.5423 5.58077 21.8385 7.80769 22.3808 9.11154C22.9231 10.4154 25 11.5577 25 13C25 14.4423 22.9462 15.5385 22.3808 16.8885C21.8154 18.2385 22.5423 20.4192 21.4808 21.4808C20.4192 22.5423 18.1923 21.8385 16.8885 22.3808C15.5846 22.9231 14.4423 25 13 25C11.5577 25 10.4615 22.9462 9.11154 22.3808C7.76154 21.8154 5.58077 22.5423 4.51923 21.4808Z" stroke="#070707" stroke-linecap="round" stroke-linejoin="round"/>
</svg>
