<svg width="21" height="26" viewBox="0 0 21 26" fill="none" xmlns="http://www.w3.org/2000/svg">
<path d="M12.6591 16.6774L8.92614 20.2097M8.92614 22.5323L19 13H16.5455L13.2727 16.0968M1 21.1291V8.35486M2.63636 8.35486V18.0323" stroke="#070707" stroke-miterlimit="10"/>
<path d="M5.09091 25.0001C7.35026 25.0001 9.18182 23.267 9.18182 21.1291C9.18182 18.9913 7.35026 17.2582 5.09091 17.2582C2.83156 17.2582 1 18.9913 1 21.1291C1 23.267 2.83156 25.0001 5.09091 25.0001Z" stroke="#070707" stroke-miterlimit="10"/>
<path d="M5.09126 23.4517C6.44687 23.4517 7.54581 22.4118 7.54581 21.1291C7.54581 19.8464 6.44687 18.8065 5.09126 18.8065C3.73566 18.8065 2.63672 19.8464 2.63672 21.1291C2.63672 22.4118 3.73566 23.4517 5.09126 23.4517Z" stroke="#070707" stroke-miterlimit="10"/>
<path d="M2.94318 1.57576C3.5674 1.21068 4.30315 1 5.09091 1C7.35027 1 9.18182 2.73308 9.18182 4.87097V8.35484H1V4.87097C1 3.76634 1.48897 2.76976 2.2733 2.06452" stroke="#070707" stroke-miterlimit="10"/>
<path d="M5.09055 5.25813C5.76836 5.25813 6.31783 4.7382 6.31783 4.09684C6.31783 3.45547 5.76836 2.93555 5.09055 2.93555C4.41275 2.93555 3.86328 3.45547 3.86328 4.09684C3.86328 4.7382 4.41275 5.25813 5.09055 5.25813Z" stroke="#070707" stroke-miterlimit="10"/>
<path d="M5.09126 5.25806V8.35483M2.63672 6.80644H3.4549M6.72763 6.80644H7.54581" stroke="#070707" stroke-miterlimit="10"/>
</svg>
