<svg width="22" height="24" viewBox="0 0 22 24" fill="none" xmlns="http://www.w3.org/2000/svg">
<path d="M19.3189 2.31647C19.1725 2.09353 18.8556 2.02097 18.611 2.15438C18.3664 2.28787 18.2868 2.57686 18.4331 2.79989C19.9929 5.17631 20.8832 8.26064 20.9614 11.5295H19.6161C19.5421 8.73745 18.8117 6.09511 17.5395 4.04452C16.8105 2.86978 15.9304 1.92642 14.9237 1.24055C13.7335 0.428953 12.3767 0 11 0C9.62323 0 8.26643 0.428953 7.0764 1.24041C6.06953 1.92633 5.18943 2.86973 4.46042 4.04452C3.18824 6.09506 2.45779 8.73741 2.38377 11.5294H1.03848C1.11662 8.26064 2.00705 5.17627 3.56676 2.7998C3.71311 2.57677 3.63348 2.28778 3.38899 2.15428C3.14424 2.02092 2.82746 2.09348 2.68106 2.31638C0.95217 4.95066 0 8.38964 0 12C0 15.6104 0.95217 19.0493 2.68106 21.6835C2.77775 21.8308 2.94884 21.9125 3.12445 21.9125C3.21461 21.9125 3.30602 21.8909 3.38899 21.8456C3.63353 21.7121 3.71316 21.4231 3.56676 21.2001C2.007 18.8237 1.11662 15.7394 1.03848 12.4706H2.38377C2.45779 15.2626 3.18824 17.9049 4.46042 19.9555C5.18938 21.1303 6.06953 22.0737 7.07624 22.7595C8.26643 23.571 9.62323 24 11 24C12.3767 24 13.7335 23.571 14.9235 22.7596C15.9304 22.0737 16.8105 21.1303 17.5395 19.9555C18.8117 17.9049 19.5422 15.2626 19.6162 12.4706H20.9615C20.8833 15.7394 19.9929 18.8237 18.4332 21.2002C18.2868 21.4232 18.3665 21.7122 18.611 21.8457C18.694 21.891 18.7854 21.9126 18.8756 21.9126C19.0511 21.9126 19.2222 21.8309 19.3189 21.6836C21.0478 19.0493 22 15.6104 22 12C22 8.38964 21.0477 4.95066 19.3189 2.31647ZM16.6412 19.492C15.9831 20.5525 15.1973 21.3982 14.3057 22.0057C13.2953 22.6947 12.1521 23.0588 11 23.0588C9.84793 23.0588 8.70478 22.6947 7.69421 22.0056C6.8027 21.3982 6.01689 20.5525 5.35887 19.4921C4.1017 17.4657 3.4094 14.805 3.4094 12C3.4094 9.19514 4.10175 6.53437 5.35882 4.50806C6.01694 3.44756 6.80276 2.60184 7.69437 1.99439C8.70473 1.30533 9.84783 0.941156 11 0.941156C12.1521 0.941156 13.2952 1.30528 14.3058 1.99439C15.1973 2.6018 15.9831 3.44747 16.6411 4.50792C17.8983 6.53428 18.5906 9.19505 18.5906 12C18.5906 14.8049 17.8983 17.4657 16.6412 19.492Z" fill="#070707"/>
<path d="M16.6441 7.17349C16.6437 7.17218 16.6432 7.17091 16.6427 7.1696C16.6419 7.16721 16.6411 7.16472 16.6403 7.16229C16.1096 5.6531 15.3334 4.38002 14.3957 3.48068C13.3853 2.5114 12.2113 1.99915 11.0008 1.99915C9.77815 1.99915 8.5948 2.52072 7.57889 3.5073C6.65319 4.40482 5.88629 5.66866 5.36142 7.162C5.36055 7.16444 5.35978 7.16697 5.3589 7.16946C5.35844 7.17086 5.35793 7.17222 5.35752 7.17363C4.84262 8.63946 4.57036 10.3079 4.57031 11.9998C4.57031 12 4.57031 12.0002 4.57031 12.0004C4.57036 13.6908 4.84262 15.3592 5.35741 16.8263C5.35798 16.828 5.3586 16.8297 5.35916 16.8314C5.35993 16.8335 5.3606 16.8357 5.36132 16.8379C5.88634 18.3316 6.65314 19.5955 7.57863 20.4926C8.5948 21.4795 9.77815 22.0011 11.0008 22.0011C12.2235 22.0011 13.4068 21.4796 14.4227 20.493C15.3485 19.5955 16.1153 18.3316 16.6402 16.8383C16.6411 16.8358 16.6419 16.8333 16.6427 16.8308C16.6432 16.8294 16.6437 16.8281 16.6441 16.8266C17.159 15.3608 17.4313 13.6923 17.4313 12.0004C17.4313 12.0003 17.4313 12.0001 17.4313 11.9998C17.4312 10.3077 17.1589 8.63913 16.6441 7.17349ZM11.0008 2.9403C12.8326 2.9403 14.5616 4.5565 15.5582 7.17893L13.9579 8.63805L11.7307 6.60715L12.2921 6.09518C12.4936 5.91143 12.4936 5.61344 12.2921 5.42965C12.0906 5.24594 11.7639 5.24594 11.5622 5.42965L11.0008 5.94157L8.6896 3.83416C9.41305 3.24841 10.2041 2.9403 11.0008 2.9403ZM10.2709 12.0001L8.04361 14.031L5.81628 12.0001L8.04356 9.96916L10.2709 12.0001ZM8.77349 9.30358L11.0008 7.27268L13.2281 9.30358L11.0008 11.3345L8.77349 9.30358ZM11.0008 12.6656L13.2281 14.6965L11.0008 16.7275L8.77349 14.6966L11.0008 12.6656ZM11.7307 12.0001L13.9579 9.96916L16.1853 12.0001L13.958 14.031L11.7307 12.0001ZM7.98264 4.5206L10.2709 6.60715L8.04361 8.6381L6.4434 7.17897C6.84211 6.13038 7.36739 5.22457 7.98264 4.5206ZM6.10719 8.20347L7.31373 9.30363L5.64925 10.8214C5.72112 9.9153 5.87565 9.03208 6.10719 8.20347ZM5.6492 13.1788L7.31367 14.6965L6.10729 15.7965C5.87581 14.9676 5.72117 14.0844 5.6492 13.1788ZM6.44345 16.8212L8.04361 15.3621L10.2709 17.393L7.98264 19.4795C7.36755 18.7758 6.84222 17.8699 6.44345 16.8212ZM11.0008 21.0598C10.2042 21.0598 9.41321 20.7518 8.68965 20.1659L11.0008 18.0586L13.3119 20.166C12.5885 20.7517 11.7974 21.0598 11.0008 21.0598ZM14.0189 19.4795L11.7307 17.393L13.9579 15.362L15.5582 16.8212C15.1594 17.8698 14.6342 18.7756 14.0189 19.4795ZM15.8944 15.7967L14.6879 14.6965L16.3523 13.1787C16.2805 14.0848 16.1259 14.9681 15.8944 15.7967ZM14.6879 9.30358L15.8944 8.20343C16.126 9.03194 16.2805 9.91521 16.3524 10.8213L14.6879 9.30358Z" fill="#070707"/>
<path d="M12.9595 4.31372C12.2953 4.31372 12.2942 5.25488 12.9595 5.25488C13.6236 5.25492 13.6247 4.31372 12.9595 4.31372Z" fill="#070707"/>
</svg>
