<svg width="20" height="20" viewBox="0 0 20 20"  xmlns="http://www.w3.org/2000/svg">
<path fill-rule="evenodd" clip-rule="evenodd" d="M0.234604 19.4794C0.586509 19.3425 0.791787 19.2877 0.791787 18.2192V6.63016C0.821113 5.31504 0.381231 5.47946 0 5.20546H3.60704C3.40176 5.34244 2.78592 5.23286 2.78592 6.63016V11.0411H4.31085C4.54545 9.23289 5.33726 7.7534 6.68623 6.63016C8.12314 5.42467 9.91201 4.84931 12.1114 4.84931C14.5161 4.84931 16.4516 5.56165 17.9179 6.98629C19.3255 8.32875 20 10.0274 20 12.1096C20 14.3014 19.3548 16.137 18.0352 17.589C16.5982 19.178 14.6041 20 12.1114 20C9.67739 20 7.74194 19.2055 6.27563 17.6438C4.89736 16.1918 4.22287 14.411 4.22287 12.3288H2.78592V18.1918C2.78592 19.6712 3.37243 19.452 3.60704 19.6164C2.40469 19.6164 1.20234 19.6164 0 19.6164L0.234604 19.4794ZM8.97358 0.684932C9.17891 0.684932 9.38418 0.849317 9.38418 1.06849C9.38418 1.15068 9.35483 1.23288 9.32549 1.28767C9.67739 1.53424 10.1173 1.75342 10.5572 1.9178C10.4985 2.71233 10.7624 3.12329 11.1437 3.12329C11.5249 3.12329 11.437 2.54795 11.0557 1.50685C11.4076 1.31507 11.7302 1.0411 11.9355 0.684932C11.8182 0.630137 11.7302 0.520546 11.7302 0.356164C11.7302 0.164383 11.9062 0 12.1114 0C12.3167 0 12.522 0.164383 12.522 0.356164C12.522 0.493151 12.434 0.630137 12.2874 0.684932C12.522 1.0137 12.8152 1.28767 13.1671 1.50685C12.7859 2.54795 12.6979 3.09589 13.0791 3.12329C13.4604 3.12329 13.695 2.71233 13.6657 1.9178C14.1349 1.75342 14.5455 1.53424 14.9267 1.26027C14.868 1.20548 14.868 1.12329 14.868 1.0411C14.868 0.849317 15.044 0.657532 15.2786 0.657532C15.4839 0.657532 15.6892 0.821917 15.6892 1.0411C15.6892 1.23288 15.5132 1.42466 15.2786 1.42466L14.3988 3.47945H14.6334V3.9178H14.3695V4.46575C12.9619 4.19178 11.261 4.19178 9.85337 4.46575V3.9178H9.61875V3.47945H9.85337L8.97358 1.42466C8.76831 1.42466 8.56304 1.26027 8.56304 1.0411C8.56304 0.849317 8.73901 0.684932 8.97358 0.684932ZM12.1408 18.5754C14.1056 18.5754 15.5718 17.9452 16.5689 16.7123C17.4193 15.6438 17.8299 14.1644 17.8299 12.3014C17.8299 10.548 17.4193 9.12331 16.5982 8.0548C15.6305 6.79453 14.1349 6.19178 12.1701 6.19178C10.2933 6.19178 8.8563 6.82192 7.82993 8.0548C6.9208 9.1507 6.48096 10.5753 6.48096 12.3014C6.48096 14.0548 6.8915 15.4795 7.74194 16.6027C8.70967 17.8904 10.1759 18.5754 12.1408 18.5754Z" />
</svg>
