<svg width="24" height="24" viewBox="0 0 24 24" fill="none" xmlns="http://www.w3.org/2000/svg">
<rect width="24" height="24" rx="12" fill="#070707"/>
<path d="M4.71875 18.9802L5.74768 15.2438C5.11155 14.1471 4.77784 12.9051 4.78132 11.6354C4.78132 7.65685 8.03498 4.42212 12.029 4.42212C13.9687 4.42212 15.7902 5.17285 17.1563 6.53594C18.5259 7.89903 19.2802 9.71186 19.2768 11.6389C19.2768 15.6174 16.0231 18.8521 12.0256 18.8521H12.0221C10.8089 18.8521 9.61661 18.5477 8.55639 17.9734L4.71875 18.9802ZM8.74063 16.6691L8.95962 16.8006C9.88427 17.3472 10.9445 17.6344 12.0256 17.6378H12.029C15.3487 17.6378 18.0532 14.9497 18.0532 11.6423C18.0532 10.0405 17.4275 8.53559 16.2908 7.40084C15.1541 6.26609 13.6385 5.64336 12.029 5.64336C8.70934 5.6399 6.00492 8.32802 6.00492 11.6354C6.00492 12.7667 6.32124 13.8703 6.92609 14.8252L7.06861 15.0535L6.46029 17.2642L8.74063 16.6691Z" fill="white"/>
<path d="M4.96875 18.7275L5.96292 15.1191C5.34765 14.0639 5.02437 12.8635 5.02437 11.6388C5.02784 7.79859 8.16679 4.67456 12.0253 4.67456C13.8989 4.67456 15.6544 5.40108 16.9753 6.71573C18.2962 8.03038 19.0227 9.78094 19.0227 11.6422C19.0227 15.4824 15.8803 18.6064 12.0253 18.6064H12.0218C10.8504 18.6064 9.69976 18.3123 8.67778 17.7588L4.96875 18.7275Z" fill="#070707"/>
<path d="M4.71875 18.9802L5.74768 15.2438C5.11155 14.1471 4.77784 12.9051 4.78132 11.6354C4.78132 7.65685 8.03498 4.42212 12.029 4.42212C13.9687 4.42212 15.7902 5.17285 17.1563 6.53594C18.5259 7.89903 19.2802 9.71186 19.2768 11.6389C19.2768 15.6174 16.0231 18.8521 12.0256 18.8521H12.0221C10.8089 18.8521 9.61661 18.5477 8.55639 17.9734L4.71875 18.9802ZM8.74063 16.6691L8.95962 16.8006C9.88427 17.3472 10.9445 17.6344 12.0256 17.6378H12.029C15.3487 17.6378 18.0532 14.9497 18.0532 11.6423C18.0532 10.0405 17.4275 8.53559 16.2908 7.40084C15.1541 6.26609 13.6385 5.64336 12.029 5.64336C8.70934 5.6399 6.00492 8.32802 6.00492 11.6354C6.00492 12.7667 6.32124 13.8703 6.92609 14.8252L7.06861 15.0535L6.46029 17.2642L8.74063 16.6691Z" fill="white"/>
<path fill-rule="evenodd" clip-rule="evenodd" d="M10.2217 8.61854C10.0861 8.31755 9.94363 8.31063 9.81501 8.30717C9.71073 8.30371 9.58906 8.30371 9.4674 8.30371C9.34573 8.30371 9.15107 8.34869 8.98422 8.52859C8.81736 8.70849 8.35156 9.1444 8.35156 10.0335C8.35156 10.9192 9.0016 11.7772 9.09198 11.8982C9.18236 12.0193 10.3469 13.8979 12.1857 14.621C13.7152 15.2229 14.0281 15.1018 14.3583 15.0707C14.6885 15.0396 15.429 14.6348 15.5819 14.2127C15.7314 13.7907 15.7314 13.4309 15.6862 13.3547C15.641 13.2786 15.5193 13.2337 15.3386 13.1437C15.1578 13.0538 14.2679 12.6178 14.1011 12.5556C13.9342 12.4968 13.8126 12.4656 13.6944 12.6455C13.5727 12.8254 13.2251 13.2302 13.1208 13.3513C13.0165 13.4724 12.9088 13.4862 12.728 13.3963C12.5472 13.3063 11.9633 13.116 11.2715 12.5002C10.7327 12.0228 10.3677 11.4312 10.2634 11.2513C10.1591 11.0714 10.253 10.9745 10.3434 10.8846C10.4233 10.805 10.5241 10.6735 10.6145 10.5698C10.7049 10.466 10.7362 10.3899 10.7953 10.2688C10.8544 10.1477 10.8266 10.0439 10.7814 9.95394C10.7362 9.86745 10.3816 8.97488 10.2217 8.61854Z" fill="white"/>
</svg>
