<svg width="26" height="24" viewBox="0 0 26 24" fill="none" xmlns="http://www.w3.org/2000/svg">
<path d="M16.3248 0.773515C15.8438 0.274692 15.204 -5.26053e-05 14.5232 7.55503e-09C13.9668 7.55503e-09 13.4378 0.183566 13.0006 0.523025C12.5629 0.183514 12.0336 7.55503e-09 11.4771 7.55503e-09C10.7964 7.55503e-09 10.1565 0.274692 9.6755 0.773409C8.68227 1.80236 8.68222 3.47703 9.6755 4.50672L12.7221 7.66228C12.7991 7.74193 12.8999 7.78181 13.0007 7.78181C13.1015 7.78181 13.2023 7.74193 13.2792 7.66222L16.3247 4.50656C17.3178 3.47698 17.3178 1.80231 16.3248 0.773515ZM15.7676 3.9295L13.0007 6.79648L10.2327 3.92955C9.54657 3.21828 9.54652 2.06143 10.2327 1.35057C10.565 1.00601 11.0069 0.816289 11.4771 0.816289C11.9474 0.816289 12.3895 1.00606 12.7222 1.35068C12.7588 1.38858 12.8022 1.41865 12.85 1.43916C12.8978 1.45967 12.949 1.47022 13.0007 1.47021H13.0009C13.0526 1.4702 13.1039 1.45962 13.1517 1.43907C13.1995 1.41852 13.2429 1.38841 13.2794 1.35047C13.6114 1.00596 14.0532 0.816289 14.5232 0.816289C14.9934 0.816289 15.4353 1.00601 15.7676 1.35068C16.4536 2.06137 16.4535 3.21828 15.7676 3.9295ZM18.2525 7.94612C16.2831 7.94612 14.4316 8.69917 12.9969 10.0752C11.6154 8.75442 9.77097 7.94612 7.74749 7.94612C3.47552 7.94612 0 11.547 0 15.9731C0 20.3991 3.47552 24 7.74749 24C9.71679 24 11.5683 23.247 13.0031 21.8709C14.3846 23.1917 16.229 24 18.2526 24C22.5245 24 26 20.3992 26 15.9731C26 11.547 22.5245 7.94612 18.2525 7.94612ZM7.74744 23.1835C3.90995 23.1837 0.787871 19.949 0.787871 15.9731C0.787871 11.9971 3.90995 8.76241 7.74749 8.76241C11.585 8.76241 14.7071 11.9971 14.7071 15.9731C14.7071 17.2404 14.3911 18.4679 13.7891 19.5548C13.6688 19.3946 13.5567 19.228 13.4532 19.0557C13.6701 18.626 13.8408 18.173 13.9622 17.7048C14.1082 17.1426 14.1818 16.5598 14.1818 15.9732C14.1818 15.0731 14.0116 14.2002 13.6759 13.3785C13.3817 12.6566 12.9663 11.9945 12.4491 11.4228C12.4469 11.4204 12.4449 11.4179 12.4426 11.4155C12.3949 11.3627 12.3464 11.3106 12.2971 11.2593C11.7062 10.6471 11.0182 10.1665 10.2518 9.83077C9.45867 9.48305 8.61621 9.30669 7.74744 9.30669C7.21764 9.30649 6.68983 9.37374 6.17586 9.50694C5.67867 9.63642 5.1983 9.82735 4.7451 10.0756C4.29854 10.3198 3.8814 10.6177 3.50233 10.9633C3.12444 11.3073 2.78653 11.6957 2.49544 12.1207C2.46538 12.1644 2.444 12.2139 2.43254 12.2662C2.42109 12.3185 2.41979 12.3726 2.42871 12.4255C2.43722 12.4783 2.45576 12.5289 2.48326 12.5743C2.51076 12.6197 2.54668 12.659 2.58893 12.69C2.65538 12.7388 2.73485 12.7651 2.81633 12.765C2.87934 12.765 2.94143 12.7494 2.99744 12.7195C3.05345 12.6896 3.10175 12.6462 3.13833 12.5931C3.65046 11.8454 4.33327 11.2239 5.11276 10.7972C5.51043 10.5796 5.9319 10.4122 6.36812 10.2988C6.81667 10.1818 7.28051 10.123 7.74744 10.123C8.51013 10.123 9.24965 10.2775 9.9451 10.5823C10.5828 10.8617 11.1584 11.2572 11.6595 11.7563C10.9035 13.0221 10.505 14.4725 10.505 15.973C10.505 17.518 10.9289 18.9622 11.662 20.1881C11.4623 20.3873 11.2489 20.5711 11.0234 20.7381C10.714 20.9671 10.383 21.1631 10.0354 21.3231C9.31425 21.6545 8.54425 21.8232 7.74744 21.8232C7.05936 21.8232 6.38701 21.6964 5.7494 21.4461C5.22072 21.239 4.72524 20.9504 4.27974 20.59C3.83715 20.2329 3.44809 19.8098 3.12523 19.3346C2.45497 18.3468 2.10097 17.1844 2.10097 15.973C2.10097 15.2726 2.21914 14.5875 2.45238 13.9372C2.52799 13.726 2.42348 13.4909 2.2197 13.4126C2.17582 13.3957 2.12939 13.387 2.08259 13.387C2.00224 13.3873 1.92388 13.4129 1.85792 13.4604C1.79196 13.5079 1.74152 13.5752 1.71331 13.6531C1.44757 14.3943 1.3131 15.1752 1.3131 15.973C1.31361 17.3536 1.71702 18.6782 2.48072 19.8031C2.84821 20.3451 3.29147 20.8274 3.79595 21.2343C4.30358 21.6448 4.86811 21.9736 5.47046 22.2095C6.19739 22.4946 6.96323 22.6394 7.74744 22.6394L7.74851 22.6367V22.6394C8.65511 22.6394 9.53225 22.4473 10.3553 22.0692C11.002 21.7713 11.5969 21.3652 12.1162 20.8671C12.2234 21.011 12.3352 21.1511 12.4515 21.2872C11.1649 22.5128 9.50869 23.1835 7.74744 23.1835ZM13.394 15.9732C13.394 16.4891 13.3293 17.0006 13.2017 17.4931C13.146 17.7071 13.0785 17.9175 12.9995 18.1235C12.7384 17.4401 12.6061 16.7173 12.6061 15.9732C12.6057 15.4598 12.6703 14.9486 12.7983 14.4527C12.854 14.2389 12.9214 14.0287 13.0003 13.8229C13.2616 14.5066 13.394 15.2293 13.394 15.9732ZM18.2525 23.1837C14.415 23.1837 11.2929 19.949 11.2929 15.9731C11.2929 14.7058 11.6088 13.4783 12.2108 12.3913C12.3309 12.5514 12.4429 12.7179 12.5463 12.8901C12.3297 13.3198 12.1592 13.7728 12.0377 14.241C11.8916 14.8059 11.8177 15.3883 11.8182 15.9732C11.8182 16.8733 11.9883 17.7462 12.324 18.5679C12.6202 19.2935 13.0333 19.951 13.5532 20.5261C13.5542 20.5273 13.5552 20.5285 13.5563 20.5297C13.6043 20.5829 13.6532 20.6354 13.7028 20.687C14.2937 21.2992 14.9818 21.7798 15.7481 22.1156C16.5413 22.4633 17.3838 22.6396 18.2531 22.6396C18.7846 22.6396 19.3136 22.5721 19.8246 22.4388C20.3216 22.3095 20.8018 22.1187 21.2549 21.8707C21.7012 21.6262 22.1183 21.3283 22.4976 20.9831C22.8755 20.6391 23.2135 20.2506 23.5046 19.8256C23.6301 19.6417 23.5881 19.3864 23.4111 19.2564C23.3258 19.1939 23.22 19.169 23.117 19.1871C23.014 19.2053 22.9222 19.2651 22.8617 19.3533C22.3495 20.101 21.6667 20.7219 20.8867 21.1491C20.4892 21.3669 20.0679 21.5342 19.6319 21.6476C19.1808 21.7645 18.7175 21.8235 18.2526 21.8234C17.4899 21.8234 16.7503 21.6683 16.0543 21.3635C15.4173 21.0841 14.8417 20.6887 14.3405 20.1896C15.0965 18.9239 15.4949 17.4735 15.4949 15.9731C15.4949 14.428 15.0709 12.9837 14.3378 11.7578C14.5375 11.5586 14.751 11.3747 14.9765 11.2077C15.2861 10.9789 15.6171 10.7829 15.9645 10.6226C16.6862 10.2912 17.4557 10.1231 18.2526 10.1231C18.9406 10.1231 19.6129 10.2499 20.2506 10.4997C20.2532 10.5008 20.2558 10.5018 20.2579 10.5024L20.259 10.503C20.7864 10.7111 21.2808 11 21.7255 11.3601C22.167 11.7174 22.555 12.1405 22.8769 12.6155C23.546 13.6022 23.8995 14.7635 23.899 15.9732C23.899 16.6736 23.7808 17.3587 23.5476 18.0091C23.5295 18.0593 23.5212 18.1127 23.5232 18.1662C23.5252 18.2197 23.5374 18.2723 23.5591 18.3209C23.5804 18.3697 23.6108 18.4137 23.6487 18.4503C23.6866 18.4868 23.7311 18.5152 23.7797 18.5336C23.8244 18.5505 23.8701 18.5592 23.9168 18.5592C23.9972 18.559 24.0757 18.5335 24.1418 18.4859C24.2078 18.4384 24.2583 18.3711 24.2866 18.2931C24.5523 17.5508 24.6868 16.7705 24.6868 15.9732C24.6863 14.5925 24.2829 13.268 23.5192 12.1426C23.1519 11.6008 22.7088 11.1186 22.2045 10.7119C21.6965 10.3014 21.1319 9.97247 20.5294 9.73607C19.8025 9.45096 19.0362 9.30669 18.2525 9.30669H18.252C17.3454 9.30669 16.4683 9.49826 15.6451 9.87702C15.2487 10.059 14.8712 10.2823 14.5185 10.5437C14.2963 10.708 14.0843 10.8868 13.8838 11.0789C13.7766 10.935 13.6648 10.7949 13.5485 10.6588C14.8349 9.43307 16.4912 8.76236 18.2525 8.76236C22.09 8.76236 25.2121 11.9971 25.2121 15.973C25.2121 19.949 22.09 23.1837 18.2525 23.1837Z" fill="#070707"/>
</svg>
