<svg width="26" height="24" viewBox="0 0 26 24" fill="none" xmlns="http://www.w3.org/2000/svg">
<path d="M3.04687 20.4844C3.04687 22.4229 4.75539 24 6.85547 24C8.95555 24 10.6641 22.4229 10.6641 20.4844C10.6641 18.5458 8.95555 16.9688 6.85547 16.9688C6.73724 16.9688 6.62041 16.9744 6.50476 16.9843C5.25447 15.5945 4.57031 13.8389 4.57031 12C4.57031 7.70947 8.35193 4.21875 13 4.21875C17.6481 4.21875 21.4297 7.70947 21.4297 12C21.4297 13.8389 20.7455 15.5945 19.4952 16.9843C19.3796 16.9744 19.2628 16.9688 19.1445 16.9688C17.0444 16.9688 15.3359 18.5458 15.3359 20.4844C15.3359 22.4229 17.0444 24 19.1445 24C21.2446 24 22.9531 22.4229 22.9531 20.4844C22.9531 20.2582 22.9289 20.0372 22.8845 19.8228C24.8963 17.6559 26 14.8934 26 12C26 5.39246 20.1576 0 13 0C5.84183 0 0 5.39301 0 12C0 14.8934 1.1037 17.6559 3.11551 19.8228C3.07108 20.0372 3.04687 20.2582 3.04687 20.4844ZM9.14062 20.4844C9.14062 21.6475 8.11548 22.5938 6.85547 22.5938C5.59546 22.5938 4.57031 21.6475 4.57031 20.4844C4.57031 19.3213 5.59546 18.375 6.85547 18.375C8.11548 18.375 9.14062 19.3213 9.14062 20.4844ZM19.1445 22.5938C17.8845 22.5938 16.8594 21.6475 16.8594 20.4844C16.8594 19.3213 17.8845 18.375 19.1445 18.375C20.4045 18.375 21.4297 19.3213 21.4297 20.4844C21.4297 21.6475 20.4045 22.5938 19.1445 22.5938ZM1.52344 12C1.52344 6.15857 6.67178 1.40625 13 1.40625C19.3282 1.40625 24.4766 6.15857 24.4766 12C24.4766 14.3251 23.6712 16.5535 22.1902 18.3761C21.881 17.9963 21.4898 17.6766 21.0419 17.438C22.2805 15.8741 22.9531 13.9774 22.9531 12C22.9531 6.9538 18.4657 2.8125 13 2.8125C7.53407 2.8125 3.04687 6.95398 3.04687 12C3.04687 13.9774 3.71953 15.8741 4.95811 17.438C4.51021 17.6766 4.11903 17.9963 3.80978 18.3761C2.3288 16.5535 1.52344 14.3251 1.52344 12Z" fill="#070707"/>
</svg>
