<svg width="25" height="25" viewBox="0 0 25 25" fill="none" xmlns="http://www.w3.org/2000/svg">
<path d="M21.6998 12.5V24H3.2998V12.5" stroke="#070707" stroke-linecap="round" stroke-linejoin="round"/>
<path d="M24 6.75H1V12.5H24V6.75Z" stroke="#070707" stroke-linecap="round" stroke-linejoin="round"/>
<path d="M12.5 24V6.75" stroke="#070707" stroke-linecap="round" stroke-linejoin="round"/>
<path d="M12.5002 6.75H7.3252C6.5627 6.75 5.83143 6.4471 5.29226 5.90793C4.7531 5.36876 4.4502 4.6375 4.4502 3.875C4.4502 3.1125 4.7531 2.38124 5.29226 1.84207C5.83143 1.3029 6.5627 1 7.3252 1C11.3502 1 12.5002 6.75 12.5002 6.75Z" stroke="#070707" stroke-linecap="round" stroke-linejoin="round"/>
<path d="M12.5 6.75H17.675C18.4375 6.75 19.1688 6.4471 19.7079 5.90793C20.2471 5.36876 20.55 4.6375 20.55 3.875C20.55 3.1125 20.2471 2.38124 19.7079 1.84207C19.1688 1.3029 18.4375 1 17.675 1C13.65 1 12.5 6.75 12.5 6.75Z" stroke="#070707" stroke-linecap="round" stroke-linejoin="round"/>
</svg>
