<svg width="24" height="24" viewBox="0 0 24 24" fill="none" xmlns="http://www.w3.org/2000/svg">
<g clip-path="url(#clip0_1_27172)">
<path d="M0 12C0 5.3724 5.3724 0 12 0C18.6276 0 24 5.3724 24 12C24 18.6276 18.6276 24 12 24C5.3724 24 0 18.6276 0 12Z" fill="#070707"/>
<path d="M13.2949 14.1751L15.0889 15.9061C15.4561 16.2601 15.4561 16.8349 15.0889 17.1889C14.7217 17.5429 14.1265 17.5429 13.7599 17.1889L11.9971 15.4879L10.2349 17.1889C10.056 17.3602 9.81773 17.4555 9.57007 17.4547C9.33007 17.4547 9.08947 17.3659 8.90587 17.1889C8.81895 17.1062 8.74973 17.0067 8.70242 16.8965C8.6551 16.7862 8.63068 16.6676 8.63062 16.5476C8.63056 16.4276 8.65488 16.3089 8.70209 16.1986C8.7493 16.0884 8.81843 15.9888 8.90527 15.9061L10.6993 14.1751C10.0417 14.0307 9.41225 13.7791 8.83627 13.4305C8.7328 13.3695 8.64276 13.2882 8.57156 13.1915C8.50036 13.0948 8.44949 12.9847 8.42202 12.8678C8.39455 12.7509 8.39104 12.6296 8.4117 12.5113C8.43237 12.393 8.47679 12.2801 8.54227 12.1795C8.81767 11.7547 9.39787 11.6269 9.83767 11.8939C10.49 12.2852 11.2364 12.4919 11.9971 12.4919C12.7578 12.4919 13.5042 12.2852 14.1565 11.8939C14.5963 11.6269 15.1765 11.7547 15.4525 12.1795C15.7291 12.6031 15.5965 13.1635 15.1579 13.4305C14.5819 13.7791 13.9525 14.031 13.2949 14.1751Z" fill="white"/>
<path fill-rule="evenodd" clip-rule="evenodd" d="M8.78125 8.55119C8.78125 10.2582 10.22 11.6472 11.9894 11.6472C13.7588 11.6472 15.1971 10.2588 15.1971 8.55119C15.1971 6.84359 13.7588 5.45459 11.9894 5.45459C10.22 5.45459 8.78125 6.84359 8.78125 8.55119ZM13.3173 8.55119C13.3173 7.84439 12.7214 7.26959 11.9894 7.26959C11.2574 7.26959 10.6611 7.84439 10.6611 8.55119C10.6611 9.25799 11.2574 9.83279 11.9894 9.83279C12.7214 9.83279 13.3173 9.25799 13.3173 8.55119Z" fill="white"/>
</g>
<defs>
<clipPath id="clip0_1_27172">
<rect width="24" height="24" fill="white"/>
</clipPath>
</defs>
</svg>
