<svg width="40" height="30" viewBox="0 0 40 30" fill="none" xmlns="http://www.w3.org/2000/svg">
<rect x="0.5" y="0.5" width="39" height="29" rx="3.5" stroke="#181616"/>
<path d="M13.788 21.216C12.768 21.216 11.892 21.024 11.16 20.64C10.44 20.244 9.894 19.776 9.522 19.236L10.404 18.3C10.752 18.768 11.214 19.152 11.79 19.452C12.378 19.74 13.032 19.884 13.752 19.884C14.628 19.884 15.312 19.686 15.804 19.29C16.308 18.882 16.56 18.33 16.56 17.634C16.56 17.262 16.488 16.944 16.344 16.68C16.2 16.404 15.996 16.182 15.732 16.014C15.468 15.846 15.15 15.72 14.778 15.636C14.418 15.552 14.016 15.51 13.572 15.51C13.32 15.51 13.074 15.51 12.834 15.51C12.594 15.51 12.426 15.516 12.33 15.528V14.16C12.426 14.172 12.594 14.178 12.834 14.178C13.086 14.178 13.332 14.178 13.572 14.178C13.944 14.178 14.298 14.142 14.634 14.07C14.982 13.986 15.282 13.866 15.534 13.71C15.786 13.542 15.984 13.338 16.128 13.098C16.284 12.846 16.362 12.546 16.362 12.198C16.362 11.862 16.29 11.568 16.146 11.316C16.002 11.064 15.81 10.854 15.57 10.686C15.33 10.506 15.042 10.374 14.706 10.29C14.382 10.194 14.04 10.146 13.68 10.146C13.02 10.146 12.438 10.272 11.934 10.524C11.43 10.764 10.956 11.124 10.512 11.604L9.684 10.668C10.116 10.14 10.674 9.702 11.358 9.354C12.042 8.994 12.852 8.814 13.788 8.814C14.364 8.814 14.898 8.886 15.39 9.03C15.894 9.174 16.326 9.384 16.686 9.66C17.046 9.924 17.328 10.26 17.532 10.668C17.748 11.064 17.856 11.514 17.856 12.018C17.856 12.45 17.772 12.828 17.604 13.152C17.448 13.476 17.244 13.752 16.992 13.98C16.74 14.208 16.458 14.394 16.146 14.538C15.846 14.67 15.552 14.76 15.264 14.808C15.54 14.832 15.84 14.91 16.164 15.042C16.488 15.174 16.788 15.36 17.064 15.6C17.34 15.84 17.568 16.14 17.748 16.5C17.94 16.86 18.036 17.28 18.036 17.76C18.036 18.264 17.94 18.726 17.748 19.146C17.556 19.566 17.274 19.932 16.902 20.244C16.542 20.544 16.098 20.784 15.57 20.964C15.042 21.132 14.448 21.216 13.788 21.216ZM23.8075 21.216C22.7875 21.216 21.9115 21.024 21.1795 20.64C20.4595 20.244 19.9135 19.776 19.5415 19.236L20.4235 18.3C20.7715 18.768 21.2335 19.152 21.8095 19.452C22.3975 19.74 23.0515 19.884 23.7715 19.884C24.6475 19.884 25.3315 19.686 25.8235 19.29C26.3275 18.882 26.5795 18.33 26.5795 17.634C26.5795 17.262 26.5075 16.944 26.3635 16.68C26.2195 16.404 26.0155 16.182 25.7515 16.014C25.4875 15.846 25.1695 15.72 24.7975 15.636C24.4375 15.552 24.0355 15.51 23.5915 15.51C23.3395 15.51 23.0935 15.51 22.8535 15.51C22.6135 15.51 22.4455 15.516 22.3495 15.528V14.16C22.4455 14.172 22.6135 14.178 22.8535 14.178C23.1055 14.178 23.3515 14.178 23.5915 14.178C23.9635 14.178 24.3175 14.142 24.6535 14.07C25.0015 13.986 25.3015 13.866 25.5535 13.71C25.8055 13.542 26.0035 13.338 26.1475 13.098C26.3035 12.846 26.3815 12.546 26.3815 12.198C26.3815 11.862 26.3095 11.568 26.1655 11.316C26.0215 11.064 25.8295 10.854 25.5895 10.686C25.3495 10.506 25.0615 10.374 24.7255 10.29C24.4015 10.194 24.0595 10.146 23.6995 10.146C23.0395 10.146 22.4575 10.272 21.9535 10.524C21.4495 10.764 20.9755 11.124 20.5315 11.604L19.7035 10.668C20.1355 10.14 20.6935 9.702 21.3775 9.354C22.0615 8.994 22.8715 8.814 23.8075 8.814C24.3835 8.814 24.9175 8.886 25.4095 9.03C25.9135 9.174 26.3455 9.384 26.7055 9.66C27.0655 9.924 27.3475 10.26 27.5515 10.668C27.7675 11.064 27.8755 11.514 27.8755 12.018C27.8755 12.45 27.7915 12.828 27.6235 13.152C27.4675 13.476 27.2635 13.752 27.0115 13.98C26.7595 14.208 26.4775 14.394 26.1655 14.538C25.8655 14.67 25.5715 14.76 25.2835 14.808C25.5595 14.832 25.8595 14.91 26.1835 15.042C26.5075 15.174 26.8075 15.36 27.0835 15.6C27.3595 15.84 27.5875 16.14 27.7675 16.5C27.9595 16.86 28.0555 17.28 28.0555 17.76C28.0555 18.264 27.9595 18.726 27.7675 19.146C27.5755 19.566 27.2935 19.932 26.9215 20.244C26.5615 20.544 26.1175 20.784 25.5895 20.964C25.0615 21.132 24.4675 21.216 23.8075 21.216Z" fill="#070707"/>
</svg>
