<svg width="28" height="40" viewBox="0 0 28 40" fill="none" xmlns="http://www.w3.org/2000/svg">
<path d="M24.9888 36.1626H2.99882C2.20581 36.162 1.44551 35.9287 0.884762 35.5139C0.324016 35.0991 0.00863046 34.5367 0.0078125 33.9501V6.04949C0.00863046 5.46286 0.324016 4.90044 0.884762 4.48563C1.44551 4.07083 2.20581 3.83752 2.99882 3.83692H24.9888C25.7841 3.83585 26.5476 4.0682 27.1116 4.48299C27.6757 4.89779 27.9943 5.46115 27.9975 6.04949V33.9501C27.9943 34.5384 27.6757 35.1018 27.1116 35.5166C26.5476 35.9313 25.7841 36.1637 24.9888 36.1626ZM2.99882 4.97977C2.61543 4.98008 2.24785 5.09288 1.97675 5.29342C1.70565 5.49397 1.55316 5.76588 1.55276 6.04949V33.9501C1.55069 34.091 1.58668 34.2308 1.65862 34.3612C1.73056 34.4917 1.837 34.6102 1.97169 34.7099C2.10638 34.8095 2.26662 34.8883 2.443 34.9415C2.61938 34.9947 2.80835 35.0213 2.99882 35.0198H24.9888C25.3745 35.0211 25.7452 34.9093 26.0196 34.7088C26.294 34.5082 26.4497 34.2354 26.4526 33.9501V6.04949C26.4497 5.76416 26.294 5.49131 26.0196 5.29078C25.7452 5.09025 25.3745 4.97841 24.9888 4.97977H2.99882Z" fill="#070707"/>
<path d="M27.2237 10.0494C27.1513 10.0495 27.0793 10.042 27.0097 10.0271L3.12336 4.95796C2.92637 4.91613 2.75992 4.81813 2.66061 4.68552C2.56131 4.5529 2.53728 4.39654 2.59383 4.25082C2.65037 4.1051 2.78285 3.98197 2.96213 3.90851C3.1414 3.83505 3.35278 3.81727 3.54976 3.8591L27.4361 8.92882C27.615 8.96688 27.7692 9.05142 27.8705 9.16689C27.9718 9.28236 28.0133 9.421 27.9875 9.55732C27.9616 9.69364 27.8702 9.81847 27.7298 9.90888C27.5895 9.99928 27.4098 10.0492 27.2237 10.0494ZM15.839 12.2237C15.7668 12.2236 15.695 12.2159 15.6258 12.2008L13.4474 11.738C13.2538 11.6941 13.0911 11.5957 12.9946 11.464C12.898 11.3323 12.8752 11.1778 12.9311 11.0338C12.987 10.8898 13.1172 10.7678 13.2935 10.6941C13.4698 10.6204 13.6782 10.6008 13.8738 10.6397L16.0522 11.1025C16.2317 11.1402 16.3868 11.2247 16.4886 11.3404C16.5905 11.4561 16.6322 11.5951 16.6062 11.7318C16.5802 11.8686 16.4882 11.9937 16.3472 12.0841C16.2062 12.1745 16.0256 12.2241 15.839 12.2237ZM8.42329 10.6522C8.35006 10.6519 8.27726 10.6441 8.20699 10.6288L0.559526 9.00539C0.362541 8.96356 0.196087 8.86556 0.0967807 8.73294C-0.00252527 8.60033 -0.026549 8.44396 0.0299957 8.29825C0.0865404 8.15253 0.219022 8.0294 0.398295 7.95594C0.577567 7.88247 0.788945 7.8647 0.98593 7.90653L8.6334 9.52996C8.81293 9.56765 8.96795 9.65215 9.06979 9.76784C9.17164 9.88352 9.21342 10.0226 9.18743 10.1593C9.16143 10.296 9.06941 10.4211 8.92837 10.5115C8.78733 10.6019 8.60682 10.6515 8.42019 10.6511L8.42329 10.6522ZM27.226 14.6408C27.1536 14.6408 27.0815 14.6331 27.012 14.618L20.8554 13.3094C20.6618 13.2655 20.4991 13.1672 20.4026 13.0355C20.306 12.9038 20.2832 12.7493 20.3391 12.6053C20.395 12.4612 20.5252 12.3392 20.7015 12.2655C20.8778 12.1918 21.0862 12.1723 21.2818 12.2111L27.4384 13.5197C27.6179 13.5574 27.7729 13.6418 27.8747 13.7574C27.9766 13.8731 28.0184 14.012 27.9925 14.1487C27.9666 14.2854 27.8747 14.4105 27.7338 14.5009C27.593 14.5914 27.4126 14.6411 27.226 14.6408ZM27.2237 19.2351C27.1513 19.235 27.0793 19.2275 27.0097 19.2128L0.564933 13.6002C0.467396 13.5796 0.376319 13.5449 0.296902 13.4982C0.217484 13.4515 0.151282 13.3936 0.102075 13.328C0.0528673 13.2624 0.0216183 13.1902 0.0101125 13.1156C-0.00139319 13.0411 0.00706957 12.9655 0.035017 12.8934C0.0629643 12.8212 0.10985 12.7539 0.172995 12.6951C0.236141 12.6364 0.314311 12.5874 0.403042 12.551C0.491773 12.5146 0.589327 12.4915 0.690134 12.483C0.790942 12.4745 0.893028 12.4807 0.990565 12.5014L27.4369 18.1145C27.6158 18.1526 27.7701 18.2372 27.8714 18.3527C27.9727 18.4683 28.0142 18.607 27.9882 18.7433C27.9623 18.8797 27.8706 19.0045 27.7302 19.0949C27.5897 19.1852 27.4098 19.235 27.2237 19.2351ZM27.2237 23.8288C27.1516 23.829 27.0798 23.8215 27.0105 23.8065L0.564161 18.1934C0.367279 18.1514 0.201004 18.0533 0.101915 17.9206C0.00282673 17.788 -0.0209591 17.6316 0.0357905 17.486C0.0925401 17.3403 0.225176 17.2173 0.404521 17.144C0.583866 17.0707 0.795227 17.0531 0.992109 17.0951L27.4361 22.7065C27.6156 22.7442 27.7706 22.8287 27.8724 22.9443C27.9743 23.0599 28.0161 23.1989 27.9902 23.3356C27.9643 23.4722 27.8724 23.5974 27.7315 23.6878C27.5906 23.7783 27.4103 23.8279 27.2237 23.8277V23.8288ZM4.53544 36.1637C4.35382 36.164 4.17788 36.1169 4.03851 36.0307C3.89915 35.9446 3.80527 35.8249 3.77336 35.6926C3.74146 35.5604 3.77357 35.424 3.86406 35.3075C3.95455 35.1911 4.09762 35.1019 4.26816 35.0557L26.9556 28.8614C27.1467 28.8126 27.3559 28.8211 27.5385 28.8851C27.7211 28.9492 27.8625 29.0635 27.9325 29.2038C28.0024 29.344 27.9953 29.4989 27.9126 29.6353C27.8299 29.7717 27.6783 29.8787 27.4902 29.9334L4.80271 36.1277C4.71729 36.1515 4.62674 36.1637 4.53544 36.1637ZM0.778134 32.3385C0.596453 32.3389 0.420388 32.292 0.280882 32.2059C0.141376 32.1198 0.047357 32.0001 0.0153519 31.8678C-0.0166533 31.7355 0.0154021 31.5991 0.105885 31.4825C0.196367 31.366 0.339486 31.2768 0.510087 31.2305L26.9556 24.0042C27.1473 23.9534 27.3583 23.9606 27.5428 24.0243C27.7273 24.0879 27.8704 24.2029 27.9409 24.3442C28.0114 24.4854 28.0038 24.6416 27.9195 24.7787C27.8352 24.9158 27.6812 25.0227 27.491 25.0762L1.04541 32.3025C0.959991 32.3264 0.869435 32.3386 0.778134 32.3385Z" fill="#070707"/>
<path d="M0.777992 27.4806C0.596684 27.4806 0.421131 27.4335 0.282066 27.3474C0.143001 27.2614 0.0492866 27.1419 0.0173315 27.0099C-0.0146237 26.8778 0.0172162 26.7417 0.107276 26.6253C0.197337 26.5089 0.339878 26.4196 0.509945 26.3731L19.5838 21.1583C19.7755 21.1075 19.9865 21.1147 20.171 21.1783C20.3555 21.242 20.4985 21.3569 20.5691 21.4982C20.6396 21.6395 20.6319 21.7956 20.5477 21.9327C20.4634 22.0698 20.3094 22.1767 20.1191 22.2303L1.04527 27.4451C0.959703 27.4685 0.869213 27.4805 0.777992 27.4806ZM0.777992 22.6234C0.596378 22.6237 0.420436 22.5766 0.28107 22.4905C0.141703 22.4044 0.0478239 22.2846 0.01592 22.1524C-0.0159839 22.0201 0.0161286 21.8838 0.106616 21.7673C0.197104 21.6508 0.340181 21.5616 0.510718 21.5154L9.58185 19.0406C9.77349 18.9898 9.9845 18.997 10.169 19.0606C10.3535 19.1243 10.4966 19.2392 10.5671 19.3805C10.6377 19.5217 10.63 19.6779 10.5457 19.815C10.4614 19.9521 10.3074 20.059 10.1172 20.1126L1.04527 22.5874C0.959849 22.6113 0.869293 22.6235 0.777992 22.6234ZM20.887 4.98H7.1138C6.90893 4.98 6.71245 4.9198 6.56758 4.81263C6.42272 4.70547 6.34133 4.56012 6.34133 4.40857V0.571429C6.34133 0.419876 6.42272 0.274531 6.56758 0.167368C6.71245 0.0602039 6.90893 0 7.1138 0H20.887C21.0918 0 21.2883 0.0602039 21.4332 0.167368C21.5781 0.274531 21.6594 0.419876 21.6594 0.571429V4.40857C21.6594 4.56012 21.5781 4.70547 21.4332 4.81263C21.2883 4.9198 21.0918 4.98 20.887 4.98ZM7.88628 3.83714H20.1145V1.14286H7.88628V3.83714ZM20.887 40H7.1138C6.90893 40 6.71245 39.9398 6.56758 39.8326C6.42272 39.7255 6.34133 39.5801 6.34133 39.4286V35.5914C6.34133 35.4399 6.42272 35.2945 6.56758 35.1874C6.71245 35.0802 6.90893 35.02 7.1138 35.02H20.887C21.0918 35.02 21.2883 35.0802 21.4332 35.1874C21.5781 35.2945 21.6594 35.4399 21.6594 35.5914V39.4286C21.6594 39.5801 21.5781 39.7255 21.4332 39.8326C21.2883 39.9398 21.0918 40 20.887 40ZM7.88628 38.8571H20.1145V36.1629H7.88628V38.8571Z" fill="#070707"/>
</svg>
