<svg width="44" height="36" viewBox="0 0 44 36" fill="none" xmlns="http://www.w3.org/2000/svg">
<path d="M43.2667 22H0.733305C0.636981 21.9999 0.541584 22.0257 0.452574 22.0759C0.363565 22.1261 0.28269 22.1998 0.214579 22.2926C0.146467 22.3855 0.0924556 22.4958 0.0556356 22.6172C0.0188156 22.7386 -9.01119e-05 22.8686 3.22913e-07 23V35C-9.01119e-05 35.1314 0.0188156 35.2615 0.0556356 35.3829C0.0924556 35.5042 0.146467 35.6145 0.214579 35.7074C0.28269 35.8003 0.363565 35.8739 0.452574 35.9241C0.541584 35.9743 0.636981 36.0001 0.733305 36H43.2666C43.3629 36.0001 43.4583 35.9743 43.5473 35.9241C43.6363 35.8739 43.7172 35.8003 43.7853 35.7074C43.8534 35.6145 43.9075 35.5042 43.9443 35.3829C43.9811 35.2615 44 35.1314 43.9999 35V23C44 22.8686 43.9811 22.7386 43.9443 22.6172C43.9075 22.4958 43.8535 22.3855 43.7854 22.2926C43.7173 22.1998 43.6364 22.1261 43.5474 22.0759C43.4584 22.0257 43.363 21.9999 43.2667 22ZM42.5333 34.0001H1.4667V24.0001H3.6667L3.66592 26.0001C3.66589 26.1315 3.68483 26.2615 3.72167 26.3828C3.75851 26.5042 3.81253 26.6144 3.88063 26.7073C3.94873 26.8002 4.02958 26.8738 4.11856 26.9241C4.20755 26.9743 4.30292 27.0001 4.39923 27.0001C4.49554 27.0001 4.59091 26.9743 4.67989 26.9241C4.76887 26.8738 4.84973 26.8002 4.91783 26.7073C4.98593 26.6144 5.03994 26.5042 5.07678 26.3828C5.11362 26.2615 5.13257 26.1315 5.13253 26.0001L5.13331 24.0001H8.06661V28.0001C8.06661 28.5531 8.39437 29 8.79991 29C9.20545 29 9.53322 28.5531 9.53322 28.0001V24.0001H12.4665V26.0001C12.4664 26.1315 12.4853 26.2616 12.5222 26.3829C12.559 26.5043 12.613 26.6146 12.6811 26.7075C12.7492 26.8004 12.8301 26.874 12.9191 26.9242C13.0081 26.9744 13.1035 27.0002 13.1998 27.0001C13.2962 27.0002 13.3915 26.9744 13.4806 26.9242C13.5696 26.874 13.6504 26.8004 13.7186 26.7075C13.7867 26.6146 13.8407 26.5043 13.8775 26.3829C13.9143 26.2616 13.9332 26.1315 13.9331 26.0001V24.0001H16.8664V28.0001C16.8664 28.5531 17.1942 29 17.5997 29C18.0053 29 18.333 28.5531 18.333 28.0001V24.0001H21.2664V26.0001C21.2664 26.5531 21.5941 27.0001 21.9997 27.0001C22.4052 27.0001 22.733 26.5531 22.733 26.0001V24.0001H25.6663V28.0001C25.6663 28.5531 25.994 29 26.3996 29C26.8051 29 27.1329 28.5531 27.1329 28.0001V24.0001H30.0662V26.0001C30.0662 26.5531 30.3939 27.0001 30.7995 27.0001C31.205 27.0001 31.5328 26.5531 31.5328 26.0001V24.0001H34.4661V28.0001C34.4661 28.5531 34.7939 29 35.1994 29C35.6049 29 35.9327 28.5531 35.9327 28.0001V24.0001H38.8675L38.8667 26.0001C38.8667 26.1315 38.8856 26.2615 38.9224 26.3828C38.9593 26.5042 39.0133 26.6144 39.0814 26.7073C39.1495 26.8002 39.2304 26.8738 39.3193 26.9241C39.4083 26.9743 39.5037 27.0001 39.6 27.0001C39.6963 27.0001 39.7917 26.9743 39.8807 26.9241C39.9697 26.8738 40.0505 26.8002 40.1186 26.7073C40.1867 26.6144 40.2407 26.5042 40.2776 26.3828C40.3144 26.2615 40.3333 26.1315 40.3333 26.0001L40.3341 24.0001H42.5326V34.0001H42.5333ZM0.733305 5.57431e-07C0.636981 -0.000122763 0.541584 0.0256579 0.452574 0.0758671C0.363565 0.126076 0.28269 0.199728 0.214579 0.292608C0.146467 0.385488 0.0924556 0.495772 0.0556356 0.617149C0.0188156 0.738526 -9.01119e-05 0.868613 3.22913e-07 0.999964V18.0001C3.22913e-07 18.5531 0.327766 19 0.733305 19C1.13884 19 1.46661 18.5531 1.46661 18.0001V0.999964C1.46671 0.868608 1.44781 0.738514 1.411 0.617131C1.37418 0.495747 1.32017 0.385456 1.25206 0.292573C1.18394 0.19969 1.10306 0.12604 1.01405 0.0758358C0.925034 0.025632 0.829633 -0.000138207 0.733305 5.57431e-07ZM43.2667 5.57431e-07C43.1704 -0.000122763 43.075 0.0256579 42.986 0.0758671C42.897 0.126076 42.8161 0.199728 42.748 0.292608C42.6799 0.385488 42.6258 0.495772 42.589 0.617149C42.5522 0.738526 42.5333 0.868613 42.5334 0.999964V18.0001C42.5333 18.1314 42.5522 18.2615 42.589 18.3829C42.6258 18.5043 42.6799 18.6145 42.748 18.7074C42.8161 18.8003 42.897 18.8739 42.986 18.9242C43.075 18.9744 43.1704 19.0001 43.2667 19C43.363 19.0001 43.4584 18.9744 43.5474 18.9242C43.6364 18.8739 43.7173 18.8003 43.7854 18.7074C43.8535 18.6145 43.9075 18.5043 43.9444 18.3829C43.9812 18.2615 44.0001 18.1314 44 18.0001V0.999964C44.0001 0.868613 43.9812 0.738526 43.9444 0.617149C43.9075 0.495772 43.8535 0.385488 43.7854 0.292608C43.7173 0.199728 43.6364 0.126076 43.5474 0.0758671C43.4584 0.0256579 43.363 -0.000122763 43.2667 5.57431e-07ZM40.909 9.35898L37.5042 3.35896C37.3201 3.03493 37.0179 2.91798 36.7489 3.05896C36.4797 3.20298 36.3001 3.57892 36.3001 3.99997V9.00003H7.7V3.99904C7.7 3.57798 7.5203 3.20204 7.25123 3.05907C6.98208 2.9161 6.6807 3.03411 6.49593 3.35907L3.09109 9.36003C2.98624 9.54507 2.93339 9.773 2.93339 9.99999C2.93339 10.227 2.98616 10.455 3.09109 10.641L6.49593 16.641C6.62793 16.8731 6.82077 17 7.01877 17C7.09655 17 7.17501 16.9799 7.25055 16.94C7.5197 16.796 7.69931 16.42 7.69931 16V11H36.2993V16C36.2993 16.4211 36.479 16.797 36.7481 16.94C36.8219 16.9794 36.9005 16.9997 36.9799 17C37.1779 17 37.3707 16.8729 37.5035 16.641L40.9083 10.641C41.0139 10.455 41.0667 10.228 41.0667 9.99999C41.0667 9.77195 41.0138 9.54507 40.909 9.35898ZM6.33823 13.238L4.50046 9.99999L6.33823 6.76198V13.238ZM37.6618 13.238V6.76198L39.4995 9.99999L37.6618 13.238Z" fill="#070707"/>
</svg>
